<?xml version="1.0" encoding="UTF-8"?>
<svg id="Layer_1" data-name="Layer 1" xmlns="http://www.w3.org/2000/svg" viewBox="0 0 502.83 131.2">
  <defs>
    <style>
      .cls-1 {
        fill: #231f20;
      }

      .cls-2 {
        fill: none;
        stroke: #231f20;
        stroke-miterlimit: 10;
      }

      .cls-3 {
        isolation: isolate;
      }
    </style>
  </defs>
  <g class="cls-3">
    <path class="cls-1" d="M50.69.5l36.54,100.8h-13.86l-9.8-27.02H24.23l-9.66,27.02H.71L36.83.5h13.86ZM59.93,62.38L43.83,15.62l-15.96,46.76h32.06Z"/>
    <path class="cls-1" d="M110.61,27.8l.84,10.64c5.18-6.44,12.32-12.32,22.82-12.32s15.68,5.04,17.92,12.18c5.88-6.58,13.16-12.18,23.66-12.18,15.4,0,19.74,10.64,19.74,24.22v50.96h-12.32v-48.86c0-9.24-2.52-14.98-10.92-14.98s-15.4,7.28-18.2,10.5v53.34h-12.46v-48.44c0-9.38-2.24-15.4-10.64-15.4s-15.54,7.14-18.76,10.78v53.06h-12.32V27.8h10.64Z"/>
    <path class="cls-1" d="M269.79,101.3h-10.08l-1.12-12.46c-5.04,9.66-13.58,14.14-24.5,14.14-13.16,0-22.12-7.42-22.12-21.28,0-10.78,7-23.1,34.02-23.1,4.34,0,7.56.28,11.48.84v-7c0-10.5-5.74-15.96-15.54-15.96-8.82,0-14.84,3.08-21.7,8.12l-5.74-7.56c7.42-6.86,17.78-10.92,28.14-10.92,16.52,0,27.16,7.56,27.16,25.9v49.28ZM257.47,68.68c-2.66-.42-5.46-.7-11.2-.7-15.12,0-21.98,4.48-21.98,14,0,7,4.48,11.2,13.16,11.2,11.34,0,20.02-12.04,20.02-21.7v-2.8Z"/>
    <path class="cls-1" d="M290.09,101.3V.5h12.32v100.8h-12.32Z"/>
    <path class="cls-1" d="M385.85,98.78c0,24.5-10.36,31.92-32.06,31.92-9.66,0-19.46-2.1-25.62-4.62l2.38-10.22c6.16,2.1,14,4.06,22.68,4.06,16.52,0,20.72-6.72,20.72-21.84v-6.86c-5.18,6.44-13.3,11.34-24.08,11.34-20.44,0-29.82-15.54-29.82-37.52s9.66-38.92,30.94-38.92c11.48,0,19.46,7.14,23.52,12.32l.7-10.64h10.64v70.98ZM373.53,49.22c-3.08-4.48-10.92-11.9-20.3-11.9-13.44,0-20.16,10.36-20.16,27.02s5.74,27.3,19.74,27.3c10.08,0,16.8-6.44,20.72-10.5v-31.92Z"/>
    <path class="cls-1" d="M417.35,27.8l.84,10.64c5.18-6.44,12.32-12.32,22.82-12.32s15.68,5.04,17.92,12.18c5.88-6.58,13.16-12.18,23.66-12.18,15.4,0,19.74,10.64,19.74,24.22v50.96h-12.32v-48.86c0-9.24-2.52-14.98-10.92-14.98s-15.4,7.28-18.2,10.5v53.34h-12.46v-48.44c0-9.38-2.24-15.4-10.64-15.4s-15.54,7.14-18.76,10.78v53.06h-12.32V27.8h10.64Z"/>
  </g>
  <g class="cls-3">
    <path class="cls-2" d="M50.69.5l36.54,100.8h-13.86l-9.8-27.02H24.23l-9.66,27.02H.71L36.83.5h13.86ZM59.93,62.38L43.83,15.62l-15.96,46.76h32.06Z"/>
    <path class="cls-2" d="M110.61,27.8l.84,10.64c5.18-6.44,12.32-12.32,22.82-12.32s15.68,5.04,17.92,12.18c5.88-6.58,13.16-12.18,23.66-12.18,15.4,0,19.74,10.64,19.74,24.22v50.96h-12.32v-48.86c0-9.24-2.52-14.98-10.92-14.98s-15.4,7.28-18.2,10.5v53.34h-12.46v-48.44c0-9.38-2.24-15.4-10.64-15.4s-15.54,7.14-18.76,10.78v53.06h-12.32V27.8h10.64Z"/>
    <path class="cls-2" d="M269.79,101.3h-10.08l-1.12-12.46c-5.04,9.66-13.58,14.14-24.5,14.14-13.16,0-22.12-7.42-22.12-21.28,0-10.78,7-23.1,34.02-23.1,4.34,0,7.56.28,11.48.84v-7c0-10.5-5.74-15.96-15.54-15.96-8.82,0-14.84,3.08-21.7,8.12l-5.74-7.56c7.42-6.86,17.78-10.92,28.14-10.92,16.52,0,27.16,7.56,27.16,25.9v49.28ZM257.47,68.68c-2.66-.42-5.46-.7-11.2-.7-15.12,0-21.98,4.48-21.98,14,0,7,4.48,11.2,13.16,11.2,11.34,0,20.02-12.04,20.02-21.7v-2.8Z"/>
    <path class="cls-2" d="M290.09,101.3V.5h12.32v100.8h-12.32Z"/>
    <path class="cls-2" d="M385.85,98.78c0,24.5-10.36,31.92-32.06,31.92-9.66,0-19.46-2.1-25.62-4.62l2.38-10.22c6.16,2.1,14,4.06,22.68,4.06,16.52,0,20.72-6.72,20.72-21.84v-6.86c-5.18,6.44-13.3,11.34-24.08,11.34-20.44,0-29.82-15.54-29.82-37.52s9.66-38.92,30.94-38.92c11.48,0,19.46,7.14,23.52,12.32l.7-10.64h10.64v70.98ZM373.53,49.22c-3.08-4.48-10.92-11.9-20.3-11.9-13.44,0-20.16,10.36-20.16,27.02s5.74,27.3,19.74,27.3c10.08,0,16.8-6.44,20.72-10.5v-31.92Z"/>
    <path class="cls-2" d="M417.35,27.8l.84,10.64c5.18-6.44,12.32-12.32,22.82-12.32s15.68,5.04,17.92,12.18c5.88-6.58,13.16-12.18,23.66-12.18,15.4,0,19.74,10.64,19.74,24.22v50.96h-12.32v-48.86c0-9.24-2.52-14.98-10.92-14.98s-15.4,7.28-18.2,10.5v53.34h-12.46v-48.44c0-9.38-2.24-15.4-10.64-15.4s-15.54,7.14-18.76,10.78v53.06h-12.32V27.8h10.64Z"/>
  </g>
</svg>