<?xml version="1.0" encoding="UTF-8"?>
<svg id="Layer_1" data-name="Layer 1" xmlns="http://www.w3.org/2000/svg" xmlns:xlink="http://www.w3.org/1999/xlink" viewBox="0 0 843.41 681.49">
  <defs>
    <style>
      .cls-1, .cls-2 {
        fill: none;
      }

      .cls-3, .cls-4, .cls-5 {
        fill: #e1ff00;
      }

      .cls-6 {
        fill: #787664;
      }

      .cls-7, .cls-8, .cls-9 {
        fill: #231f20;
      }

      .cls-10 {
        fill: #f3f1ee;
      }

      .cls-11 {
        fill: #cac4b7;
      }

      .cls-12 {
        clip-path: url(#clippath-1);
      }

      .cls-13 {
        letter-spacing: 0em;
      }

      .cls-2 {
        stroke: #787664;
        stroke-miterlimit: 10;
      }

      .cls-14 {
        letter-spacing: 0em;
      }

      .cls-4, .cls-8 {
        font-family: LFTEtica-Bold, 'LFT Etica';
        font-size: 10px;
        font-weight: 700;
      }

      .cls-15 {
        letter-spacing: -.05em;
      }

      .cls-16 {
        letter-spacing: -.05em;
      }

      .cls-17 {
        letter-spacing: -.02em;
      }

      .cls-18 {
        letter-spacing: -.03em;
      }

      .cls-19 {
        letter-spacing: -.02em;
      }

      .cls-20 {
        letter-spacing: -.02em;
      }

      .cls-21 {
        letter-spacing: -.02em;
      }

      .cls-22 {
        letter-spacing: -.02em;
      }

      .cls-23 {
        letter-spacing: -.02em;
      }

      .cls-24 {
        letter-spacing: -.01em;
      }

      .cls-25 {
        letter-spacing: -.02em;
      }

      .cls-26 {
        letter-spacing: -.02em;
      }

      .cls-27 {
        letter-spacing: -.02em;
      }

      .cls-28 {
        letter-spacing: -.01em;
      }

      .cls-29 {
        letter-spacing: -.01em;
      }

      .cls-30 {
        letter-spacing: -.01em;
      }

      .cls-31 {
        letter-spacing: -.02em;
      }

      .cls-32 {
        letter-spacing: -.02em;
      }

      .cls-33 {
        letter-spacing: -.01em;
      }

      .cls-34 {
        letter-spacing: -.01em;
      }

      .cls-35 {
        letter-spacing: -.05em;
      }

      .cls-36 {
        letter-spacing: -.05em;
      }

      .cls-37 {
        letter-spacing: -.05em;
      }

      .cls-38 {
        letter-spacing: -.03em;
      }

      .cls-39 {
        letter-spacing: -.03em;
      }

      .cls-40 {
        letter-spacing: -.03em;
      }

      .cls-41 {
        letter-spacing: -.04em;
      }

      .cls-42 {
        letter-spacing: -.03em;
      }

      .cls-43 {
        letter-spacing: -.03em;
      }

      .cls-44 {
        letter-spacing: -.03em;
      }

      .cls-45 {
        letter-spacing: 0em;
      }

      .cls-46 {
        letter-spacing: 0em;
      }

      .cls-47 {
        letter-spacing: 0em;
      }

      .cls-48 {
        letter-spacing: 0em;
      }

      .cls-49 {
        letter-spacing: 0em;
      }

      .cls-50 {
        letter-spacing: -.01em;
      }

      .cls-51 {
        letter-spacing: -.01em;
      }

      .cls-52 {
        letter-spacing: -.01em;
      }

      .cls-53 {
        letter-spacing: -.01em;
      }

      .cls-54 {
        letter-spacing: 0em;
      }

      .cls-55 {
        letter-spacing: 0em;
      }

      .cls-56 {
        letter-spacing: 0em;
      }

      .cls-9, .cls-5 {
        font-family: LFTEtica-Book, 'LFT Etica';
        font-size: 9px;
      }

      .cls-57 {
        letter-spacing: 0em;
      }

      .cls-58 {
        letter-spacing: 0em;
      }

      .cls-59 {
        letter-spacing: 0em;
      }

      .cls-60 {
        letter-spacing: 0em;
      }

      .cls-61 {
        letter-spacing: 0em;
      }

      .cls-62 {
        letter-spacing: 0em;
      }

      .cls-63 {
        letter-spacing: 0em;
      }

      .cls-64 {
        clip-path: url(#clippath);
      }

      .cls-65 {
        fill: #ff5517;
      }
    </style>
    <clipPath id="clippath">
      <rect class="cls-1" x="0" y="5.2" width="547.75" height="676.3"/>
    </clipPath>
    <clipPath id="clippath-1">
      <rect class="cls-1" x="586.24" y="0" width="257.16" height="444.12"/>
    </clipPath>
  </defs>
  <g class="cls-64">
    <path class="cls-6" d="M197.49,441.92c1.15-.96,2.35-3.84,3.37-5.32,1.54-2.25,1.1-5.54,2.87-7.06,2.89,2.98,4.9,1.12,6.26-1.54,1.03-2.01.46-4.43,1.35-6.48.66-1.53,2.11-1.25,2.74-2.86.68-1.76.49-8.69,2.67-9.19,2.9-.66.63,6.77,2.2,7.72,3.25,1.97,5.04-10.61,5.28-11.76.74-3.6,1.04-7.75,1.99-11.36.3-1.14,3.63-2.04,1.73-3.61-.68.22-1.75,2.24-2.39.35-.17-.51.62-6.2,1.34-6.66,4.5-2.83,3.41,6.03,4.37,6.82,2.07-2.21.07-4.16.64-5.67.85-2.26,3.39-4.59,4.47-6.87,2.71-5.73,3.44-12.09,5.56-18.62,1.48-4.58,3.9-12.52,4.24-17.5.05-.77-1.15-3.2-1.08-3.63.1-.67,1.88-1.71,1.99-2.15.99-3.91.63-8.51.67-11.74.19-14.43,3.77-32.58,5.52-46.54.76-6.01,3.21-10.2,3.22-16.91,0-4.06,2.02-6.11,1.52-10.77.06.59-.7-1.68-.68-1.12-.1-2.49,1.06-4.42,1.39-7.02.29-2.31,1.7-7.11,1.27-9.52-.35-1.99-2.42-1.26-2.66-4.16-.07-.85,1.36-.27,1.52-.99.25-1.19.41-2.9.4-4.41,0-.87-.09-5.08-.27-5.89,0-.03-1.3-2.25-1.28-1.99-.15-2.16.46-6.13-.26-9.47-.25-1.19-1.41-1.92-1.44-3.26-.02-1.15,1.68-1.6,1.34-4.76-.2-1.91-.7-6.9-1.35-8.68-.83-2.28-2.17-1.08-2.71-3.63.15.7,1.27-4.61,1.27-4.77.18-4.76-2.33-9.85-2.28-14.8.15-14.74,1.68-31.4,1.69-47.22,0-16.37.91-32.51-5.43-47.61-2.84-6.77-9.16-11.59-16.59-15.41-5.61-2.89-7.21-6.5-9.81-11.53-2.69-5.21-5.34-10.48-9.44-14.74-.98-1.02-3.45-.76-4.06-1.68-.98-1.47.09-3.95-1.39-5.35-4.1-3.86-5.83,1.43-10.1,1.43,0-5.3-5.2-8.84-10.51-10.07-6.47-1.5-8.36,0-13.84,1.68-6.76,2.06-12.53.85-10.82,8.53.25,1.11,1.22,2.48,1.35,3.22.76,4.4-1.77,5.49-1.63,9.41.25,7.17-1.32,15.26-1.02,22.72.08,1.99.18,4.32.62,6.82.71,4.01.06,4.48,0,8.38-.06,4.35.83,8.78,1.35,13.37.26,2.25,1.32,1.62-2.17,4.58-1.58,1.34-4.96,3.41-5.82,4.84-3.33,5.5-.72,15.91-.71,21.27.03,9.76.61,18.93,1.26,28.33,1.23,17.77-2.67,33.58-6.07,50.05-6.37,30.93-7.91,65.13-5.43,95.13.78,9.45.9,19.41,2.03,28.67.2,1.61-.21,3.96.65,5.03.98,1.22,3.42.11,3.95,2.07.28,1.02-2.99,1.63-2.93,1.46-.45,1.24-.62,2.4-.99,3.89-.46,1.88-.63,6.52.68,7.83,1.25,1.27,4.8.27,5.81,1.17,3.48,3.1-1.52,3.22-2.42,3.86-1.4.99-7.56-3.08-4.06,5.32-.1-.23,1.18,4.02,1.18,2.52,0-.44,1.53.16,1.46.83-.03.3-2.3,2.69-2.57,3.45-.49,1.37-.6,6.15.26,7.47,1.82,2.75,3.73,1.64,3.73-1.12,8.23,0-1.2,2.03,3.73,2.8,3.35.52,1.5-2,4.92-1.12,4.62,1.18,3.64,4.91-.52,5.6-1.12.18-9.62-2.95-11.49-1.36-1.23,1.05-.44,12.51.95,13.76,2.48,2.23,5.42-.2,7.22,1.86-.71-.82-1.65,3.97-1.64,4.09.17,1.39,1.58,2.21,2.15,3.67.27.7.27,2.76.48,3.7.08.36,1.43.48,1.63.86-1.54,1.41.11,6.69,1.38,8.37,1.28,1.69,3.54,1.34,5.41,3.36,1.26,1.36.97,4.19,1.37,5.88.39,1.66,1.71,6.34,3.02,7.28,5.47,3.87,1.33-7.08,7.8-1.97,2.93,2.31,1.33,4.76,1.72,6.67.09.44,2.24,3.16,2.34,4.24.14,1.5-2.26,7.07,2.42,5.58,6.05-1.92.99-22.62,13.36-17.43.86.36,1.31-2.49,1.45-2.69.09.04,2.82,2.28,2.78,2.22,3.07,4.82.51,1.8-2.08,3.36-1.6.96-2.46-1.15-2.72,1.68-.02.25-.17,2.67,1.24,3.26.47.2,2.04-2.2,3.72-.27.34.39-.67,1.32-.56,2.05.15,1.03-.75,3.19-1.69,4.2-1.41,1.51-2.99,2.1-3.72,3.92-.56,1.4-.65,6.15,2.38,3.64"/>
    <path class="cls-2" d="M197.49,441.92c1.15-.96,2.35-3.84,3.37-5.32,1.54-2.25,1.1-5.54,2.87-7.06,2.89,2.98,4.9,1.12,6.26-1.54,1.03-2.01.46-4.43,1.35-6.48.66-1.53,2.11-1.25,2.74-2.86.68-1.76.49-8.69,2.67-9.19,2.9-.66.63,6.77,2.2,7.72,3.25,1.97,5.04-10.61,5.28-11.76.74-3.6,1.04-7.75,1.99-11.36.3-1.14,3.63-2.04,1.73-3.61-.68.22-1.75,2.24-2.39.35-.17-.51.62-6.2,1.34-6.66,4.5-2.83,3.41,6.03,4.37,6.82,2.07-2.21.07-4.16.64-5.67.85-2.26,3.39-4.59,4.47-6.87,2.71-5.73,3.44-12.09,5.56-18.62,1.48-4.58,3.9-12.52,4.24-17.5.05-.77-1.15-3.2-1.08-3.63.1-.67,1.88-1.71,1.99-2.15.99-3.91.63-8.51.67-11.74.19-14.43,3.77-32.58,5.52-46.54.76-6.01,3.21-10.2,3.22-16.91,0-4.06,2.02-6.11,1.52-10.77.06.59-.7-1.68-.68-1.12-.1-2.49,1.06-4.42,1.39-7.02.29-2.31,1.7-7.11,1.27-9.52-.35-1.99-2.42-1.26-2.66-4.16-.07-.85,1.36-.27,1.52-.99.25-1.19.41-2.9.4-4.41,0-.87-.09-5.08-.27-5.89,0-.03-1.3-2.25-1.28-1.99-.15-2.16.46-6.13-.26-9.47-.25-1.19-1.41-1.92-1.44-3.26-.02-1.15,1.68-1.6,1.34-4.76-.2-1.91-.7-6.9-1.35-8.68-.83-2.28-2.17-1.08-2.71-3.63.15.7,1.27-4.61,1.27-4.77.18-4.76-2.33-9.85-2.28-14.8.15-14.74,1.68-31.4,1.69-47.22,0-16.37.91-32.51-5.43-47.61-2.84-6.77-9.16-11.59-16.59-15.41-5.61-2.89-7.21-6.5-9.81-11.53-2.69-5.21-5.34-10.48-9.44-14.74-.98-1.02-3.45-.76-4.06-1.68-.98-1.47.09-3.95-1.39-5.35-4.1-3.86-5.83,1.43-10.1,1.43,0-5.3-5.2-8.84-10.51-10.07-6.47-1.5-8.36,0-13.84,1.68-6.76,2.06-12.53.85-10.82,8.53.25,1.11,1.22,2.48,1.35,3.22.76,4.4-1.77,5.49-1.63,9.41.25,7.17-1.32,15.26-1.02,22.72.08,1.99.18,4.32.62,6.82.71,4.01.06,4.48,0,8.38-.06,4.35.83,8.78,1.35,13.37.26,2.25,1.32,1.62-2.17,4.58-1.58,1.34-4.96,3.41-5.82,4.84-3.33,5.5-.72,15.91-.71,21.27.03,9.76.61,18.93,1.26,28.33,1.23,17.77-2.67,33.58-6.07,50.05-6.37,30.93-7.91,65.13-5.43,95.13.78,9.45.9,19.41,2.03,28.67.2,1.61-.21,3.96.65,5.03.98,1.22,3.42.11,3.95,2.07.28,1.02-2.99,1.63-2.93,1.46-.45,1.24-.62,2.4-.99,3.89-.46,1.88-.63,6.52.68,7.83,1.25,1.27,4.8.27,5.81,1.17,3.48,3.1-1.52,3.22-2.42,3.86-1.4.99-7.56-3.08-4.06,5.32-.1-.23,1.18,4.02,1.18,2.52,0-.44,1.53.16,1.46.83-.03.3-2.3,2.69-2.57,3.45-.49,1.37-.6,6.15.26,7.47,1.82,2.75,3.73,1.64,3.73-1.12,8.23,0-1.2,2.03,3.73,2.8,3.35.52,1.5-2,4.92-1.12,4.62,1.18,3.64,4.91-.52,5.6-1.12.18-9.62-2.95-11.49-1.36-1.23,1.05-.44,12.51.95,13.76,2.48,2.23,5.42-.2,7.22,1.86-.71-.82-1.65,3.97-1.64,4.09.17,1.39,1.58,2.21,2.15,3.67.27.7.27,2.76.48,3.7.08.36,1.43.48,1.63.86-1.54,1.41.11,6.69,1.38,8.37,1.28,1.69,3.54,1.34,5.41,3.36,1.26,1.36.97,4.19,1.37,5.88.39,1.66,1.71,6.34,3.02,7.28,5.47,3.87,1.33-7.08,7.8-1.97,2.93,2.31,1.33,4.76,1.72,6.67.09.44,2.24,3.16,2.34,4.24.14,1.5-2.26,7.07,2.42,5.58,6.05-1.92.99-22.62,13.36-17.43.86.36,1.31-2.49,1.45-2.69.09.04,2.82,2.28,2.78,2.22,3.07,4.82.51,1.8-2.08,3.36-1.6.96-2.46-1.15-2.72,1.68-.02.25-.17,2.67,1.24,3.26.47.2,2.04-2.2,3.72-.27.34.39-.67,1.32-.56,2.05.15,1.03-.75,3.19-1.69,4.2-1.41,1.51-2.99,2.1-3.72,3.92-.56,1.4-.65,6.15,2.38,3.64Z"/>
    <path d="M148.43,616.95c0-2.27-.59-2.62-.59.56.31.2.51.01.59-.56,0-.19.03.3,0,0"/>
    <path d="M148.13,622.27c.2-.47.66-3.24.19-3.56-.92-.61-.94,5.29-.19,3.56"/>
    <path d="M148.72,623.94c0-1.22.03-1.4-.59-1.4,0,.38.22,2.1.59,1.4,0-.33-.05.09,0,0"/>
    <path d="M148.43,630.67c.47-.94.68-4.22-.3-4.22,0-.01-.72,7.53.2,6.62.2-.74.23-1.54.1-2.4.1-.2,0,.64,0,0"/>
    <path d="M175.56,261.64c.37.44-.4-.47,0,0,.06.07-.04-.05,0,0"/>
    <path d="M195.67,483.16c0-.07,0-.05,0,0"/>
    <path d="M152.01,625.8c0-.07,0-.05,0,0"/>
    <path d="M149.34,394.21s0-.04,0,0"/>
    <path d="M151.12,564.27c.01-.06,0-.05,0,0"/>
    <path class="cls-7" d="M90.7,500.33c.1-2.1,2.19-4.46,2.19-6.32.41-.12,1.22,4,2.63,2,1.39-1.96.53-9.08.96-11.6.24-1.42,1.48-11.88,2.56-11.76,5.62.59-.61,22.81,2.19,24.95,2.65-2.54,1.74-7.33,1.74-10.98,2.76,0,.45-1.99,1.82-3.67.23.53.59.77,1.06.71,0-14.62,1.23-28.73,2.88-42.89.76-6.55,6.5-9.36,7.96-16.76,3.01-15.29,5.76-30.39,6.63-44.44.48-7.72,1.71-16.03,1.24-23.11-.6-9.07-1.29-19.98-.72-30.1.38-6.76-.74-14.65-.86-22.17-.11-6.66-.1-15.68-1.96-22.83,3.16-3.25.37-7.9.29-10.64-.14-5.04.38-8.08-.3-13.02-.94-6.74.75-15.5-.03-22.15-1.66-14.09,1.1-28.32-.21-43.62-.41-4.75-1.45-11.27-1.96-18.03-.36-4.79-.98-7.63-1.47-11.58-.56-4.48-.97-9.2-1.78-13.66-5.69-31.4-.27-63.74-2.55-95.49-.51-7.1-.63-14.05-1.41-20.93-.51-4.49-.56-12.05-2.53-16.18-3.98-8.31-8.49,0-12.96,3.21-.44-.49-1.27-2.13-1.87-2.23-3.98-.63-.86,1.72-3.54-1.22-3.66-4.02-.72-6.38-7.65-3.95-.8.28-5.24,3.08-6.23,2.81-.94-.26-2.25-2.5-1.95-2.41-.56-.15-.72-1.71-1.06-1.88-2.27-1.1-2.79,1.8-4.4,2.19-3.29.8-3.27.71-5.71,1.5-.44.14-6.26,2.58-5.83,2.32-1.04.61-4.16,3.64-5.01,3.61-3.2-.1-.49.41-.99-2.68-.45-2.83,3.44-7.37.42-9.79-2.57-2.06-3.79,1.24-5.46,2.09-2.42,1.22-5.09,3.54-7.85,3.71-.62.04-3.84-2.52-5.14-2.2-2.31.56-2.91,3.23-4.21,4.73-5.44,6.27-7.75,11.23-8.73,19.46-.58,4.87-1.08,10.04-2.24,14.72-.41,1.66-2.44.37-2.8,2.07-.19.92-.07,9.12,0,9.67.59,4.81.53,8.28,0,14.92-.29,3.57-1.91,8.72-2.17,12.48-.36,5.28.35,13.8,0,20.28-.06,1.07.27,4.5,0,5.38.07-.22-1.69,3.79-1.81,2.77-.14-1.15-.14,6.16,1.04,2.93-.8,2.19.92.32-2.85,3.29.44,1.33,1.17,1.96,2.19,1.9.08,1.1-2.96,3.25-2.88,5.02.14,3.28,7.86,5.76,3.18,10.57-1.52-1.78-2.2-4.12-4.62-2.24-.75.58.84,7.05.72,8.1-.73,6.12-6.34,7.85.48,8.48,1.04.1.3-4.85,2.52-1.35,1.65,2.6.9,1.95-1.4,3.95-3.23,2.82-3.57.58-4.35,4.19-.07.33.81,4.69.59,6.16,0-.03-2.79,1.29-2.88,2.04-.11.93,1.47,3.11,2.16,3.87,1.28,1.42,5.09-.23,3.24,2.22-.36.48-3.22-.24-2.76-.62-.47.39-3.11.28-3.36.62v4.77c2,1.15,1.87,2.26-.37,3.35-.13,2-1.41,2.73.7,5.19,1.33-.72,4.72-4.22,4.72.73-2.62.67-2.42-1.83-5.04,1.67-1.45,1.94-3.06,4.4-.82,6.77-1.76,2.46-1.65,1.07-.91,3.96.18.71,2.67,3.71,2.45,4.61-5.12,0-2.54,10.74-2.51,12.57.02,1.23-1,7.7-1.09,11.46-.24,10.49,1.72,22.88,2.2,32.55,1.07,21.5,5.07,42.73,10.07,62.83,2.74,11,3.68,22.06,5.85,33.39.92,4.82,2.21,10.6,2.77,15.79.53,4.99.29,10.84,1.82,15.62,1.06,3.33,2.78,4.98,3.22,8.04.24,1.68.03,1.22.72,2.76.71,1.61-2.29.71-.71,3.52.6,1.07,2.54-.39,2.97.92,1.78,5.49,3.19,11.22,4.22,16.46,1.83,9.35,1.99,16.64,4.92,24.09.99,2.53-.08,5.66.85,9.32.1.4,2.2,3.85,2.28,3.93,1.19,1.17,1.79-1.61,2.55-.94,1.82,1.6,2.12,4.07-.15,5.74-.42-.73-1.02-.97-1.81-.72,0,8.9.73,1.72,1.92,2.35,3.79,1.97-2.78,7.44,3.83,4.55.88-.38-.42-4.05,1.45-3.94,1.96.11,1.96,4.3,1.9,4.33,0,0,1.07-1.87.98-2.11-.07-.18,1.07,2.96,1.44,3.7-.07-.15-.72,2.66-.72,2.51,1.43,2.63,1.44-1.87,1.44-1.78,6.28,0,.17.3,3.25,2.19,5.66-5.28,1.68,13.54,4.67,12.6.92.19,1.39-7.23,1.46-7.79.28-2.29-.09-6.39.7-8.48.62-1.64,2.72-.83,3.61-2.15.55-.83.71-3.78.71-4.51.8-.24,4.51,16.11,7.92,18.49,3.75,2.61,2.03-.8,3.6-.48,3.28.65.96,1.89,3.91,4.85.99-.97-.44-3.62,1.85-3.62,0,3.45,3.19,2.89,4.03,5.05.66,1.71-1.22,9.53-.03,10.44.34-.35.68-.7,1.01-1.04.01-.24-.34.35,0,0"/>
    <path d="M45.15,633.73c0-.79-.2-1.18-.59-1.18,0,2.55-.03,1.18.59,1.18,0-.18-.05,0,0,0"/>
    <path d="M41.58,625.49c0-1.44.1-1.77-.59-1.77,0,.75.59,3.79.59,1.77"/>
    <path d="M45.15,629.02c.16-.7.13-1.25-.1-1.66-.28-.35-.31,2.47-.1,2.73.25-.13.32-.49.2-1.07"/>
    <path d="M26.98,354.33c.28-1.1-.48.95,0,0,.03-.13-.03.07,0,0"/>
    <path d="M39.85,564.3s.01.01,0,0"/>
    <path d="M33.55,399.39c0,.07,0,.05,0,0"/>
    <path class="cls-11" d="M405.78,441.84c7.74-2.79,7.13-8.91,8.09-13.89,1.71-8.88,2.41-19.68,1.39-28.13-1.13-9.45-1.89-22.49-1.37-31.81.88-15.84-1.81-30.18-1.89-46.83-.07-13.93,1.47-25.98,2.94-41.89,3.21-34.72-1.69-70.19-4.84-105.52-3.74-41.86-10.49-84.46-13.25-126.95-.34-5.29,3.63-21.68-8-22.82-8.07-.79-.71,2.41-6.18,4.96-6.07,2.84-6.24-2.22-7.6-4.13-5.36-7.53-15.72.57-20.31-6.08-1.81-2.62-.78-6.09-7.82-5.95-4.5.09-4.08,3.36-7.79,3.36,1.04-1.25.86-2.16-.55-2.73-1.87,1.08-1.82,2.2-2.68,3.38-.76,1.04-.68,2.81-1.5,3.83-1.3,1.6-3.45,2-4.68,3.62-3.49,4.6-2.19,9.53-6.66,13.7-.71.66-.61,1.72-1.44,2.27-1.93,1.28-4.28.84-6.08,2.58-2.74,2.66.59,7.21-1.96,9.71-1.38,1.35-5.25,1.42-7.2,2.26-2.6,1.12-5.01,2.7-6.99,4.36-7.21,6.04-10.56,14.15-10.43,21.61.05,3.24.19,8.15-1.87,11.49-1.02,1.65-2.74,3.4-3.76,5.28-4.35,7.94-4.75,16.6-4.75,25.79,0,8.34.81,16.47,4.35,24.1,2.34,5.04,5.39,10.7,6.04,16.3,1.92,16.45,2.76,33.66.95,50.09-.58,5.27.64,10.75-.93,15.73-.87,2.75-2.37,5.06-2.96,7.93-1.62,7.9-.37,15.4,2,22.59,4.05,12.3,5.21,26.55,7.52,38.85,1.21,6.48-2.57,14.04-1.75,21.28.79,6.95,2.17,15.48,3.69,22.88,1.22,5.96,3.84,11.35,5.68,17.12,1.08,3.38,3.08,12.38,8.84,13.89-.39-.1,1.29-2.62,3.2-2.65-.14-.19,2.17,3.63,2.17,3.62,1,3.81.87,5.49,3.77,7.88,3.26,2.69,4.32,2.08,5.68,5.81.45,1.23,1.34,9.56,2.55,9.98,3.71,1.29,3.63-4.41,4.52-4.96,2.89,1.1,2.34,10.65,5.23,3.9.72-1.67.89-4.42.93-6.42.01-.56-1.88-5.01-.92-5.6,4.43-2.7,4.2,2.85,5.68,3.32,4.32,1.38,6.18-1.25,8.5-.26,1.92.83.68,5.95.94,7.49.53,3.1-1.48,16.04,4.1,18.14.89.34,2.39-10.64,2.53-11.91.61-5.64,1.31-12.14,2.84-17.63,1.04.24,3.25,2.05,3.79,2.5,4.79,3.95.03,1.27.98,4.97.24.93,1.74,2.77,2.03,3.71.1.32,0,2.73-.06,2.49.65,2.85.95,5.37,4.58,6.22,3.52.82,6.47-1.66,9.51,1.37.85.85.57,3.41.94,3.75,1.06.97,3.66,1.33,4.38,1.91,2.31,1.86,6.7,4.07,7.91,6.89,1.96,4.54-1.48,23.23,7.98,23.23.57-.21-.22,0,0,0"/>
    <path d="M313.15,681.46c.41-.7-.04-1.41-.43-.8.08.13.3,1.02.43.8"/>
    <path d="M288.41,489.63s.03,0,0,0"/>
    <path class="cls-10" d="M516.15,5.2c.06,3.56-1.03,8.75.18,11.94,1.04,2.77,1.94,1.9,1.94,5.03,5.05.81-1.91,11.7,2.37,13.35.34.13,2.5-4.47,2.69-4.8-.64,1.07-.15,7.61-.16,9.08-.02,3.12,1.12,5.68,2.58,6.53.08.05,1.09,3.26,1.34,3.82,1.14,2.49,1.09-1.96,1.68,4.09,0,1.1,0,2.2,0,3.3-.04.29-.28.43-.7.43-.55,8.34-.47,16.43.7,24.22,1.69,11.24,2.94,21.79,4.91,32.84,4.84,27.21,5.19,54.88,7.01,83.91,1,15.99-.48,36.63-1.33,53.92-.91,18.51-4.65,37.39-2.7,56.14,1.44,13.82,4.4,27.92,5.47,42.4,1.01,13.59,5.17,26.91,2.04,40.79-.72,3.2-2.19,6.95-2.76,10.06-.36,2.01.25,5.06-.73,7.01-1.02,2.04-2.75,2.93-4.22,4.78-1.22,1.52-.95,5.12-2.09,6.1-1.94,1.67-4.15.39-5.98.87.6-.16-3.93.99-3.22.86-1.44.27-2.19,2.16-3.85,1.85-2.72-.5-4.73-9.07-7.97-8.3,0-.98.3,3.37-1.17,2.7-2.35-1.08-3.3-7.32-3.73-9.41-2.49.39-.72,1.76-1.68,3.39-4.69-3.51-3.35,11.56-3.23,13.06.06.75-.09,11.8-1.15,11.44-.87-.29-.62-3.13-2.36-2.71,0,2.25.81,10.26-1.03,11.73-1.56-.71-2.03-8.21-4.07-7.09-3.29,1.81,2.01,11.65-1.91,13.61-2.34,1.17-4.32-1.51-5.99-3.1-.69-.66-1.71-1.84-2.42-2.54-.86-.84-.61-3.08-1.68-3.59-3.88,1.48.92,9.34-2.91,10.48-1.38-.99-1.27-8.01-1.71-9.83-.91-3.72-1.81-5.98-2.91-9.47-1.2-3.82-3.28-7.67-4.8-11.7-4.98-13.18-7.83-26.11-9.8-40.19-.75-5.34-.07-14.73-4.91-19.07-2.6-2.33-6.65-2.7-9.01-5.49-2.11-2.49-2.75-5.31-3.66-7.96-3.18-9.22-3.49-19.17-4.04-28.96-.57-10.09-2.23-19.53-2.86-28.92-1.7-25.27-4.97-47.59-4.97-73.25-3.5,0-2.97,1.88-4.91-1.41-.91-1.54-.53-3.35-.7-5.3-.18-2.08-.57-2.8,0-5.03.38-1.49.56-2.74.7-4.27.18-1.96.92-3.78.71-6.55-.24-3.1-.06-5.1,0-9.11.13-9.19-.84-17.67-.7-27.66.08-6.11,2.09-11.58,3.89-17.34.75-2.4,1.84-4.33,2.42-6.78.69-2.94,1.53-4.52,2.62-6.76,4.69-9.68.18-23.53.18-34.27,0-9.54.09-18.6,1.4-27.67.93-6.44,2.32-12.32,3.85-18.51.56-2.28,1.17-4.98,2.46-7.09.33-.54.15-2.25,1.05-2.65,3.28-1.45,2.37,1.14,3.51,2.52,1.89,0,5.42-8.96,5.94-9.78,1.27-1.99,4.25-5.92,6.56-8.13,2.18.2.18,4.75.91,6.15,1.44,2.75,2.54-.88,3.36-.51,1.11.51-.16,2,.79,2.72,2.44-1.95,1.54-6.68,4.03-7.69.43-.17,1.14,4.29,1.16,4.3,2.87,2.06,2.42-1.17,3.51-1.19,2.98-.07,1.41-1.33,1.4,1.82,0,1.58-1.98,15.67-.07,16.51,3.88,1.7,4.84-4.74,5.33-6.79.89-3.69,1.21-5.68,2.36-8.81.89-2.43,1.95-3.1,3.34-4.81,1.45-1.79,2.2-5.83,3.95-7.15,1.13-.86-.2,5.51-.2,6.03,3.23,0,4.58-7.22,4.67-7.17,1.38.68,3.31.81,5.51-.1,4.17-1.72,2.19-3.52,4.53-6.59,3.12-4.1,3.4.1,6.54-.12,1.21-.09,4.66-3.65,4.65-4.1.03,1.48,0-.11,0,0"/>
    <path d="M244.82,257.1c.46.87.57.93.57-.32-.26-.18-.45-.07-.57.32.13.25.05-.11,0,0"/>
    <path d="M218.94,525.93c0,.07,0,.05,0,0"/>
    <path d="M234.09,510.82c0,.07,0,.05,0,0"/>
  </g>
  <g>
    <text class="cls-8" transform="translate(455.07 86.36)"><tspan x="0" y="0">Light G</tspan><tspan class="cls-50" x="33.09" y="0">r</tspan><tspan class="cls-23" x="36.73" y="0">e</tspan><tspan class="cls-14" x="42.22" y="0">y</tspan></text>
    <text class="cls-9" transform="translate(455.07 100.36)"><tspan x="0" y="0">HE</tspan><tspan class="cls-57" x="11.61" y="0">X</tspan><tspan x="16.76" y="0">: #F3F1EE</tspan></text>
    <text class="cls-9" transform="translate(455.07 114.37)"><tspan class="cls-28" x="0" y="0">R</tspan><tspan x="5.54" y="0">GB: </tspan><tspan class="cls-42" x="21.56" y="0">2</tspan><tspan x="25.8" y="0">4</tspan><tspan class="cls-46" x="30.66" y="0">3</tspan><tspan x="35.28" y="0">.</tspan><tspan class="cls-41" x="37.47" y="0">2</tspan><tspan class="cls-24" x="41.71" y="0">4</tspan><tspan x="46.43" y="0">1.</tspan><tspan class="cls-54" x="52.72" y="0">2</tspan><tspan class="cls-29" x="57.19" y="0">3</tspan><tspan x="61.74" y="0">8</tspan></text>
    <text class="cls-9" transform="translate(455.07 128.37)"><tspan x="0" y="0">C</tspan><tspan class="cls-39" x="5.87" y="0">M</tspan><tspan class="cls-13" x="13.37" y="0">YK: </tspan><tspan class="cls-47" x="28.25" y="0">3</tspan><tspan x="32.87" y="0">.</tspan><tspan class="cls-46" x="35.05" y="0">3</tspan><tspan x="39.67" y="0">.4</tspan><tspan class="cls-16" x="46.72" y="0">.</tspan><tspan x="48.43" y="0">0</tspan></text>
  </g>
  <g>
    <text class="cls-8" transform="translate(315.04 86.36)"><tspan class="cls-52" x="0" y="0">C</tspan><tspan x="6.69" y="0">a</tspan><tspan class="cls-30" x="12.18" y="0">n</tspan><tspan class="cls-25" x="17.92" y="0">v</tspan><tspan class="cls-49" x="23.2" y="0">a</tspan><tspan x="28.65" y="0">s G</tspan><tspan class="cls-50" x="43" y="0">r</tspan><tspan class="cls-33" x="46.64" y="0">e</tspan><tspan x="52.14" y="0">y</tspan></text>
    <text class="cls-9" transform="translate(315.04 100.36)"><tspan x="0" y="0">HE</tspan><tspan class="cls-57" x="11.61" y="0">X</tspan><tspan x="16.76" y="0">: #</tspan><tspan class="cls-60" x="27.03" y="0">C</tspan><tspan class="cls-22" x="32.87" y="0">A</tspan><tspan x="38.45" y="0">C4B7</tspan></text>
    <text class="cls-9" transform="translate(315.04 114.37)"><tspan class="cls-28" x="0" y="0">R</tspan><tspan x="5.54" y="0">GB: </tspan><tspan class="cls-54" x="21.56" y="0">2</tspan><tspan class="cls-21" x="26.04" y="0">0</tspan><tspan x="31.26" y="0">2</tspan><tspan class="cls-35" x="35.81" y="0">.</tspan><tspan class="cls-32" x="37.57" y="0">1</tspan><tspan x="41.53" y="0">9</tspan><tspan class="cls-61" x="46.32" y="0">6</tspan><tspan class="cls-36" x="51.16" y="0">.</tspan><tspan class="cls-53" x="52.91" y="0">1</tspan><tspan class="cls-57" x="56.92" y="0">8</tspan><tspan x="61.62" y="0">3</tspan></text>
    <text class="cls-9" transform="translate(315.04 128.37)"><tspan x="0" y="0">C</tspan><tspan class="cls-39" x="5.87" y="0">M</tspan><tspan class="cls-13" x="13.37" y="0">YK: </tspan><tspan class="cls-26" x="28.25" y="0">2</tspan><tspan x="32.63" y="0">1</tspan><tspan class="cls-35" x="36.74" y="0">.</tspan><tspan class="cls-53" x="38.49" y="0">1</tspan><tspan x="42.51" y="0">8.</tspan><tspan class="cls-29" x="49.46" y="0">2</tspan><tspan class="cls-61" x="53.9" y="0">6</tspan><tspan class="cls-16" x="58.74" y="0">.</tspan><tspan x="60.45" y="0">0</tspan></text>
  </g>
  <g>
    <text class="cls-8" transform="translate(174.68 86.36)"><tspan x="0" y="0">Smo</tspan><tspan class="cls-38" x="20.8" y="0">k</tspan><tspan x="26.24" y="0">e G</tspan><tspan class="cls-50" x="41.04" y="0">r</tspan><tspan class="cls-23" x="44.68" y="0">e</tspan><tspan x="50.17" y="0">y</tspan></text>
    <text class="cls-9" transform="translate(174.68 100.36)"><tspan x="0" y="0">HE</tspan><tspan class="cls-57" x="11.61" y="0">X</tspan><tspan x="16.76" y="0">: #</tspan><tspan class="cls-24" x="27.03" y="0">7</tspan><tspan class="cls-51" x="30.9" y="0">8</tspan><tspan class="cls-27" x="35.56" y="0">7</tspan><tspan class="cls-57" x="39.39" y="0">6</tspan><tspan class="cls-55" x="44.19" y="0">6</tspan><tspan x="48.97" y="0">4</tspan></text>
    <text class="cls-9" transform="translate(174.68 114.37)"><tspan class="cls-28" x="0" y="0">R</tspan><tspan x="5.54" y="0">GB: </tspan><tspan class="cls-63" x="21.56" y="0">1</tspan><tspan class="cls-40" x="25.65" y="0">2</tspan><tspan x="29.9" y="0">4</tspan><tspan class="cls-35" x="34.76" y="0">.</tspan><tspan class="cls-63" x="36.51" y="0">1</tspan><tspan class="cls-56" x="40.6" y="0">2</tspan><tspan class="cls-13" x="45.06" y="0">2</tspan><tspan class="cls-35" x="49.62" y="0">.</tspan><tspan x="51.37" y="0">106</tspan></text>
    <text class="cls-9" transform="translate(174.68 128.37)"><tspan x="0" y="0">C</tspan><tspan class="cls-44" x="5.87" y="0">M</tspan><tspan x="13.36" y="0">YK: </tspan><tspan class="cls-46" x="28.24" y="0">3</tspan><tspan x="32.86" y="0">.</tspan><tspan class="cls-47" x="35.05" y="0">3</tspan><tspan x="39.66" y="0">.4</tspan><tspan class="cls-16" x="46.71" y="0">.</tspan><tspan class="cls-13" x="48.42" y="0">0</tspan></text>
  </g>
  <g>
    <text class="cls-4" transform="translate(37.41 86.36)"><tspan x="0" y="0">Ink Black</tspan></text>
    <text class="cls-5" transform="translate(37.41 100.36)"><tspan x="0" y="0">HE</tspan><tspan class="cls-57" x="11.61" y="0">X</tspan><tspan x="16.76" y="0">: #</tspan><tspan class="cls-54" x="27.03" y="0">2</tspan><tspan class="cls-46" x="31.5" y="0">3</tspan><tspan x="36.12" y="0">1F</tspan><tspan class="cls-54" x="45.12" y="0">2</tspan><tspan class="cls-13" x="49.59" y="0">0</tspan></text>
    <text class="cls-5" transform="translate(37.41 114.37)"><tspan class="cls-28" x="0" y="0">R</tspan><tspan x="5.54" y="0">GB: </tspan><tspan class="cls-60" x="21.56" y="0">3</tspan><tspan class="cls-62" x="26.2" y="0">5</tspan><tspan x="30.98" y="0">.</tspan><tspan class="cls-46" x="33.16" y="0">3</tspan><tspan x="37.78" y="0">1.</tspan><tspan class="cls-19" x="44.07" y="0">3</tspan><tspan class="cls-13" x="48.57" y="0">2</tspan></text>
    <text class="cls-5" transform="translate(37.41 128.37)"><tspan x="0" y="0">C</tspan><tspan class="cls-44" x="5.87" y="0">M</tspan><tspan x="13.36" y="0">YK: </tspan><tspan class="cls-46" x="28.24" y="0">0</tspan><tspan class="cls-36" x="33.61" y="0">.</tspan><tspan class="cls-34" x="35.35" y="0">1</tspan><tspan x="39.33" y="0">1</tspan><tspan class="cls-17" x="43.43" y="0">.</tspan><tspan class="cls-16" x="45.42" y="0">9</tspan><tspan x="49.74" y="0">.86</tspan></text>
  </g>
  <g class="cls-12">
    <path class="cls-65" d="M792.08,13.61c0,8.82.61,19.24.61,29.02-1.1,0-2.57-2.18-3.17-2.98-.9-1.2-.68-3.23-3.36-4.72-.83-.46-1.95,1.28-3.44,0-.88-.77-1.07-2.06-1.57-2.65-.64-.77-4.86-8.11-4.86-2.09-2.28-.4-1.04-7.96-3.18-7.7-.7.08-1.07,19.92-1.07,21.92-2.5,0,0-5.28-1.22-5.92-1.62-.85-1.18,7.93-2.03,8.87-2.58-.85.27-.91-2.61.64-5.07-5.25-2.33-12.26-5.96-18.37-1.7,1.88.73,8.45.88,10.87.27,4.36,1.51,13.99-1.51,16.93-1.58-1.47-.87-10.23-1.74-10.55-2.02-.75.46,10.73-2.22,11.16.29-.92-1.85-1.49-2.43-.84.7-.8.04,4.76-1.22,4.39.43-.96.23-1.55-.6-1.79-1.27-.01-1.83,6.41-1.83,7.12-3.14,0-4.91-13.35-5.17-15.34-.48-3.65-1.29-8.44-1.52-11.91-.11-1.66-.53-4.14-.61-5.33-.13-2.18.21-4.13-.48-5.99-.38-1.03-1.34.2-1.34.66-.72,0-3.4-5.12-3.64-5.92-.75-2.51.56-6.94-1.48-8.81-1.17,1-.88,11.21-.95,12.82-.21,4.46-.08,8.43-.61,12.51-1,7.66-1.23,14.96-2.43,22.58-1.99,12.64-4.76,25.51-6.08,38.8-1.49,15.05-2.6,30.56-3.5,45.75-1,16.93-2.95,35.01-3.18,52.41-.33,24.49.32,47.86.6,71.54.19,15.23-.2,32.85,1.82,47.98,3.87,29.01,3.16,59.5,8.5,88.56.82,4.46,6.61,28.18,12.75,18.98.93-1.39.7-4.12,1.52-5.07.62-.71,4.58-2.81,5.77-2.68,1.96.22.94-1.01,3.04.7.55.45-.62,3.96,0,4.35,2.43,1.53,1.22-4.68,1.22-5.92,2.86,0,.63,6.09,2.64,7.01.26.12-1.23-13.4,2.58-12.12,2.23.75-1.33,6.19,1.05,7.37.37.18,1.17-5.9,1.01-6.41.45.07,1.22,11.18,1.22,12.44.87.26,1.56-1.83,2.03-2.38,3.39.32-1.18,8.5,4.05,5.8,3.59-1.85,1.6-6.22,3.35-8.76,2.83,2.01.79,1.94,4.54,1.54,1.74-.18.39-3.56,3.05-.56,1.26,1.42,1.26,7.71,1.21,9.98-.09,3.6-1.05,7.48.89,10.37.29.42,1.8,1.88,2.15,2.06.71.35,4.2.24,4.85-.59.91-1.14-.19-3.49.61-4.44,1.96-2.33,3.66.17,5.47-.92.94-.57,3.97-3.71,4.86-4.41.68-.54,1.99-1.95,3.09-2.7,1.52-1.03,2.59-.64,3.79-1.95,2.11-2.32,2.35-5.87,4.39-8.41,1.53-1.92,2.55-2.37,4.22-4.65,2.08-2.85,2.11.85,2.64-4.59,0,.03-1.12-.84-1.11-.99.22-2.41,2.43-14.3,2.72-14.04.93-.67.06-2.35-.9-2.35,0-2.91,1.49-5.55,1.83-8.58.15-1.32-.38-2.35.61-4.19-.98-.84.57-5.89.6-7.36.05-2.87,1.57-11.03-.5-13.24,3.07,3.26,1.37-8.02,1.41-7.52-.17-2.36-1.05-10.9.32-11.51-1.53-1.57-1.52-11.77-1.83-14.26-.48-3.83-.14-7.74-.61-10.66-.82-5.14.03-9.91.61-14.2.36-2.69.37-9.38-.71-11.35-1.54-2.79-.25-.12.1-3.17.34-2.97.02-4.21-.11-6.69-.42-8.11-.44-17.7-.5-25.01-.07-9.18.67-20.27.61-29.61-.03-4.62-.43-7.88,0-12.12.45-4.47-.67-9.23-.61-13.47.34-23.23.4-47.03-.61-72.56-.44-11.27-.01-26.72-.01-37.56,0-3.66,1.13-35.17.01-35.17-.51,0-1.24,7.93-1.22,8.4.08,1.4.46,3.35.09,6.05-.32,2.38-.43,5.13-.4,7.49.02,1.13.51,3.51.31,5-.14,1-.96,2.19-1.11,2.9-.23,1.05,1.41,1.2,1.11,2.17-.55-.14-.95.06-1.22.59-2.31-.44-.64-25.55-.61-27.25.03-1.34-.53-2.74-.53-4.37-.01-2.8,0-3.88.22-6.9.43-5.89.03-12.29-.29-19.2-.05-1.02-5.03-20.2-7.9-16.6v4.44c-1.69,0-15.19-5.17-15.19-4.74"/>
    <path class="cls-3" d="M617.26.94c-.09,1.88-2,4-2,5.68-.38.11-1.12-3.59-2.4-1.8-1.27,1.76-.48,8.16-.88,10.42-.22,1.27-1.35,10.67-2.34,10.57-5.13-.53.55-20.49-2-22.41-2.42,2.29-1.59,6.58-1.59,9.86-2.52,0-.41,1.79-1.66,3.29-.21-.48-.54-.69-.97-.64,0,13.14-1.12,25.81-2.63,38.52-.7,5.89-5.94,8.4-7.27,15.05-2.75,13.73-5.26,27.3-6.05,39.91-.44,6.93-1.56,14.4-1.13,20.76.55,8.15,1.18,17.94.66,27.04-.35,6.07.68,13.16.79,19.91.1,5.99.09,14.08,1.79,20.51-2.89,2.92-.34,7.1-.27,9.55.13,4.53-.35,7.26.28,11.69.86,6.06-.68,13.92.03,19.89,1.51,12.65-1.01,25.43.2,39.18.37,4.26,1.33,10.12,1.79,16.19.33,4.3.89,6.86,1.34,10.4.51,4.02.88,8.26,1.62,12.27,5.2,28.2.25,57.25,2.32,85.77.46,6.38.57,12.62,1.28,18.8.46,4.04.51,10.82,2.31,14.53,3.63,7.46,7.75,0,11.84-2.88.41.44,1.16,1.92,1.71,2,3.64.56.79-1.55,3.24,1.09,3.34,3.61.66,5.73,6.98,3.55.73-.25,4.79-2.77,5.69-2.52.86.23,2.06,2.24,1.78,2.17.51.13.66,1.54.96,1.68,2.07.98,2.55-1.61,4.02-1.97,3-.72,2.99-.63,5.22-1.35.4-.13,5.71-2.31,5.32-2.09.95-.55,3.8-3.27,4.57-3.24,2.92.09.45-.37.9,2.41.42,2.54-3.14,6.61-.38,8.79,2.34,1.85,3.46-1.12,4.99-1.88,2.21-1.1,4.65-3.18,7.17-3.33.57-.03,3.51,2.26,4.7,1.98,2.11-.5,2.65-2.9,3.85-4.25,4.97-5.63,7.07-10.09,7.97-17.48.53-4.38.99-9.02,2.05-13.22.38-1.49,2.23-.34,2.56-1.86.18-.82.06-8.19,0-8.69-.54-4.32-.49-7.44,0-13.4.26-3.2,1.75-7.83,1.98-11.21.33-4.74-.32-12.4,0-18.22.05-.96-.25-4.04,0-4.83-.06.19,1.54-3.4,1.65-2.49.13,1.03.13-5.53-.95-2.63.73-1.97-.84-.29,2.6-2.96-.4-1.19-1.07-1.76-2-1.71-.08-.99,2.7-2.92,2.63-4.51-.13-2.95-7.18-5.18-2.91-9.49,1.38,1.6,2.01,3.7,4.22,2.01.68-.52-.77-6.33-.66-7.27.67-5.49,5.78-7.05-.44-7.62-.95-.09-.27,4.36-2.3,1.21-1.51-2.33-.82-1.75,1.27-3.55,2.95-2.53,3.26-.52,3.97-3.77.06-.3-.74-4.21-.54-5.54,0,.02,2.55-1.15,2.63-1.84.1-.83-1.34-2.79-1.97-3.48-1.17-1.27-4.65.21-2.96-1.99.33-.43,2.94.21,2.52.55.43-.35,2.84-.25,3.06-.55v-4.29c-1.82-1.03-1.71-2.03.34-3.01.12-1.8,1.29-2.45-.64-4.66-1.21.65-4.31,3.79-4.31-.66,2.39-.61,2.21,1.64,4.6-1.5,1.33-1.74,2.79-3.95.75-6.08,1.6-2.21,1.51-.97.83-3.56-.17-.63-2.43-3.33-2.24-4.14,4.67,0,2.32-9.65,2.29-11.29-.02-1.11.92-6.92,1-10.29.22-9.42-1.57-20.55-2.01-29.23-.98-19.32-4.63-38.38-9.19-56.44-2.5-9.88-3.36-19.82-5.34-29.99-.84-4.33-2.02-9.52-2.52-14.18-.48-4.48-.27-9.73-1.66-14.03-.97-2.99-2.54-4.47-2.94-7.22-.22-1.51-.03-1.1-.66-2.48-.65-1.44,2.09-.64.65-3.16-.55-.96-2.32.35-2.71-.83-1.63-4.93-2.92-10.08-3.86-14.78-1.67-8.4-1.82-14.95-4.49-21.64-.91-2.27.07-5.09-.78-8.37-.09-.36-2.01-3.46-2.08-3.53-1.09-1.05-1.63,1.45-2.33.84-1.67-1.44-1.94-3.65.14-5.15.38.65.93.87,1.66.65,0-8-.66-1.55-1.75-2.11-3.46-1.77,2.54-6.68-3.5-4.09-.8.35.38,3.64-1.32,3.54-1.79-.1-1.79-3.86-1.73-3.89,0,0-.98,1.68-.9,1.89.06.16-.98-2.66-1.31-3.32.07.13.66-2.39.66-2.26-1.31-2.36-1.31,1.68-1.31,1.6-5.73,0-.15-.27-2.97-1.97-5.17,4.74-1.54-12.16-4.26-11.32-.84-.17-1.27,6.5-1.33,7-.25,2.06.09,5.74-.64,7.61-.57,1.47-2.49.74-3.29,1.93-.51.74-.65,3.39-.65,4.05-.73.22-4.11-14.47-7.23-16.6-3.43-2.34-1.85.72-3.29.43-3-.59-.87-1.7-3.57-4.35-.9.88.4,3.26-1.69,3.26,0-3.1-2.91-2.59-3.67-4.54-.6-1.54,1.11-8.56.03-9.38-.31.31-.62.62-.93.94-.01.22.31-.31,0,0"/>
  </g>
  <g>
    <text class="cls-8" transform="translate(602.57 86.36)"><tspan class="cls-31" x="0" y="0">S</tspan><tspan x="5.98" y="0">u</tspan><tspan class="cls-45" x="11.8" y="0">r</tspan><tspan x="15.49" y="0">ge G</tspan><tspan class="cls-50" x="36.44" y="0">r</tspan><tspan x="40.08" y="0">een</tspan></text>
    <text class="cls-9" transform="translate(602.57 100.36)"><tspan x="0" y="0">HE</tspan><tspan class="cls-57" x="11.61" y="0">X</tspan><tspan x="16.76" y="0">: #E1FF00</tspan></text>
    <text class="cls-9" transform="translate(602.57 114.37)"><tspan class="cls-28" x="0" y="0">R</tspan><tspan x="5.54" y="0">GB: </tspan><tspan class="cls-54" x="21.56" y="0">2</tspan><tspan class="cls-60" x="26.04" y="0">3</tspan><tspan class="cls-47" x="30.67" y="0">0</tspan><tspan class="cls-13" x="36.04" y="0">.</tspan><tspan class="cls-57" x="38.22" y="0">2</tspan><tspan x="42.7" y="0">5</tspan><tspan class="cls-58" x="47.5" y="0">5</tspan><tspan class="cls-16" x="52.29" y="0">.</tspan><tspan x="54" y="0">0</tspan></text>
    <text class="cls-9" transform="translate(602.57 128.37)"><tspan x="0" y="0">C</tspan><tspan class="cls-39" x="5.87" y="0">M</tspan><tspan class="cls-13" x="13.37" y="0">YK: </tspan><tspan class="cls-22" x="28.25" y="0">1</tspan><tspan class="cls-61" x="32.15" y="0">6</tspan><tspan class="cls-16" x="36.99" y="0">.</tspan><tspan class="cls-47" x="38.7" y="0">0</tspan><tspan class="cls-35" x="44.06" y="0">.</tspan><tspan x="45.82" y="0">10</tspan><tspan class="cls-48" x="55.33" y="0">0</tspan><tspan class="cls-37" x="60.7" y="0">.</tspan><tspan class="cls-13" x="62.42" y="0">0</tspan></text>
  </g>
  <g>
    <text class="cls-8" transform="translate(745.39 86.36)"><tspan x="0" y="0">Ember </tspan><tspan class="cls-43" x="32.06" y="0">R</tspan><tspan x="38.46" y="0">ed</tspan></text>
    <text class="cls-9" transform="translate(745.39 100.36)"><tspan x="0" y="0">HE</tspan><tspan class="cls-57" x="11.61" y="0">X</tspan><tspan x="16.76" y="0">: #FF5</tspan><tspan class="cls-57" x="41.62" y="0">5</tspan><tspan class="cls-18" x="46.34" y="0">1</tspan><tspan x="50.22" y="0">7</tspan></text>
    <text class="cls-9" transform="translate(745.39 114.37)"><tspan class="cls-28" x="0" y="0">R</tspan><tspan x="5.54" y="0">GB: </tspan><tspan class="cls-54" x="21.56" y="0">2</tspan><tspan x="26.04" y="0">5</tspan><tspan class="cls-63" x="30.83" y="0">5</tspan><tspan x="35.61" y="0">.8</tspan><tspan class="cls-59" x="42.57" y="0">5</tspan><tspan class="cls-13" x="47.36" y="0">.</tspan><tspan class="cls-57" x="49.54" y="0">2</tspan><tspan class="cls-13" x="54.03" y="0">3</tspan></text>
    <text class="cls-9" transform="translate(745.39 128.37)"><tspan x="0" y="0">C</tspan><tspan class="cls-44" x="5.87" y="0">M</tspan><tspan x="13.36" y="0">YK: </tspan><tspan class="cls-48" x="28.24" y="0">0</tspan><tspan x="33.61" y="0">.81</tspan><tspan class="cls-20" x="44.68" y="0">.</tspan><tspan x="46.67" y="0">9</tspan><tspan class="cls-15" x="51.47" y="0">9.</tspan><tspan class="cls-13" x="57.5" y="0">0</tspan></text>
  </g>
</svg>