<?xml version="1.0" encoding="UTF-8"?>
<svg id="Layer_5" width="30" height="30" xmlns="http://www.w3.org/2000/svg" version="1.1" viewBox="0 0 171.8 160.7">
  <!-- Generator: Adobe Illustrator 29.1.0, SVG Export Plug-In . SVG Version: 2.1.0 Build 142)  -->
  <defs>
    <style>
      .st0 {
        fill: none;
      }

      .st0, .st1 {
        stroke: #000;
        stroke-miterlimit: 10;
        stroke-width: 5px;
      }
    </style>
  </defs>
  <path class="st1" d="M120.6,115c-16.2,0-8.5-16.9-8.5-36.1s-7.7-33.4,8.5-33.4,29.3,15.6,29.3,34.8-13.1,34.8-29.3,34.8Z"/>
  <g>
    <path class="st0" d="M109.5,84.5s.3,7.3-.4,17.4c4.4-6.4,6.9-13.8,6.9-21.7s-2.6-15.4-7-21.8c.8,10.7.5,18.5.5,18.5"/>
    <path class="st0" d="M48.4,119.9v-.4s-9.3-21.2-9.3-37.4,6.2-39.8,6.2-39.8l2.7-.3c-.3-.6.8-.4.6-1-19.9,5.7-32.9,20.4-32.9,39.3s12.2,34.4,32.3,40c0-.3.5-.4.5-.4h0Z"/>
  </g>
  <polygon class="st1" points="15.1 74.3 5.4 80.8 15.1 87 15.1 74.3"/>
  <circle class="st1" cx="163.9" cy="44.9" r="5"/>
  <circle class="st1" cx="163.9" cy="117.7" r="5"/>
  <path class="st0" d="M163.9,44.9s-2.7,7.3-9.6,13.5c-6.9,6.2-13.9,6.9-13.9,6.9"/>
  <path class="st0" d="M161.1,113.6s-2.7-7.3-9.6-13.5c-6.9-6.2-13.9-6.9-13.9-6.9"/>
  <path class="st0" d="M109.4,79.6s2.8,74.9-32.4,77.2c-24.8,1.6-34-17-28.2-37.1,8.1-28,60.6-40.1,60.6-40.1h0Z"/>
  <path class="st0" d="M109.3,80.8S112.1,5.8,76.9,3.5c-24.8-1.6-34,17-28.2,37.1,8.1,28,60.6,40.1,60.6,40.1h0Z"/>
  <path class="st1" d="M69.3,65.4s-7.6-4.2-12.6-9.6-9.3-13.9-9.3-13.9l-4.4,1.9s-8.3,22.6-7.7,38c.6,16.2,11.6,36.9,11.6,36.9,0,0,7.3-11.7,10.4-14.8s13.4-10.3,13.4-10.3c0,0-2.9-4.5-3.3-13.9s2-13.9,2-13.9v-.4Z"/>
</svg>