<?xml version="1.0" encoding="UTF-8"?>
<svg id="Layer_1" xmlns="http://www.w3.org/2000/svg" version="1.1" viewBox="0 0 1209 685">
  <!-- Generator: Adobe Illustrator 29.1.0, SVG Export Plug-In . SVG Version: 2.1.0 Build 142)  -->
  <defs>
    <style>
      .st0 {
        fill: #5f6b53;
      }

      .st1 {
        fill: none;
        stroke: #e0e2e1;
        stroke-linecap: round;
        stroke-linejoin: round;
        stroke-width: 24px;
      }
    </style>
  </defs>
  <circle class="st0" cx="606.1" cy="308.2" r="272.6"/>
  <circle class="st0" cx="444.5" cy="81.6" r="75.2"/>
  <circle class="st0" cx="765.3" cy="81.6" r="75.2"/>
  <polyline class="st1" points="547.7 117.2 604.9 153.2 662.2 117.2"/>
  <line class="st1" x1="452.8" y1="67.4" x2="437.2" y2="51.8"/>
  <line class="st1" x1="758.2" y1="67.6" x2="774.3" y2="51.6"/>
  <path class="st0" d="M567.9,744.9c-74.7,37.4-87.2,155.2-134.1,240.4-57,103.6-127.4,198.3-194.4,222.2-67,23.9-59.4,69-39.3,76.6,20.1,7.7,542.1,1,600.6-1.9l-5.7-390.8-227-146.6Z"/>
  <path class="st0" d="M1442.1,399.8c74.7,37.4,87.2,155.2,134.1,240.4,57,103.6,127.4,198.3,194.4,222.2,67,23.9,59.4,69,39.3,76.6-20.1,7.7-542.1,1-600.6-1.9l119.8-276.7,112.9-260.7Z"/>
  <path class="st0" d="M1387.5,168.9s75.1-62.2,75.1-76.2-9.4-11.7-9.4-27,12.3-31.1,12.3-31.1l13.5,19.4,5.3-26.4,17,25.2,6.5-28.7s24.8,29.8,26.4,49.9c1.8,21.7,2.3,63.3-17.6,109.1s-23.5,105.6-23.5,105.6l-105.6-119.7Z"/>
</svg>