<?xml version="1.0" encoding="UTF-8"?>
<svg id="Layer_1" xmlns="http://www.w3.org/2000/svg" version="1.1" viewBox="0 0 701.3 676">
  <!-- Generator: Adobe Illustrator 29.1.0, SVG Export Plug-In . SVG Version: 2.1.0 Build 142)  -->
  <defs>
    <style>
      .st0 {
        fill: #5f6b53;
      }

      .st1 {
        fill: none;
        stroke: #e0e2e1;
        stroke-linecap: round;
        stroke-linejoin: round;
        stroke-width: 24px;
      }

      .st2 {
        display: none;
      }
    </style>
  </defs>
  <g id="Layer_11" class="st2">
    <circle class="st0" cx="327.6" cy="466" r="320.3"/>
    <circle class="st0" cx="137.9" cy="199.8" r="88.4"/>
    <circle class="st0" cx="514.7" cy="199.8" r="88.4"/>
    <polyline class="st1" points="259 241.6 326.3 283.9 393.6 241.6"/>
    <line class="st1" x1="147.6" y1="183.1" x2="129.2" y2="164.7"/>
    <line class="st1" x1="506.4" y1="183.3" x2="525.3" y2="164.5"/>
  </g>
  <g id="Layer_1_copy_2" class="st2">
    <path class="st0" d="M595.9,314.6c16.8-16.1,27.2-38.7,27.2-63.8,0-48.8-39.6-88.4-88.4-88.4s-67,21.5-80.8,52.4c-33.3-11.7-69.1-18.1-106.3-18.1s-74.7,6.7-108.6,18.9c-13.6-31.3-44.8-53.2-81.1-53.2s-88.4,39.6-88.4,88.4,11.1,49.1,28.7,65.2c-25.2,66-45.2,141-70.9,201-69.7,162.6,150.8,151,327.7,151s387.3,9.5,312.9-151c-32.9-71-53.9-143-72-202.4Z"/>
    <polyline class="st1" points="279 292.6 346.3 334.9 413.6 292.6"/>
    <line class="st1" x1="167.6" y1="234.1" x2="149.2" y2="215.7"/>
    <line class="st1" x1="526.4" y1="234.3" x2="545.3" y2="215.5"/>
  </g>
  <g id="Layer_1_copy_3">
    <path class="st0" d="M598.1,294.6c16.8-16.1,27.2-38.7,27.2-63.8,0-48.8-39.6-88.4-88.4-88.4s-67,21.5-80.8,52.4c-33.3-11.7-69.1-18.1-106.3-18.1s-74.7,6.7-108.6,18.9c-13.6-31.3-44.8-53.2-81.1-53.2s-88.4,39.6-88.4,88.4,11.1,49.1,28.7,65.2c-25.2,66-45.2,141-70.9,201-69.7,162.6,150.8,151,327.7,151s387.3,9.5,312.9-151c-32.9-71-53.9-143-72-202.4Z"/>
    <line class="st1" x1="169.8" y1="214.1" x2="169.8" y2="187.2"/>
    <line class="st1" x1="528.6" y1="214.3" x2="528.6" y2="187.2"/>
    <polyline class="st1" points="415 270.1 347.7 227.9 280.4 270.1"/>
  </g>
  <g id="Layer_1_copy" class="st2">
    <path class="st0" d="M575.9,263.6c16.8-16.1,27.2-38.7,27.2-63.8,0-48.8-39.6-88.4-88.4-88.4s-67,21.5-80.8,52.4c-33.3-11.7-69.1-18.1-106.3-18.1s-74.7,6.7-108.6,18.9c-13.6-31.3-44.8-53.2-81.1-53.2s-88.4,39.6-88.4,88.4,11.1,49.1,28.7,65.2C33.9,320,7.3,389.9,7.3,466c0,176.9,143.4,320.3,320.3,320.3s320.3-143.4,320.3-320.3-27-147.2-72-202.4h0Z"/>
    <polyline class="st1" points="259 241.6 326.3 283.9 393.6 241.6"/>
    <line class="st1" x1="147.6" y1="183.1" x2="129.2" y2="164.7"/>
    <line class="st1" x1="506.4" y1="183.3" x2="525.3" y2="164.5"/>
  </g>
  <g>
    <path d="M162.1,45.4v39.6h-6.5v-17.3h-19.6v17.3h-6.4v-39.6h6.4v16.8h19.6v-16.8h6.5Z"/>
    <path d="M200.6,70c0,9.8-5.6,15.6-14.9,15.6s-14.9-5.8-14.9-15.6,5.6-15.6,14.9-15.6,14.9,5.8,14.9,15.6ZM177.2,70c0,6.8,3.1,10.6,8.5,10.6s8.5-3.8,8.5-10.6-3.1-10.6-8.5-10.6-8.5,3.8-8.5,10.6Z"/>
    <path d="M238.3,69.9c0,9.8-5.2,15.7-13.3,15.7s-7.9-2.2-9.7-5.5v17.5h-6.4v-42.6h5.6l.3,5.5c1.7-3.7,5.4-6.1,10.2-6.1,8.2,0,13.3,5.8,13.3,15.5ZM231.8,70c0-6.5-3.1-10.4-8.3-10.4s-8.3,3.8-8.3,10.1v.7c0,6.2,3.2,10,8.3,10s8.3-3.8,8.3-10.4Z"/>
    <path d="M284.6,83c-1.9,1.6-4.7,2.6-8,2.6-5.2,0-9.1-2.3-9.2-8.5v-17h-5.7v-5h5.7v-7l6.4-1.8v8.8h10.5v5h-10.5v16c0,2.9,1.7,4.3,4.4,4.3s3.5-.7,4.9-1.9l1.5,4.7Z"/>
    <path d="M318.7,70c0,9.8-5.6,15.6-14.9,15.6s-14.9-5.8-14.9-15.6,5.6-15.6,14.9-15.6,14.9,5.8,14.9,15.6ZM295.3,70c0,6.8,3.1,10.6,8.5,10.6s8.5-3.8,8.5-10.6-3.1-10.6-8.5-10.6-8.5,3.8-8.5,10.6Z"/>
    <path d="M364.9,83c-1.9,1.6-4.7,2.6-8,2.6-5.2,0-9.1-2.3-9.2-8.5v-17h-5.7v-5h5.7v-7l6.4-1.8v8.8h10.5v5h-10.5v16c0,2.9,1.7,4.3,4.4,4.3s3.5-.7,4.9-1.9l1.5,4.7Z"/>
    <path d="M398.6,65.6v19.4h-6.4v-17.4c0-5.9-2.8-7.9-6.4-7.9s-8.2,2.6-8.2,9.5v15.8h-6.4v-43.5h6.4v18.3c2-3.7,5.5-5.4,9.7-5.4,6.4,0,11.3,3.7,11.3,11.2Z"/>
    <path d="M434.9,72.4h-22c.7,5.3,3.8,8.1,8.7,8.1s6.6-1.4,7.6-4.1l5.3,2.2c-2.2,4.4-6.3,7-12.9,7-9.5,0-15.1-5.8-15.1-15.6s5.3-15.6,14.6-15.6,13.9,6,13.9,14.7-.1,2.5-.2,3.3ZM413,67.5h16.1c-.6-5-3.4-8-7.9-8s-7.6,2.8-8.2,8Z"/>
    <path d="M491.6,50.9h-13.6v34.1h-6.4v-34.1h-13.6v-5.5h33.5v5.5Z"/>
    <path d="M520.2,70c0,9.8-5.6,15.6-14.9,15.6s-14.9-5.8-14.9-15.6,5.6-15.6,14.9-15.6,14.9,5.8,14.9,15.6ZM496.8,70c0,6.8,3.1,10.6,8.5,10.6s8.5-3.8,8.5-10.6-3.1-10.6-8.5-10.6-8.5,3.8-8.5,10.6Z"/>
    <path d="M557.8,69.9c0,9.8-5.2,15.7-13.3,15.7s-7.9-2.2-9.7-5.5v17.5h-6.4v-42.6h5.6l.3,5.5c1.7-3.7,5.4-6.1,10.2-6.1,8.2,0,13.3,5.8,13.3,15.5ZM551.4,70c0-6.5-3.1-10.4-8.3-10.4s-8.3,3.8-8.3,10.1v.7c0,6.2,3.2,10,8.3,10s8.3-3.8,8.3-10.4Z"/>
    <path d="M574.1,81.3c0,2.6-1.7,4.2-4.5,4.2s-4.4-1.6-4.4-4.2,1.7-4.3,4.4-4.3,4.5,1.7,4.5,4.3ZM572.9,61.2l-.8,11.2h-5l-.8-11.2v-15.8h6.7v15.8Z"/>
  </g>
</svg>