<?xml version="1.0" encoding="UTF-8"?>
<svg xmlns="http://www.w3.org/2000/svg" version="1.1" viewBox="0 0 796.4 984.2">
  <!-- Generator: Adobe Illustrator 29.2.0, SVG Export Plug-In . SVG Version: 2.1.0 Build 108)  -->
  <defs>
    <style>
      .st0 {
        fill: #f3f1ee;
      }

      .st1 {
        fill: none;
        stroke-width: 24px;
      }

      .st1, .st2 {
        stroke: #000;
        stroke-miterlimit: 10;
      }

      .st3 {
        display: none;
      }

      .st2 {
        stroke-width: 10px;
      }
    </style>
  </defs>
  <g id="Layer_2_copy">
    <ellipse class="st1" cx="499" cy="223" rx="190.6" ry="109.1" transform="translate(-20.3 393.6) rotate(-42.3)"/>
    <ellipse class="st1" cx="304.3" cy="769.7" rx="190.6" ry="109.1" transform="translate(-438.6 404.8) rotate(-42.3)"/>
    <g id="Layer_3_copy">
      <path class="st0" d="M513,415.9c-74.3,53.6-148.5,107.2-222.8,160.9"/>
    </g>
    <path class="st1" d="M727.3,368.4c-43.2-46.3-131.5-16.3-191,28-14.3,10-26.8,18.6-40.4,28-13.8,9.5-28.4,19.5-42.7,29-39.5,25.2-61.8,41.9-79.4,40.6-6.2-1.7-7.1-10.7-6.5-19.5,1.1-12.2,4.9-25.8,6.5-38.3,4.4-29.2-2.8-60.5-27.1-77.7-49.8-36.3-145.5,3.6-198.6,52.7-47.3,39.8-87.8,105.9-89.8,152.6-4,41.5,18.6,76,60.1,82.3,48,7.3,98.5-15.1,142.8-45.7,11.9-8.1,23.5-16.1,35.7-24,23.5-14.8,119.2-77.5,138.2-71.1,7.4,4.1-1.7,29.3-3,37.3-2.9,13-4.5,26.9-3.3,39.8,1.8,22.1,13.3,43.6,32.2,54.6,50.5,31.5,144-7.9,196.9-57.9,50.7-43.3,92.2-117.2,87.3-165-1-17.9-6.9-33.6-17.9-45.6h0Z"/>
    <ellipse class="st2" cx="247" cy="528.9" rx="69.1" ry="39.5" transform="translate(-291.6 303.6) rotate(-42.3)"/>
    <ellipse class="st2" cx="513.1" cy="525.9" rx="69.1" ry="39.5" transform="translate(-220.3 481.9) rotate(-42.3)"/>
  </g>
  <g id="Layer_2_copy_2" class="st3">
    <ellipse class="st0" cx="612.2" cy="492.4" rx="220.8" ry="126.3" transform="translate(-172 539.8) rotate(-42.3)"/>
    <ellipse class="st0" cx="184.2" cy="491.8" rx="220.8" ry="126.3" transform="translate(-282.9 251.8) rotate(-42.3)"/>
    <ellipse class="st0" cx="511" cy="175.5" rx="220.8" ry="126.3" transform="translate(14.8 389.3) rotate(-42.3)"/>
    <ellipse class="st0" cx="285.5" cy="808.7" rx="220.8" ry="126.3" transform="translate(-469.7 402.3) rotate(-42.3)"/>
    <g id="Layer_3_copy1" data-name="Layer_3_copy">
      <path class="st0" d="M527.3,398.9c-86,62.1-172.1,124.2-258.1,186.3"/>
    </g>
    <g id="Layer_4_copy">
      <path class="st0" d="M552,378.3c-107.8,73.9-177.3,124.1-190.3,110.1-5.6-6-8.5-6-1.2-37.7-29.8,44.3-86,110.7-115.8,155,71.6-48.4,184-117.2,196.2-103.7,5.9,6.5-.9,14-5,31.6,24.5-22.2,83-95,116.1-155.3h0Z"/>
    </g>
  </g>
</svg>