<?xml version="1.0" encoding="UTF-8"?>
<svg id="Layer_2_copy" data-name="Layer 2 copy" xmlns="http://www.w3.org/2000/svg" viewBox="0 0 1000.29 1000">
  <defs>
    <style>
      .cls-1 {
        fill: #24261B;
      }
    </style>
  </defs>
  <ellipse class="cls-1" cx="714.45" cy="500.31" rx="220.79" ry="126.32" transform="translate(-150.75 610.66) rotate(-42.27)"/>
  <ellipse class="cls-1" cx="286.42" cy="499.69" rx="220.79" ry="126.32" transform="translate(-261.64 322.59) rotate(-42.27)"/>
  <ellipse class="cls-1" cx="613.18" cy="183.39" rx="220.79" ry="126.32" transform="translate(36.09 460.13) rotate(-42.27)"/>
  <ellipse class="cls-1" cx="387.69" cy="816.61" rx="220.79" ry="126.32" transform="translate(-448.47 473.12) rotate(-42.27)"/>
  <g id="Layer_3_copy" data-name="Layer 3 copy">
    <path class="cls-1" d="M629.48,406.83c-86.03,62.11-172.06,124.22-258.1,186.33"/>
  </g>
  <g id="Layer_4_copy" data-name="Layer 4 copy">
    <path class="cls-1" d="M654.23,386.15c-107.77,73.87-177.31,124.1-190.3,110.15-5.57-5.98-8.46-5.99-1.22-37.67-29.83,44.29-85.96,110.73-115.79,155.01,71.56-48.42,183.96-117.17,196.2-103.72,5.89,6.48-.87,14-4.98,31.56,24.47-22.24,83.02-95.01,116.1-155.33Z"/>
  </g>
</svg>