<?xml version="1.0" encoding="UTF-8"?>
<svg id="Layer_1" xmlns="http://www.w3.org/2000/svg" version="1.1" viewBox="0 0 1000.3 1000">
  <!-- Generator: Adobe Illustrator 29.1.0, SVG Export Plug-In . SVG Version: 2.1.0 Build 142)  -->
  <defs>
    <style>
      .st0 {
        fill: #181800;
      }

      .st1 {
        fill: #ff5b03;
      }

      .st2 {
        display: none;
      }
    </style>
  </defs>
  <g id="Layer_2_copy" class="st2">
    <ellipse class="st1" cx="714.4" cy="499.9" rx="220.8" ry="126.3" transform="translate(-150.4 610.9) rotate(-42.3)"/>
    <ellipse class="st1" cx="286.5" cy="499.4" rx="220.8" ry="126.3" transform="translate(-261.5 322.9) rotate(-42.3)"/>
    <ellipse class="st1" cx="613.1" cy="183.1" rx="220.8" ry="126.3" transform="translate(36.4 460.3) rotate(-42.3)"/>
    <ellipse class="st1" cx="387.8" cy="816.2" rx="220.8" ry="126.3" transform="translate(-448.3 473.5) rotate(-42.3)"/>
    <g id="Layer_3_copy">
      <path class="st1" d="M629.5,406.8c-86,62.1-172.1,124.2-258.1,186.3"/>
    </g>
    <g id="Layer_4_copy">
      <path class="st1" d="M654.2,386.1c-107.8,73.9-177.3,124.1-190.3,110.1-5.6-6-8.5-6-1.2-37.7-29.8,44.3-86,110.7-115.8,155,71.6-48.4,184-117.2,196.2-103.7,5.9,6.5-.9,14-5,31.6,24.5-22.2,83-95,116.1-155.3h0Z"/>
    </g>
  </g>
  <g id="Layer_2_copy_2">
    <ellipse class="st0" cx="714.4" cy="499.9" rx="220.8" ry="126.3" transform="translate(-150.4 610.9) rotate(-42.3)"/>
    <ellipse class="st0" cx="286.5" cy="499.4" rx="220.8" ry="126.3" transform="translate(-261.5 322.9) rotate(-42.3)"/>
    <ellipse class="st0" cx="613.1" cy="183.1" rx="220.8" ry="126.3" transform="translate(36.4 460.3) rotate(-42.3)"/>
    <ellipse class="st0" cx="387.8" cy="816.2" rx="220.8" ry="126.3" transform="translate(-448.3 473.5) rotate(-42.3)"/>
    <g id="Layer_3_copy1">
      <path class="st0" d="M629.5,406.8c-86,62.1-172.1,124.2-258.1,186.3"/>
    </g>
    <g id="Layer_4_copy1">
      <path class="st0" d="M654.2,386.1c-107.8,73.9-177.3,124.1-190.3,110.1-5.6-6-8.5-6-1.2-37.7-29.8,44.3-86,110.7-115.8,155,71.6-48.4,184-117.2,196.2-103.7,5.9,6.5-.9,14-5,31.6,24.5-22.2,83-95,116.1-155.3h0Z"/>
    </g>
  </g>
</svg>