<?xml version="1.0" encoding="UTF-8"?>
<svg id="Layer_2_copy" xmlns="http://www.w3.org/2000/svg" version="1.1" viewBox="0 0 1000.3 1000">
  <!-- Generator: Adobe Illustrator 29.2.1, SVG Export Plug-In . SVG Version: 2.1.0 Build 116)  -->
  <defs>
    <style>
      .st0 {
        fill: none;
        stroke: #24261b;
        stroke-linecap: round;
        stroke-linejoin: round;
      }

      .st1 {
        fill: #24261b;
      }

      .st2 {
        fill: #fff;
      }
    </style>
  </defs>
  <g>
    <ellipse class="st1" cx="615" cy="207.4" rx="207" ry="118.4" transform="translate(20.4 467.6) rotate(-42.3)"/>
    <g>
      <path class="st2" d="M737.7,260.6c-2.3,4.7-9.2,13.4-10.5,11.9,1.3,1.4,1.3,1.4-2.8,8-.8-1-5.2,4.2-8.2,7.4,1.6-.9,3.2-2.3,5.4-4.3,1.1-1,2.3-2.1,3.6-3.5,1.3-1.4,2.8-2.9,4.5-4.7.5-1.1,1.2-2.2,2-3.3.8-1.2,1.7-2.4,2.7-3.6,2-2.4,4.4-4.9,6.6-7.5,2.3-2.6,4.5-5.1,6.3-7.7,1.8-2.5,3.2-4.9,3.8-7.1-4.1,4.6-9.2,8.1-13.3,14.3Z"/>
      <path class="st2" d="M704.9,284.2l-.4,1.5,4.9-5.7,4.8-5.9c-.8,1.3-2.9,4-4.9,6.2-2,2.2-4,4.1-4.5,3.9Z"/>
      <path class="st1" d="M669.3,317.6c.2-1.9-6.4,2-7.1.8.5.5.1,1.3-.7,2.2-.9.9-2.3,1.8-3.9,2.9-1.6,1-3.5,2.2-5.3,3.2-1.8,1-3.5,2.1-4.9,3l-1.1,3.3c3.1-1.1,8.1-3.9,13.5-7.7,1.4-.9,2.8-1.9,4.2-2.9,1.4-1,2.8-2.1,4.3-3.2,2.9-2.1,5.7-4.4,8.5-6.5-2.5,1.6-4.9,3.4-7.5,4.9Z"/>
      <path class="st2" d="M658.3,323.6l-2.8,3.6c2.8-2.4,9.6-7.4,2.8-3.6Z"/>
      <path class="st2" d="M670.4,324.3c8.9-6.4-5.9,3.2,2.7-3.8-2.8,2.5-6.1,5.1-2.7,3.8Z"/>
      <path class="st1" d="M629.5,345.3c3.3-2,6.6-4.1,9.8-6.2l4.8-3.2,2.4-1.6,2.3-1.7c-2.8,1.5-5.7,2.8-8.6,4.2l-2.6,2.2-2.7,2.1c-1.8,1.4-3.6,2.8-5.4,4.2Z"/>
      <path class="st1" d="M626.2,341.8c1.3-.7,3.1-1.4,4.1-1.7,1-.2,1.3,0-.4,1.4-4,1.2-6.9,2.9-9.6,4.6-2.8,1.6-5.6,3.2-9.3,4.2,2.1-1.2,4.1-2.5,6.2-3.8-.9-.6-4,1.5-7.2,3.3-3.2,1.7-6.3,3.2-6.7,1.7-4.1,2.9-2.1,2.8-.5,2.8,1.6,0,2.9,0-2.7,3.2,1.4-.6,2.7-1.2,4-1.8,1.3-.6,2.5-1.2,3.8-1.7,2.5-1.1,4.8-2.1,7.1-3.1,2.3-1,4.6-2,6.8-3,2.2-1,4.5-2,6.8-3.1-2.9.8-3.9,1.5-7.8,2.9,6.4-3.4,14.5-8.9,21.5-13.5-2.5.3-4.8,1.7-7.4,3.2-1.3.8-2.6,1.6-4.1,2.4-1.4.8-3,1.5-4.7,2.1Z"/>
      <path class="st1" d="M593,356.4c-7.2,2.7-18.6,6-20,8.8,8.4-.5,9.2-3.1,12.3-5.2,2.4-.3,9.7-2.9,7.2-.6-1.2-.1,4.1-3.4.5-3Z"/>
      <path class="st1" d="M564.1,364.9c-1.6,1.2-3.3,2.2-5,3.3l3.5-1.1.7,1.4c.3-.3.9-1.2,2.4-2.4.8-.6,1.7-1.2,3-1.7,1.3-.5,2.8-1.1,4.6-1.6-4.1,0-5.1,1.6-9.2,2Z"/>
      <path class="st1" d="M564.6,375.7c-2.8,0-4.9.3-7.2.9-2.2.5-4.5,1.1-7.6,1.9,2.2-.4,4.6-.8,7-1.2,2.4-.5,4.8-1.1,7-1.5,4.4-1.1,8-2.2,9.1-3l-.6.5s.5-.2,1.3-.5c.8-.4,1.9-.9,3.2-1.5,1.3-.6,2.7-1.3,4.1-2,1.4-.8,2.8-1.6,4-2.4-2,1-4.4,2-7,2.8-2.6.8-5.1,1.6-7.4,2.1-4.5,1.2-7.7,2.4-6,4Z"/>
      <path class="st1" d="M575.5,373.2c-1.9,1-3.9,1.9-5.9,2.8,2-.9,4-1.8,5.9-2.8Z"/>
      <path class="st1" d="M540.7,369.2l5.9-.3c2-.1,3.9-.4,5.9-.5l-2.9-.2-2.2.3-2.2.2-4.4.5Z"/>
      <path class="st1" d="M555.8,373.8c-9.7,1.2,5.6.9-3.6,2.2-.6.2,0,.1,1.1,0,1.2-.2,2.9-.5,4.8-1,1.9-.5,3.8-1,5.3-1.4,1.5-.5,2.6-1,2.7-1.3-.6,0-1.5.3-2.4.6-1,.3-2.1.6-3.1.9-2.1.6-4.1.9-4.7.1Z"/>
      <path class="st1" d="M533.1,369.5c-1.6.3-3.2.6-4.8.9-1.6.3-3.2.6-4.9.8,1.6-.2,3.3-.5,4.9-.8,1.6-.3,3.2-.5,4.8-.9Z"/>
      <path class="st1" d="M509.3,367.2l-2,.8c-.6-.2-1.1-.3-1.7-.4-.6-.2-1.2-.3-1.8-.5-1.2-.3-2.4-.6-3.7-1l-.9-.2-.9-.3-1.9-.6c-1.2-.4-2.5-.7-3.7-1.2-4.8-1.8-9-4-11.2-6.8.3,1-.9,1.2-1.3,1.6-.2.2-.2.5.2,1.1.2.3.6.6,1.1,1,.5.4,1.2.8,2.1,1.3,1.5-.1,4.1,1.2,4.1.1,3.1,1.5,2.1,2.2,4.1,3.4.8.2,1.6.3,2.4.4.8.2,1.7.3,2.6.6,1.7.5,3.6.8,5.4,1.2.9.2,1.8.4,2.7.6.9.2,1.7.2,2.6.3,1.6.2,3.1.3,4.4.2-2.4-.1-2.9-.5-4.6-.9,5.2,0,8,.8,10.3,1.6,2.2.8,3.8,1.2,6.1-.4-.9.2-2,.2-3.1.1-.6,0-1.2-.1-1.8-.2-.6-.1-1.2-.3-1.9-.4-2.5-.6-5.2-1.3-7.5-1.5Z"/>
      <path class="st1" d="M509,375.1c.7.1,1.4.3,2.1.4l2.2.3,4.3.7c-1.4.6-4.1.4-6.6.1-2.5-.4-4.8-.8-5.7-.2.2.5,2.4,1.2,4.3,1.8,1.8.6,3.2.9,1.5,1.1.8-1.7,3.8-1.5,6.1-1.3,2.3,0,3.9,0,1.8-2.1,5.6,0,6.4.6,7.4,1.2.5.3,1,.6,2.1.8.6.1,1.3.2,2.2.2,1,0,2.1,0,3.6,0l3.2-2.1c-1.6.2-3.1.4-4.4.5-1.3,0-2.6,0-3.7.1-2.3,0-4.2,0-6.1-.2-1.9-.2-3.8-.3-6.1-.5-1.1-.1-2.3-.2-3.7-.3-.7,0-1.4,0-2.1-.1-.7,0-1.5-.1-2.4-.2Z"/>
      <path class="st1" d="M477.2,363.9l-3-3.2c.3.9.7,1.7,1.1,2.6-4.3-2.5-7.6-5.5-10.3-8.6-.3-.4-.7-.8-1-1.1-.3-.4-.6-.8-.9-1.2-.6-.8-1.1-1.6-1.6-2.4-.5-.8-1-1.5-1.4-2.3-.4-.8-.8-1.6-1.2-2.3-1.6-3-2.6-6-3.8-8.6-.5-1.4-1-2.7-1.6-3.9-.3-.6-.6-1.2-1-1.8-.3-.6-.6-1.2-1-1.8-.5-.7-1-1.5-1.4-2.2-.2-.4-.5-.7-.7-1.1l-.5-1.2c-.7-1.6-1.4-3.1-1.9-4.8-.5-1.6-.9-3.3-1.3-4.9-.4-1.7-.5-3.4-.8-5,0-.8-.2-1.7-.3-2.5v-2.5c-.2-1.7-.4-3.4-.3-5.1,0-1.7,0-3.4,0-5.1,0-1.7,0-3.5,0-5.2-1.4-6.9-1,6.6-1.6,7.4-.7-.5-1.1-1.1-1.1-1.9,0-.8.2-1.7.4-2.6.2-.9.4-1.9.5-2.8,0-.5,0-.9-.1-1.4,0-.4-.3-.9-.5-1.3-.5-.2-1,.5-1.3,2-.3,1.4-.6,3.5-.8,5.9-.1,2.3-.1,4.9-.2,7.3,0,2.4.2,4.6,0,6.3,1.3,5.5,2,5.2,3.5,6.6-.4.8-.3,2.6-.1,4.4,0,.9.1,1.8.2,2.6,0,.8,0,1.4,0,1.9.7,1.3,1.3,2.6,1.8,3.8.6,1.2,1.2,2.3,1.6,3.4.5,1.1.9,2.2,1.4,3.2.5,1,1,2.1,1.5,3.1l.7,1.5.4.8.4.7c.6,1,1.2,2,1.9,3s.7,1,1.1,1.5c.4.5.8,1,1.3,1.4.9,1,1.9,1.9,3,2.9,1.2,3.9-5.9-6.6-3.5-3.4l2.1,2.5c.7.8,1.3,1.7,2.1,2.4l-.3-.7c.9.6,1.9,1.4,2.8,2.2,1,.8,1.9,1.8,3.1,2.6,1.1.9,2.2,1.8,3.3,2.8.5.5,1.1.9,1.7,1.4.6.4,1.1.9,1.7,1.3,4.5,3.6,9.1,6.6,11.4,8.2-3.8-2.4-5.8-4.9-1-3.1,1,1.1,2,2.3,3,3.5l5.6.8c.9.1,1.9.2,2.8.3l2.8.2c-2.1-.2-4.2-.6-6.1-1.5-1-.4-1.9-.8-2.8-1.2-.4-.2-.9-.4-1.3-.6-.4-.2-.8-.5-1.2-.7-1.6-.9-3-1.7-4.2-2-1.2-.4-2.1-.6-2.9,0Z"/>
      <path class="st1" d="M487,372.1c3.1,1.5,4.6,1.9,5.4,1.9.7,0,.7-.4.7-.7,0-.4,0-.7.9-.7.9,0,2.6.6,6.1,1.6-1.2-.3-2.5-.5-3.7-.9l-3.7-1.1-1.8-.5c-.6-.2-1.2-.4-1.8-.7l-3.6-1.4,1.6,2.4Z"/>
      <path class="st2" d="M445.9,325.7l-.5-3.2-.3-1.6v-1.6c-.3.5-.4,1.1-.4,1.7,0,.6.2,1.2.4,1.9.4,1.3,1,2.5,1.5,3.4.2.5.5.8.6,1.1.2.3.3.4.3.4,0,0-.1-.1-.4-.5-.3-.3-.6-.8-1.2-1.6Z"/>
      <path class="st2" d="M440.3,302.9c.9,1,1.8,2,2.8,3l-1-2.8-.5-1.4-.4-1.4c-.3.9-.6,1.8-.8,2.7Z"/>
      <path class="st1" d="M442.8,281.9c-.4-2.4-1-2.2-1.5-.7-.4,1.5-.8,4.2-.7,6.9.3-4.9,1.5-7.4,2.2-6.2Z"/>
      <path class="st2" d="M453.5,249.6c-1.5,4.9-.7,2.8.5.4,1.1-2.4,2.6-5,2.6-1.2-.6-1.5-.4-6.9-3.1.9Z"/>
      <path class="st1" d="M470.5,221.1c-.6,1.7-1.1,2.9-1.6,3.6-.5.8-.9,1.1-1.2,1.2,1.1-2.4,2.2-4.2,2.9-4.8Z"/>
      <path class="st1" d="M459.8,339.5c.2.2.3.5.5.7l.6.7c.4.5.7.9,1.1,1.4-.4-.5-.7-.9-1.1-1.4l-.5-.7c-.2-.2-.3-.5-.5-.7Z"/>
      <path class="st1" d="M458.5,337.6c.4.6.8,1.3,1.3,1.9-.5-.7-.9-1.3-1.3-1.9Z"/>
      <path class="st1" d="M452.9,265.9s0,0,0,0c-.1.2-.2.5-.4.7l.4-.8Z"/>
      <path class="st1" d="M681.7,303.8c1.5-1.4,2.7-2.4,3.6-3.2-1.2,1.1-2.4,2.1-3.6,3.2,0,0,0,0,0,0Z"/>
      <path class="st1" d="M688.1,302.6c-5.7,6.7-9.2,3.3-19.5,12.6,2.2-1.8,4.3-3.7,6.5-5.6,2.2-1.9,4.4-3.9,6.7-5.9,7.6-3.3-3.9,4.9,6.4-1.1Z"/>
      <path class="st1" d="M589.3,364.6c-.2,0-.3.1-.4.2-.8.4-.4.1.4-.2Z"/>
      <path class="st2" d="M667.7,48v.6c-2.5.3-5,.7-7.6,1,2.5-.5,5-1.1,7.6-1.6Z"/>
      <path class="st2" d="M669,48.9l6.4-.7,6.4-.4c-25,3.7-49.2,12.6-71.8,24.3.6-.7,1.2-1.3,1.8-1.9-.4-.1,3-2,8.3-4.5,5.3-2.4,12.6-5.6,20-8.2,3.7-1.4,7.4-2.5,10.9-3.6,1.7-.5,3.4-1,5-1.4,1.6-.4,3.1-.9,4.5-1.2,2.8-.7,5-1.3,6.5-1.7,1.5-.4,2.2-.6,1.9-.7Z"/>
      <path class="st2" d="M672.4,47.2c.9-.5,1.7-.9,2.5-1.2.8-.3,1.7-.5,2.5-.7,1.6-.3,3.2-.4,4.9-.5,1.7,0,3.4,0,5.3-.2.9,0,1.9-.2,2.9-.4,1-.1,2.1-.4,3.2-.7-1.5.4-2.9.8-4.2,1.2-1.3.4-2.6.9-3.8,1.2-2.5.6-5,1.3-7.9,1.4h-2.7c0-.1-2.7-.1-2.7-.1Z"/>
      <path class="st0" d="M697.6,39.1c2.1.2,4.5,0,6.6-.1,2.1-.1,4-.2,5.2,0-.8,1-2.8,1-5.1.8-2.3-.2-4.8-.6-6.7-.7Z"/>
      <path class="st1" d="M709.4,31.4c.7,0,1.4,0,2.1,0-.8,0-1.6.2-2.2.3v-.4Z"/>
      <path class="st1" d="M709.4,31.8l-.2.9c-1.4-.4-1-.7.2-.9Z"/>
      <path class="st1" d="M711.5,31.5c1.9-.2,4.1-.2,5.3-.5l-2-.3c1.4,0,3.2,0,4.9,0,1.7,0,3.2.3,3.8.7-1.3-.3-2.3-.4-3.1-.5-.8,0-1.3,0-1.7.1-.7.2-.9.7-1,1.3l2.1.3,2.1.4,4.2.8c-1.1,1.4-2.9,1-5.4.2-1.2-.5-2.7-.9-4.3-1.4-1.6-.4-3.4-.9-5.2-1Z"/>
      <path class="st0" d="M738.6,35.7c-1.5-.2-3.1-.4-4.6-.4l-4.5-.2c-2.1-2.2,5.9-.6,9.1.6Z"/>
      <path class="st1" d="M750.3,42.4c-.5-.1-1.4-.4-2.4-.8-1-.4-2-.7-2.9-1-1.7-.5-2.5-.7-.3.6-1.4-.2-3-.9-4.6-1.5,2.8.8,3.1.3,3.8,0,.4,0,.8,0,1.8.2.5.2,1.1.4,1.8.7.7.4,1.6.9,2.7,1.6Z"/>
      <path class="st1" d="M740.2,39.7c-.7-.2-1.4-.3-2.4-.7.8.2,1.6.4,2.4.7Z"/>
      <path class="st0" d="M654.6,48.8c1,0,1,.2.7.5l-.7-.5Z"/>
      <path class="st1" d="M764.7,53.4l2.6,2.2c-.7-.6-1.4-1.2-2.1-1.7l-.4-.5Z"/>
      <path class="st1" d="M540.6,125.5c4-3.2,7.9-6.3,12.2-9.8,2.1-1.8,4.4-3.6,6.8-5.6,2.4-2,4.9-4.3,7.7-6.7-1.6-1.6,4.4-4,3.8-6.4-1.5,1.1-2,1.5-1.6,1.2.4-.3,1.6-1.3,3.5-2.6,1.8-1.3,4.2-3.1,6.9-5.1,1.4-1,2.8-2,4.3-3,1.5-1,3-2.1,4.6-3.1,12.4-8.3,25.9-15.7,20.2-13.3l-2.8,2.6,2.3-3.8c1.7-.8,3.7-1.4,5.6-2.1,2-.7,4-1.4,5.9-2.1,3.9-1.3,7.4-2.8,9.5-4.3.8,0-13.9,6.1-27.6,13.7-13.8,7.6-26.6,16.4-25.4,16-.8.1-.3-.6,1.2-1.9,1.5-1.3,4-3.2,7.3-5.5,6.5-4.5,16-10.4,26.1-15.7,2.5-1.3,5.1-2.6,7.6-3.9,2.6-1.2,5.1-2.4,7.6-3.6,2.5-1.1,5-2.1,7.3-3.1,2.3-1,4.6-1.8,6.7-2.6,2.1-.8,4-1.5,5.8-2.2,1.8-.6,3.3-1.2,4.6-1.7,2.6-.9,4.2-1.5,4.5-1.7l1.4,1.1c2.7-1.2,5.1-2.1,7.5-3.1,2.3-1,4.5-1.9,6.7-2.7,1.1-.4,2.2-.8,3.2-1.2,1.1-.4,2.2-.7,3.3-1.1,2.2-.7,4.5-1.4,6.9-1.9l2.4,1.4c-1.8,0-3.3.2-4.6.4-1.3.2-2.4.5-3.5.9-1.1.3-2.2.7-3.5,1.1-1.3.4-2.7,1-4.5,1.5,1.5-.3,2.9-.6,4.2-.9,1.3-.2,2.4-.4,3.5-.5,2.1-.3,3.9-.5,5.6-.6,1.7,0,3.3-.2,5-.3.9,0,1.8-.1,2.8-.2,1,0,2.1-.2,3.3-.3-.2-1.1-2.3-1.2-2.9-1.3-.3,0-.1-.1.8-.3.5,0,1.2-.2,2.1-.3,1-.1,2.2-.4,3.7-.5,3.5.9-4.5,3.3,6.3,2.8,3.3.3,5.6.3,7.3.2,1.8,0,3.1-.3,4.3-.5.6-.1,1.2-.2,1.9-.4.7,0,1.4-.2,2.2-.2.8,0,1.7,0,2.8,0s1.1,0,1.7.2c.6,0,1.3.2,2,.4-.6-.2-1.3-.4-1.9-.6l-1.9-.5-3.9-1.1c1.1.1,2.4.3,3.8.5.7.1,1.5.2,2.2.3.7.1,1.5.3,2.3.5,1.5.4,3,.8,4.4,1.2,1.3.5,2.5,1.1,3.4,1.7-.6-.2-1.3-.4-2.1-.6-.8-.2-1.6-.5-2.6-.6-1.8-.3-3.8-.6-5.7-.7-3.7,0-6.8.3-6.7,1.4,2.4.2,6.3.8,9.9,1.9.9.2,1.8.5,2.7.7.9.3,1.7.6,2.5.9,1.6.6,3,1,3.9,1.3-1,.2-2,.5-2.9.7,2,1.3,3.6,1.8,5.5,2.3.5.1.9.3,1.4.4.5.1,1,.3,1.5.6,1,.5,2.1,1.1,3.2,2,1.3.4,1.8.4,1.9.2.1-.2-.2-.7-.6-1.2-.8-.9-1.9-2-.3-1.6.2.3.9.7,1.9,1.4,1,.7,2.3,1.6,3.6,2.5.3.2.7.4,1,.7l1,.7c.7.5,1.3.9,2,1.4.6.4,1.3.8,1.8,1.1.5.3,1,.6,1.5.8,0-.5-.2-1-.4-1.5-.3-.5-.8-.9-1.3-1.4-1.1-.9-2.6-1.9-4.2-2.8-1.7-.8-3.5-1.8-5.1-2.8-1.7-.9-3.3-2.1-4.6-3.5l4.5,2.5c1.5.9,2.9,1.9,4.3,2.8,1.8.1,1.9-.3.9-1.1-.5-.4-1.2-.9-2-1.4-.9-.5-1.8-1.1-2.9-1.6-1-.5-2.1-1-3.1-1.4-1-.5-1.9-.9-2.6-1.2-1.5-.7-2.1-1.2-1.1-1.5,1.1,0,2.1,0,3.1.4,1,.3,1.9.7,2.8,1.2.9.5,1.8,1,2.7,1.6.8.7,1.6,1.3,2.4,2,.8.7,1.6,1.3,2.4,1.9.8.7,1.5,1.3,2.4,1.9.8.6,1.7,1,2.6,1.4.9.4,1.8.7,2.9.9-.4-.5-1-1.1-1.6-1.7-.7-.6-1.5-1.3-2.4-1.9-.9-.7-1.8-1.4-2.7-2.1-1-.6-1.9-1.3-2.8-1.9-.9-.6-1.8-1.2-2.6-1.7-.8-.5-1.5-.9-2-1.3-1.1-.7-1.6-1.2-1-1.2,1.2.9,2.3,1.5,3.5,2.1,1.2.6,2.4,1.1,3.7,1.6.7.2,1.3.5,2,.8.7.3,1.4.6,2.1,1,.7.4,1.5.8,2.3,1.2.8.5,1.7.9,2.4,1.5l3.3,3.7c.6.6,1,1.3,1.5,1.9l1.5,2c3.6,2.2,1.3-.1-.5-2.9,1.1,1.5,2.4,2.9,3.7,4.6,1.2,1.7,2.6,3.4,4,5.3.6,1,1.3,1.9,2,2.9.3.5.7,1,1,1.5.4.5.7,1,1,1.6.6,1.1,1.2,2.2,1.9,3.3.3.6.6,1.1,1,1.7.3.6.6,1.2.8,1.7,1.1,2.3,2.3,4.7,3.1,7.2.4,1.2.9,2.5,1.3,3.7l1,3.8c.7,2.5,1.1,5.1,1.4,7.7,0,.6.2,1.3.3,1.9,0,.6,0,1.3.1,1.9,0,1.3.1,2.5.1,3.7.3,1.4.4,2.5.5,3.4.1.8.2,1.4.4,1.8.2.7.4.7.6.5.4-.4.8-1.7,1.6.9-.3,1.6-.6,3.4-.7,5.4-.1,2,0,4-.1,6.1,0,2.1,0,4.2,0,6.2,0,2-.2,3.8-.4,5.4-.1.9,0,2.3.5,3.2.4.9,1,1.4,1.6.6.4-5.4.5-10.9.3-16.4.5.4,1.2,0,1.8-1.2.5-1.2.9-3.4.7-6.4-.9,1.1-1.2.1-1.4-1.9,0-1-.1-2.3-.1-3.8,0-1.5,0-3.1,0-4.7,0-1.7-.2-3.4-.3-5-.2-1.6-.5-3.2-.8-4.5-.3-1.4-.7-2.5-1.1-3.3-.5-.8-1-1.3-1.6-1.3l1.9-.3-1.8-5.3-2.2-5.1-.6-1.3c-.2-.4-.4-.8-.7-1.2l-1.3-2.5-1.3-2.5c-.5-.8-1-1.6-1.5-2.4v.7c.4,0-2.1-4.2-6-9.1-4-4.8-9.5-10.4-14.1-14.5.8.4,2.3,1.7,4.1,3.1,1.6,1.6,3.5,3.3,4.9,4.7,2.8,3,4.4,4.5,1.2-1,.9.8,1.8,1.7,2.7,2.8.5.5.9,1.1,1.4,1.6.5.6,1,1.2,1.4,1.8.9,1.3,1.8,2.7,2.8,4.1.2.4.5.7.7,1.1.2.4.4.8.6,1.2.4.8.9,1.6,1.3,2.4,3.5,6.6,6.5,14.5,8.8,22.4l.4-3.5c3.4,8.3,4.7,18.6,4.5,28.8-.2,10.2-1.8,20.3-3.3,29.3-.2-1.9-.6-3.8-.9-5.7-1.5,6.3-4.9,13.8-4.9,19.9,1.8-7.5,1.8-3.4,2.2-1.8-.8,5.2-2.8,11.3-5.1,17.8-1.2,3.2-2.6,6.5-3.8,9.8-1.4,3.2-2.7,6.6-4.1,9.8,0,0,0-.8-.5-.3l-2.7,6.9-2.9,6.8c-.4.8-.8,1.4-1.2,2.1-.4.6-.8,1.2-1.2,1.7-.8,1-1.5,1.9-2.1,2.6-1.4,1.5-2.6,2.7-4.3,4.2-1.1,2.3-4.4,7.6-2.3,6.1.8-1.1,1.6-2.2,2-3-2.2,7.3-3.2,4.1-7.2,12.4,2.5-6.8-3.1.6-4.1-1.1-5.5,9.1,1.9,2.5,1.7,4-2.1,2.5-3.7,4.5-5.2,6.1-1.5,1.6-2.9,2.9-4.2,4.2-2.6,2.7-5.2,5.2-9.4,10.2.3,1.2,6.3-6.8,7.9-6.9-2.5,2.7-5.1,6.2-5.3,7l5.6-5.8c-9.3,10-18,19.6-27.9,30.9l1.2-.5c-2.2,2.2-4.4,4.4-6.6,6.6l1-3.7c-1.6,1.9-3.6,3.6-5.4,5-1.8,1.4-3.3,2.8-3.7,4.3l1.4-1.2-4.2,4.7c1.2-1.9,2.3-3.9,3.4-5.8-1.6,1.2-3.1,2.8-4.7,4.5-1.6,1.7-3.2,3.7-4.9,5.8-1.7,2.1-3.6,4.2-5.7,6.4-1,1.1-2.1,2.2-3.3,3.2-1.2,1.1-2.4,2-3.7,3-1.9-.2,2.4-3.7,6.9-8,1.1-1,2.3-2.1,3.4-3.2,1.1-1.1,2-2.1,2.9-3.1,1.7-1.9,2.7-3.6,2.5-4.5-1.8,1.2-4.1,2.9-6.2,4.6-2.1,1.7-3.9,3.3-4.6,4.5,1,.4,3.4-1.6,5.7-3.6-3.7,4.3-9.3,8.7-14.6,12.6-2.6,2-5.1,3.8-7.3,5.6-2.1,1.8-3.8,3.5-4.9,5.1,2.6-1.3,5-2.8,7.5-4.2-2,1.5-3.9,2.8-5.7,3.8-1.8,1-3.5,1.7-5.1,2.4-3,1.4-5.2,2.4-6.1,4.1,1.6-2.3,3.1-4.8,4.6-7.1-3.6,3.6-8.3,6.9-12.9,10.2-2.3,1.6-4.7,3.2-6.9,4.7-2.2,1.5-4.4,2.9-6.3,4.4.4.9,3.3-.8,6.2-2.6,2.8-1.9,5.4-4,5.2-3.6l-3.1,3.5c-6.7,3.3-7.8,3.5-9.2,3.9-1.4.5-3.2,1.1-11.3,4.7l.4,1.2c-1.6.2-3.5,1-5.5,2-1,.5-2,1.1-3,1.6-1,.5-2,1-2.9,1.5-3.6,1.9-5.8,3-3.7.2l4.8-1.3-1-1.2c-3.1,1.5-6.1,3.2-9.3,4.6l-4.7,2.2c-1.6.7-3.2,1.4-4.8,2.1.7-.9-1.2-.4-3.1,0-1.9.4-3.7.7-2.7-.4l-6.8,3.7c-2-.5,1.2-2.2,4.8-4,1.8-.9,3.7-1.9,5.2-2.7,1.5-.9,2.5-1.6,2.5-2.1-.6-.9-3.9.5-5.4,1.2,3.9-2.3,7.3-2.9,10.7-3.5,1.7-.3,3.4-.5,5.2-.9,1.8-.4,3.7-1,5.8-1.9,1.2-1,2.3-2.1,3.5-3.1l.6,1.9c3.2-2,5.5-4.5,6.4-5.8,2.3-.4,4.4-1.2,6.5-2.2,1.1-.5,2.1-1.1,3.2-1.7,1.1-.6,2.1-1.3,3.2-2,2.1-1.5,4.4-3,6.8-4.6,2.4-1.7,5-3.3,7.9-5-4.4,3.4-2.7,2.8,0,1.6,2.7-1.3,6.3-3.2,5.6-2.5,2.6-1.6,6.5-5.4,10.4-8.8,1.9-1.7,3.9-3.4,5.7-4.7,1.8-1.3,3.5-2.3,4.8-2.6,3.4-1.5-5.1,5.7,1.9.8,4.2-3.6,6.6-6.7,3.2-5.2,9.2-8.1,20.4-17.4,29.8-26.9l-1.4,3.2c3.4-2.6,6.2-5.6,8.4-8.6,2.2-3,3.8-5.8,4.7-7.9,1.2-.5,1.3-1.3,1,.2,2.2-1.6,3.7-3.2,5-4.8,1.2-1.7,2.2-3.4,3.3-5.3,1-1.9,2.2-4,3.7-6.5,1.5-2.5,3.6-5.3,6.3-8.7-1-.2-2.7,1.4-4.6,3.4-1.9,2.1-3.8,4.8-5.2,7.2l-.7-2.4c-9.5,11.6-20.8,24.1-28.8,33.3,1-1.6,2-3.3,3-5-1.2.7-2.1,1.3-2.9,1.9-.8.6-1.4,1.1-1.8,1.6-.9,1-1.4,1.8-1.8,2.7-.4.8-.9,1.7-1.8,2.5-.5.4-1,.9-1.8,1.4-.8.5-1.7,1-2.9,1.5-5,5.4,4.7-2.7,1.1,1.6-4.3,3-1.4-3.5-7.9,2.1,11.9-10.9,24-23.1,35.4-36.2,5.6-6.6,11.2-13.4,16.3-20.3,5.2-6.9,9.9-14.1,14.3-21.2,0-.8-1,.7-2.1,2.1,1-2.8,5.2-9.6,10.3-18.6,5.1-9,11-20.4,15.5-32.1,4.6-11.7,7.7-23.6,8.8-32.8.5-4.6.7-8.5.5-11.4,0-1.4-.2-2.6-.4-3.4-.2-.8-.5-1.4-.9-1.6.8-1.6,1.7,3.7,1.5-3.3-.4-.6-.9-2.4-1.7-.7.3-2.2.4-4.5.4-6.9,0-1.2-.1-2.4-.2-3.6-.1-1.2-.2-2.5-.4-3.7-.2-1.2-.5-2.5-.7-3.7-.1-.6-.2-1.3-.4-1.9-.2-.6-.4-1.2-.5-1.9-.4-1.2-.7-2.5-1.1-3.8-.5-1.2-.9-2.5-1.4-3.7l-.7-1.9-.9-1.8c-.6-1.2-1.1-2.4-1.8-3.6-1.4-2.3-2.6-4.7-4.2-6.8-2.9-4.5-6.5-8.5-10-12.4-.3,1-4.1-1.6-4.5-1.1-1.1-1.5-2.7-2.8-4.4-4.2-.9-.6-1.9-1.2-3-1.8-1-.6-2-1.2-3.2-1.7-2.2-1-4.3-2-6.4-2.7-1-.4-2-.8-2.9-1.2-.9-.4-1.8-.7-2.5-1.1l1.7,1.6c-6.6-2.3-13.5-3.7-20.6-4.5-.3.2.2.3,1.1.5.4,0,.9.2,1.4.2.5.1,1,.2,1.4.3-1.1,0-2.1-.2-2.8-.3-.7-.1-1.3-.3-1.7-.5-.9-.4-1.2-1-1.4-1.5-1.6.2-3.2.5-4.8.8-1.6.3-3.2.6-4.7,1-6.9-1-14.4-.8-22,.2-1.9.3-3.8.6-5.8.9-1.9.4-3.9.9-5.8,1.3-2,.4-3.9,1-5.8,1.5-1.9.6-3.9,1.1-5.9,1.8-7.8,2.4-15.5,5.6-23.2,8.7-1.9.8-3.8,1.6-5.7,2.4-1.9.8-3.8,1.7-5.7,2.5l-2.9,1.2c-.9.4-1.9.8-2.8,1.2-1.9.8-3.8,1.6-5.7,2.4-1.8,1.9-3.5,3.6-5.6,5.2-1.1.8-2.3,1.7-3.6,2.6-1.3.9-2.9,1.9-4.6,2.9l3.8-1.5c-3.2,2.7-3.5,2.6-3.6,2.3-.1-.3-.2-.8-3,1.4-1.8,1.7-1.7,2.5-.6,2.3,1.1-.2,3.2-1.4,5.8-3.4,3.8-1.5,2,.3-.3,2.1-22.3,12.7-42,26.6-59.9,38.3Z"/>
      <path class="st1" d="M525,150.5c-2.5,1.5,7.1-8.5,1.1-4.8-8.8,6.6-18.4,17.2-27.2,28.9-8.9,11.7-17.1,24.5-24.3,35.1-2.2,2.7-3.5,4.5-4.7,6.2-1.1,1.8-2.2,3.5-3.9,6.1.2.2.6.4,1,.3-.8,1.6-1.5,3.4-2.4,5.4-.4,1-.9,2-1.3,3-.4,1-.8,2.1-1.2,3.2-.4,1.1-.8,2.1-1.3,3.2-.4,1-.8,2.1-1.2,3.1-.8,2-1.6,3.8-2.3,5.4-.2,2,.7,3.8,1.5.1-.5,2.6-1.2,4.9-2,7-.8,2.1-1.6,4.1-2.4,5.9-.8,1.8-1.5,3.6-2,5.2-.5,1.6-.9,3.2-.9,4.7.4-1.2.7-1.5.9-1.3.1.2.2.8.3,1.4.1,1.2.2,2.2,1.1-.7-.4,2.7-.9,4.6-1.6,6.1-.7,1.5-1.4,2.6-2.1,3.6-.8,1-1.5,2-2.2,3.3-.7,1.3-1.1,2.8-1.4,5,.4.5.7,1.1.9-.7-.3,1.2-.6,2.5-.7,4-.1,1.5-.2,3-.2,4.6,0,.8,0,1.6.1,2.4,0,.8.1,1.6.2,2.5,0,.8.1,1.6.2,2.4.1.8.3,1.6.4,2.4.3,1.5.4,3,.7,4.4.3,1.3.5,2.6.6,3.6.2,2.1.2,3.6-.6,4.1l2.4,3.3c.1,2.1,0,3,0,4.3,0,.6,0,1.3.3,2.3.2.9.7,2.1,1.3,3.8,2.4,3.9,1.1-.7,2.3.6-.1.6.3,1.7.8,3.1.6,1.4,1.4,3.1,2.5,4.8.5.9,1,1.8,1.6,2.7.2.5.5.9.8,1.3.3.4.6.9.8,1.3,1.1,1.7,2,3.4,2.7,4.7-.3.4-.8,0-1.5-.8-.6-.9-1.2-2.3-2-3.8-.4-.8-.8-1.5-1.2-2.3-.4-.8-.8-1.6-1.2-2.4-.4-.8-.9-1.5-1.4-2.1-.5-.7-1-1.3-1.5-1.8-.5,0-.2.8.4,1.9-3.9-6.4-6-13.2-7.2-19.7-.1-.8-.3-1.6-.4-2.4-.1-.8-.2-1.6-.3-2.4-.1-1.6-.3-3.2-.4-4.8,0-1.6,0-3.1,0-4.7,0-.8,0-1.5,0-2.3,0-.8,0-1.5.1-2.3,0-3,.5-6,.7-9,.2-1.5.4-2.9.6-4.4.2-1.5.3-2.9.6-4.3.2-1.4.5-2.9.7-4.3.2-1.4.5-2.9.7-4.3.2-1.4.4-2.9.7-4.4.3-1.5.5-2.9.7-4.4,1.2-2.4,1.9-4.6,2-6.6,0-1,0-1.9,0-2.8,0-.8-.2-1.6-.4-2.3-.2.5-.5,1.1-.8,1.8-.3.7-.6,1.5-.9,2.3-.6,1.7-1.3,3.6-1.7,5.4-.8,3.6-1.1,6.8.4,7.2-1,2.3-2.1,4.7-3.1,7.1-.1,2.9-3.2,2.5-3.9,3.7.2-1.3.3-2.8.1-4-.1-1.3-.3-2.4-.6-3.1-.6-1.4-1.7-1.3-2.8,2.4.9-7.3,2.4-5.8,3.7-4.2,1.4,1.6,2.6,3.3,3.2-2.9l-1.8-2.2c.3,1.3,1.3-.7,2.2-3.5.4-1.4,1-3,1.4-4.5.4-1.5.7-2.9.8-4l-.8,1.5c2.4-8.1,5.5-16.7,9.1-25.5,3.7-8.8,8.1-17.7,12.9-26.5,2.4-4.4,5-8.8,7.6-13.1,1.4-2.1,2.7-4.3,4-6.4,1.3-2.1,2.8-4.2,4.2-6.3,5.6-8.3,11.5-16.2,17.5-23.4,1.3-.4,2.5-1.1,3.6-1.9,1.2-.8,2.3-1.8,3.4-2.9,2.2-2.2,4.2-4.9,6.4-7.6,4.2-5.4,8.5-10.6,13.1-12,2.5-3.3-5.6,2.6-.3-3.3,2.7-2.9,3.9-2.1,4-1.7.8-.9,1.6-1.8,2.3-2.8,2.9,1,3.8,3.6,2.1,8.3-.4,1.2-1,2.5-1.8,4-.4.7-.8,1.5-1.3,2.3-.5.8-.9,1.7-1.5,2.6-1.1,1.8-2.3,3.7-3.8,5.9-1.4,2.2-3,4.5-4.8,7Z"/>
    </g>
  </g>
  <g>
    <ellipse class="st1" cx="403.6" cy="801.1" rx="207" ry="118.4" transform="translate(-433.9 479.8) rotate(-42.3)"/>
    <g>
      <path class="st2" d="M526.3,854.2c-2.3,4.7-9.2,13.4-10.5,11.9,1.3,1.4,1.3,1.4-2.8,8-.8-1-5.2,4.2-8.2,7.4,1.6-.9,3.2-2.3,5.4-4.3,1.1-1,2.3-2.1,3.6-3.5,1.3-1.4,2.8-2.9,4.5-4.7.5-1.1,1.2-2.2,2-3.3.8-1.2,1.7-2.4,2.7-3.6,2-2.4,4.4-4.9,6.6-7.5,2.3-2.6,4.5-5.1,6.3-7.7,1.8-2.5,3.2-4.9,3.8-7.1-4.1,4.6-9.2,8.1-13.3,14.3Z"/>
      <path class="st2" d="M493.5,877.8l-.4,1.5,4.9-5.7,4.8-5.9c-.8,1.3-2.9,4-4.9,6.2-2,2.2-4,4.1-4.5,3.9Z"/>
      <path class="st1" d="M457.9,911.3c.2-1.9-6.4,2-7.1.8.5.5.1,1.3-.7,2.2-.9.9-2.3,1.8-3.9,2.9-1.6,1-3.5,2.2-5.3,3.2-1.8,1-3.5,2.1-4.9,3l-1.1,3.3c3.1-1.1,8.1-3.9,13.5-7.7,1.4-.9,2.8-1.9,4.2-2.9,1.4-1,2.8-2.1,4.3-3.2,2.9-2.1,5.7-4.4,8.5-6.5-2.5,1.6-4.9,3.4-7.5,4.9Z"/>
      <path class="st2" d="M446.9,917.2l-2.8,3.6c2.8-2.4,9.6-7.4,2.8-3.6Z"/>
      <path class="st2" d="M459,918c8.9-6.4-5.9,3.2,2.7-3.8-2.8,2.5-6.1,5.1-2.7,3.8Z"/>
      <path class="st1" d="M418.1,938.9c3.3-2,6.6-4.1,9.8-6.2l4.8-3.2,2.4-1.6,2.3-1.7c-2.8,1.5-5.7,2.8-8.6,4.2l-2.6,2.2-2.7,2.1c-1.8,1.4-3.6,2.8-5.4,4.2Z"/>
      <path class="st1" d="M414.8,935.4c1.3-.7,3.1-1.4,4.1-1.7,1-.2,1.3,0-.4,1.4-4,1.2-6.9,2.9-9.6,4.6-2.8,1.6-5.6,3.2-9.3,4.2,2.1-1.2,4.1-2.5,6.2-3.8-.9-.6-4,1.5-7.2,3.3-3.2,1.7-6.3,3.2-6.7,1.7-4.1,2.9-2.1,2.8-.5,2.8,1.6,0,2.9,0-2.7,3.2,1.4-.6,2.7-1.2,4-1.8,1.3-.6,2.5-1.2,3.8-1.7,2.5-1.1,4.8-2.1,7.1-3.1,2.3-1,4.6-2,6.8-3,2.2-1,4.5-2,6.8-3.1-2.9.8-3.9,1.5-7.8,2.9,6.4-3.4,14.5-8.9,21.5-13.5-2.5.3-4.8,1.7-7.4,3.2-1.3.8-2.6,1.6-4.1,2.4-1.4.8-3,1.5-4.7,2.1Z"/>
      <path class="st1" d="M381.6,950.1c-7.2,2.7-18.6,6-20,8.8,8.4-.5,9.2-3.1,12.3-5.2,2.4-.3,9.7-2.9,7.2-.6-1.2-.1,4.1-3.4.5-3Z"/>
      <path class="st1" d="M352.7,958.5c-1.6,1.2-3.3,2.2-5,3.3l3.5-1.1.7,1.4c.3-.3.9-1.2,2.4-2.4.8-.6,1.7-1.2,3-1.7,1.3-.5,2.8-1.1,4.6-1.6-4.1,0-5.1,1.6-9.2,2Z"/>
      <path class="st1" d="M353.2,969.4c-2.8,0-4.9.3-7.2.9-2.2.5-4.5,1.1-7.6,1.9,2.2-.4,4.6-.8,7-1.2,2.4-.5,4.8-1.1,7-1.5,4.4-1.1,8-2.2,9.1-3l-.6.5s.5-.2,1.3-.5c.8-.4,1.9-.9,3.2-1.5,1.3-.6,2.7-1.3,4.1-2,1.4-.8,2.8-1.6,4-2.4-2,1-4.4,2-7,2.8-2.6.8-5.1,1.6-7.4,2.1-4.5,1.2-7.7,2.4-6,4Z"/>
      <path class="st1" d="M364.1,966.8c-1.9,1-3.9,1.9-5.9,2.8,2-.9,4-1.8,5.9-2.8Z"/>
      <path class="st1" d="M329.3,962.8l5.9-.3c2-.1,3.9-.4,5.9-.5l-2.9-.2-2.2.3-2.2.2-4.4.5Z"/>
      <path class="st1" d="M344.4,967.4c-9.7,1.2,5.6.9-3.6,2.2-.6.2,0,.1,1.1,0,1.2-.2,2.9-.5,4.8-1,1.9-.5,3.8-1,5.3-1.4,1.5-.5,2.6-1,2.7-1.3-.6,0-1.5.3-2.4.6-1,.3-2.1.6-3.1.9-2.1.6-4.1.9-4.7.1Z"/>
      <path class="st1" d="M321.7,963.2c-1.6.3-3.2.6-4.8.9-1.6.3-3.2.6-4.9.8,1.6-.2,3.3-.5,4.9-.8,1.6-.3,3.2-.5,4.8-.9Z"/>
      <path class="st1" d="M297.9,960.8l-2,.8c-.6-.2-1.1-.3-1.7-.4-.6-.2-1.2-.3-1.8-.5-1.2-.3-2.4-.6-3.7-1l-.9-.2-.9-.3-1.9-.6c-1.2-.4-2.5-.7-3.7-1.2-4.8-1.8-9-4-11.2-6.8.3,1-.9,1.2-1.3,1.6-.2.2-.2.5.2,1.1.2.3.6.6,1.1,1,.5.4,1.2.8,2.1,1.3,1.5-.1,4.1,1.2,4.1.1,3.1,1.5,2.1,2.2,4.1,3.4.8.2,1.6.3,2.4.4.8.2,1.7.3,2.6.6,1.7.5,3.6.8,5.4,1.2.9.2,1.8.4,2.7.6.9.2,1.7.2,2.6.3,1.6.2,3.1.3,4.4.2-2.4-.1-2.9-.5-4.6-.9,5.2,0,8,.8,10.3,1.6,2.2.8,3.8,1.2,6.1-.4-.9.2-2,.2-3.1.1-.6,0-1.2-.1-1.8-.2-.6-.1-1.2-.3-1.9-.4-2.5-.6-5.2-1.3-7.5-1.5Z"/>
      <path class="st1" d="M297.6,968.7c.7.1,1.4.3,2.1.4l2.2.3,4.3.7c-1.4.6-4.1.4-6.6.1-2.5-.4-4.8-.8-5.7-.2.2.5,2.4,1.2,4.3,1.8,1.8.6,3.2.9,1.5,1.1.8-1.7,3.8-1.5,6.1-1.3,2.3,0,3.9,0,1.8-2.1,5.6,0,6.4.6,7.4,1.2.5.3,1,.6,2.1.8.6.1,1.3.2,2.2.2,1,0,2.1,0,3.6,0l3.2-2.1c-1.6.2-3.1.4-4.4.5-1.3,0-2.6,0-3.7.1-2.3,0-4.2,0-6.1-.2-1.9-.2-3.8-.3-6.1-.5-1.1-.1-2.3-.2-3.7-.3-.7,0-1.4,0-2.1-.1-.7,0-1.5-.1-2.4-.2Z"/>
      <path class="st1" d="M265.8,957.5l-3-3.2c.3.9.7,1.7,1.1,2.6-4.3-2.5-7.6-5.5-10.3-8.6-.3-.4-.7-.8-1-1.1-.3-.4-.6-.8-.9-1.2-.6-.8-1.1-1.6-1.6-2.4-.5-.8-1-1.5-1.4-2.3-.4-.8-.8-1.6-1.2-2.3-1.6-3-2.6-6-3.8-8.6-.5-1.4-1-2.7-1.6-3.9-.3-.6-.6-1.2-1-1.8-.3-.6-.6-1.2-1-1.8-.5-.7-1-1.5-1.4-2.2-.2-.4-.5-.7-.7-1.1l-.5-1.2c-.7-1.6-1.4-3.1-1.9-4.8-.5-1.6-.9-3.3-1.3-4.9-.4-1.7-.5-3.4-.8-5,0-.8-.2-1.7-.3-2.5v-2.5c-.2-1.7-.4-3.4-.3-5.1,0-1.7,0-3.4,0-5.1,0-1.7,0-3.5,0-5.2-1.4-6.9-1,6.6-1.6,7.4-.7-.5-1.1-1.1-1.1-1.9,0-.8.2-1.7.4-2.6.2-.9.4-1.9.5-2.8,0-.5,0-.9-.1-1.4,0-.4-.3-.9-.5-1.3-.5-.2-1,.5-1.3,2-.3,1.4-.6,3.5-.8,5.9-.1,2.3-.1,4.9-.2,7.3,0,2.4.2,4.6,0,6.3,1.3,5.5,2,5.2,3.5,6.6-.4.8-.3,2.6-.1,4.4,0,.9.1,1.8.2,2.6,0,.8,0,1.4,0,1.9.7,1.3,1.3,2.6,1.8,3.8.6,1.2,1.2,2.3,1.6,3.4.5,1.1.9,2.2,1.4,3.2.5,1,1,2.1,1.5,3.1l.7,1.5.4.8.4.7c.6,1,1.2,2,1.9,3,.3.5.7,1,1.1,1.5.4.5.8,1,1.3,1.4.9,1,1.9,1.9,3,2.9,1.2,3.9-5.9-6.6-3.5-3.4l2.1,2.5c.7.8,1.3,1.7,2.1,2.4l-.3-.7c.9.6,1.9,1.4,2.8,2.2,1,.8,1.9,1.8,3.1,2.6,1.1.9,2.2,1.8,3.3,2.8.5.5,1.1.9,1.7,1.4.6.4,1.1.9,1.7,1.3,4.5,3.6,9.1,6.6,11.4,8.2-3.8-2.4-5.8-4.9-1-3.1,1,1.1,2,2.3,3,3.5l5.6.8c.9.1,1.9.2,2.8.3l2.8.2c-2.1-.2-4.2-.6-6.1-1.5-1-.4-1.9-.8-2.8-1.2-.4-.2-.9-.4-1.3-.6-.4-.2-.8-.5-1.2-.7-1.6-.9-3-1.7-4.2-2-1.2-.4-2.1-.6-2.9,0Z"/>
      <path class="st1" d="M275.6,965.8c3.1,1.5,4.6,1.9,5.4,1.9.7,0,.7-.4.7-.7,0-.4,0-.7.9-.7.9,0,2.6.6,6.1,1.6-1.2-.3-2.5-.5-3.7-.9l-3.7-1.1-1.8-.5c-.6-.2-1.2-.4-1.8-.7l-3.6-1.4,1.6,2.4Z"/>
      <path class="st2" d="M234.5,919.3l-.5-3.2-.3-1.6v-1.6c-.3.5-.4,1.1-.4,1.7,0,.6.2,1.2.4,1.9.4,1.3,1,2.5,1.5,3.4.2.5.5.8.6,1.1.2.3.3.4.3.4,0,0-.1-.1-.4-.5-.3-.3-.6-.8-1.2-1.6Z"/>
      <path class="st2" d="M228.9,896.6c.9,1,1.8,2,2.8,3l-1-2.8-.5-1.4-.4-1.4c-.3.9-.6,1.8-.8,2.7Z"/>
      <path class="st1" d="M231.4,875.5c-.4-2.4-1-2.2-1.5-.7-.4,1.5-.8,4.2-.7,6.9.3-4.9,1.5-7.4,2.2-6.2Z"/>
      <path class="st2" d="M242.1,843.3c-1.5,4.9-.7,2.8.5.4,1.1-2.4,2.6-5,2.6-1.2-.6-1.5-.4-6.9-3.1.9Z"/>
      <path class="st1" d="M259.1,814.8c-.6,1.7-1.1,2.9-1.6,3.6-.5.8-.9,1.1-1.2,1.2,1.1-2.4,2.2-4.2,2.9-4.8Z"/>
      <path class="st1" d="M248.4,933.2c.2.2.3.5.5.7l.6.7c.4.5.7.9,1.1,1.4-.4-.5-.7-.9-1.1-1.4l-.5-.7c-.2-.2-.3-.5-.5-.7Z"/>
      <path class="st1" d="M247.1,931.2c.4.6.8,1.3,1.3,1.9-.5-.7-.9-1.3-1.3-1.9Z"/>
      <path class="st1" d="M241.5,859.6s0,0,0,0c-.1.2-.2.5-.4.7l.4-.8Z"/>
      <path class="st1" d="M470.3,897.4c1.5-1.4,2.7-2.4,3.6-3.2-1.2,1.1-2.4,2.1-3.6,3.2,0,0,0,0,0,0Z"/>
      <path class="st1" d="M476.7,896.3c-5.7,6.7-9.2,3.3-19.5,12.6,2.2-1.8,4.3-3.7,6.5-5.6,2.2-1.9,4.4-3.9,6.7-5.9,7.6-3.3-3.9,4.9,6.4-1.1Z"/>
      <path class="st1" d="M377.9,958.2c-.2,0-.3.1-.4.2-.8.4-.4.1.4-.2Z"/>
      <path class="st2" d="M456.3,641.7v.6c-2.5.3-5,.7-7.6,1,2.5-.5,5-1.1,7.6-1.6Z"/>
      <path class="st2" d="M457.6,642.6l6.4-.7,6.4-.4c-25,3.7-49.2,12.6-71.8,24.3.6-.7,1.2-1.3,1.8-1.9-.4-.1,3-2,8.3-4.5,5.3-2.4,12.6-5.6,20-8.2,3.7-1.4,7.4-2.5,10.9-3.6,1.7-.5,3.4-1,5-1.4,1.6-.4,3.1-.9,4.5-1.2,2.8-.7,5-1.3,6.5-1.7,1.5-.4,2.2-.6,1.9-.7Z"/>
      <path class="st2" d="M461,640.9c.9-.5,1.7-.9,2.5-1.2.8-.3,1.7-.5,2.5-.7,1.6-.3,3.2-.4,4.9-.5,1.7,0,3.4,0,5.3-.2.9,0,1.9-.2,2.9-.4,1-.1,2.1-.4,3.2-.7-1.5.4-2.9.8-4.2,1.2-1.3.4-2.6.9-3.8,1.2-2.5.6-5,1.3-7.9,1.4h-2.7c0-.1-2.7-.1-2.7-.1Z"/>
      <path class="st0" d="M486.2,632.8c2.1.2,4.5,0,6.6-.1,2.1-.1,4-.2,5.2,0-.8,1-2.8,1-5.1.8-2.3-.2-4.8-.6-6.7-.7Z"/>
      <path class="st1" d="M498,625.1c.7,0,1.4,0,2.1,0-.8,0-1.6.2-2.2.3v-.4Z"/>
      <path class="st1" d="M498,625.5l-.2.9c-1.4-.4-1-.7.2-.9Z"/>
      <path class="st1" d="M500.1,625.2c1.9-.2,4.1-.2,5.3-.5l-2-.3c1.4,0,3.2,0,4.9,0,1.7,0,3.2.3,3.8.7-1.3-.3-2.3-.4-3.1-.5-.8,0-1.3,0-1.7.1-.7.2-.9.7-1,1.3l2.1.3,2.1.4,4.2.8c-1.1,1.4-2.9,1-5.4.2-1.2-.5-2.7-.9-4.3-1.4-1.6-.4-3.4-.9-5.2-1Z"/>
      <path class="st0" d="M527.2,629.3c-1.5-.2-3.1-.4-4.6-.4l-4.5-.2c-2.1-2.2,5.9-.6,9.1.6Z"/>
      <path class="st1" d="M538.9,636c-.5-.1-1.4-.4-2.4-.8-1-.4-2-.7-2.9-1-1.7-.5-2.5-.7-.3.6-1.4-.2-3-.9-4.6-1.5,2.8.8,3.1.3,3.8,0,.4,0,.8,0,1.8.2.5.2,1.1.4,1.8.7.7.4,1.6.9,2.7,1.6Z"/>
      <path class="st1" d="M528.7,633.4c-.7-.2-1.4-.3-2.4-.7.8.2,1.6.4,2.4.7Z"/>
      <path class="st0" d="M443.2,642.4c1,0,1,.2.7.5l-.7-.5Z"/>
      <path class="st1" d="M553.3,647l2.6,2.2c-.7-.6-1.4-1.2-2.1-1.7l-.4-.5Z"/>
      <path class="st1" d="M329.2,719.2c4-3.2,7.9-6.3,12.2-9.8,2.1-1.8,4.4-3.6,6.8-5.6,2.4-2,4.9-4.3,7.7-6.7-1.6-1.6,4.4-4,3.8-6.4-1.5,1.1-2,1.5-1.6,1.2.4-.3,1.6-1.3,3.5-2.6,1.8-1.3,4.2-3.1,6.9-5.1,1.4-1,2.8-2,4.3-3,1.5-1,3-2.1,4.6-3.1,12.4-8.3,25.9-15.7,20.2-13.3l-2.8,2.6,2.3-3.8c1.7-.8,3.7-1.4,5.6-2.1,2-.7,4-1.4,5.9-2.1,3.9-1.3,7.4-2.8,9.5-4.3.8,0-13.9,6.1-27.6,13.7-13.8,7.6-26.6,16.4-25.4,16-.8.1-.3-.6,1.2-1.9,1.5-1.3,4-3.2,7.3-5.5,6.5-4.5,16-10.4,26.1-15.7,2.5-1.3,5.1-2.6,7.6-3.9,2.6-1.2,5.1-2.4,7.6-3.6,2.5-1.1,5-2.1,7.3-3.1,2.3-1,4.6-1.8,6.7-2.6,2.1-.8,4-1.5,5.8-2.2,1.8-.6,3.3-1.2,4.6-1.7,2.6-.9,4.2-1.5,4.5-1.7l1.4,1.1c2.7-1.2,5.1-2.1,7.5-3.1,2.3-1,4.5-1.9,6.7-2.7,1.1-.4,2.2-.8,3.2-1.2,1.1-.4,2.2-.7,3.3-1.1,2.2-.7,4.5-1.4,6.9-1.9l2.4,1.4c-1.8,0-3.3.2-4.6.4-1.3.2-2.4.5-3.5.9-1.1.3-2.2.7-3.5,1.1-1.3.4-2.7,1-4.5,1.5,1.5-.3,2.9-.6,4.2-.9,1.3-.2,2.4-.4,3.5-.5,2.1-.3,3.9-.5,5.6-.6,1.7,0,3.3-.2,5-.3.9,0,1.8-.1,2.8-.2,1,0,2.1-.2,3.3-.3-.2-1.1-2.3-1.2-2.9-1.3-.3,0-.1-.1.8-.3.5,0,1.2-.2,2.1-.3,1-.1,2.2-.4,3.7-.5,3.5.9-4.5,3.3,6.3,2.8,3.3.3,5.6.3,7.3.2,1.8,0,3.1-.3,4.3-.5.6-.1,1.2-.2,1.9-.4.7,0,1.4-.2,2.2-.2.8,0,1.7,0,2.8,0s1.1,0,1.7.2c.6,0,1.3.2,2,.4-.6-.2-1.3-.4-1.9-.6l-1.9-.5-3.9-1.1c1.1.1,2.4.3,3.8.5.7.1,1.5.2,2.2.3.7.1,1.5.3,2.3.5,1.5.4,3,.8,4.4,1.2,1.3.5,2.5,1.1,3.4,1.7-.6-.2-1.3-.4-2.1-.6-.8-.2-1.6-.5-2.6-.6-1.8-.3-3.8-.6-5.7-.7-3.7,0-6.8.3-6.7,1.4,2.4.2,6.3.8,9.9,1.9.9.2,1.8.5,2.7.7.9.3,1.7.6,2.5.9,1.6.6,3,1,3.9,1.3-1,.2-2,.5-2.9.7,2,1.3,3.6,1.8,5.5,2.3.5.1.9.3,1.4.4.5.1,1,.3,1.5.6,1,.5,2.1,1.1,3.2,2,1.3.4,1.8.4,1.9.2.1-.2-.2-.7-.6-1.2-.8-.9-1.9-2-.3-1.6.2.3.9.7,1.9,1.4,1,.7,2.3,1.6,3.6,2.5.3.2.7.4,1,.7l1,.7c.7.5,1.3.9,2,1.4.6.4,1.3.8,1.8,1.1.5.3,1,.6,1.5.8,0-.5-.2-1-.4-1.5-.3-.5-.8-.9-1.3-1.4-1.1-.9-2.6-1.9-4.2-2.8-1.7-.8-3.5-1.8-5.1-2.8-1.7-.9-3.3-2.1-4.6-3.5l4.5,2.5c1.5.9,2.9,1.9,4.3,2.8,1.8.1,1.9-.3.9-1.1-.5-.4-1.2-.9-2-1.4-.9-.5-1.8-1.1-2.9-1.6-1-.5-2.1-1-3.1-1.4-1-.5-1.9-.9-2.6-1.2-1.5-.7-2.1-1.2-1.1-1.5,1.1,0,2.1,0,3.1.4,1,.3,1.9.7,2.8,1.2.9.5,1.8,1,2.7,1.6.8.7,1.6,1.3,2.4,2,.8.7,1.6,1.3,2.4,1.9.8.7,1.5,1.3,2.4,1.9.8.6,1.7,1,2.6,1.4.9.4,1.8.7,2.9.9-.4-.5-1-1.1-1.6-1.7-.7-.6-1.5-1.3-2.4-1.9-.9-.7-1.8-1.4-2.7-2.1-1-.6-1.9-1.3-2.8-1.9-.9-.6-1.8-1.2-2.6-1.7-.8-.5-1.5-.9-2-1.3-1.1-.7-1.6-1.2-1-1.2,1.2.9,2.3,1.5,3.5,2.1,1.2.6,2.4,1.1,3.7,1.6.7.2,1.3.5,2,.8.7.3,1.4.6,2.1,1,.7.4,1.5.8,2.3,1.2.8.5,1.7.9,2.4,1.5l3.3,3.7c.6.6,1,1.3,1.5,1.9l1.5,2c3.6,2.2,1.3-.1-.5-2.9,1.1,1.5,2.4,2.9,3.7,4.6,1.2,1.7,2.6,3.4,4,5.3.6,1,1.3,1.9,2,2.9.3.5.7,1,1,1.5.4.5.7,1,1,1.6.6,1.1,1.2,2.2,1.9,3.3.3.6.6,1.1,1,1.7.3.6.6,1.2.8,1.7,1.1,2.3,2.3,4.7,3.1,7.2.4,1.2.9,2.5,1.3,3.7l1,3.8c.7,2.5,1.1,5.1,1.4,7.7,0,.6.2,1.3.3,1.9,0,.6,0,1.3.1,1.9,0,1.3.1,2.5.1,3.7.3,1.4.4,2.5.5,3.4.1.8.2,1.4.4,1.8.2.7.4.7.6.5.4-.4.8-1.7,1.6.9-.3,1.6-.6,3.4-.7,5.4-.1,2,0,4-.1,6.1,0,2.1,0,4.2,0,6.2,0,2-.2,3.8-.4,5.4-.1.9,0,2.3.5,3.2.4.9,1,1.4,1.6.6.4-5.4.5-10.9.3-16.4.5.4,1.2,0,1.8-1.2.5-1.2.9-3.4.7-6.4-.9,1.1-1.2.1-1.4-1.9,0-1-.1-2.3-.1-3.8,0-1.5,0-3.1,0-4.7,0-1.7-.2-3.4-.3-5-.2-1.6-.5-3.2-.8-4.5-.3-1.4-.7-2.5-1.1-3.3-.5-.8-1-1.3-1.6-1.3l1.9-.3-1.8-5.3-2.2-5.1-.6-1.3c-.2-.4-.4-.8-.7-1.2l-1.3-2.5-1.3-2.5c-.5-.8-1-1.6-1.5-2.4v.7c.4,0-2.1-4.2-6-9.1-4-4.8-9.5-10.4-14.1-14.5.8.4,2.3,1.7,4.1,3.1,1.6,1.6,3.5,3.3,4.9,4.7,2.8,3,4.4,4.5,1.2-1,.9.8,1.8,1.7,2.7,2.8.5.5.9,1.1,1.4,1.6.5.6,1,1.2,1.4,1.8.9,1.3,1.8,2.7,2.8,4.1.2.4.5.7.7,1.1.2.4.4.8.6,1.2.4.8.9,1.6,1.3,2.4,3.5,6.6,6.5,14.5,8.8,22.4l.4-3.5c3.4,8.3,4.7,18.6,4.5,28.8-.2,10.2-1.8,20.3-3.3,29.3-.2-1.9-.6-3.8-.9-5.7-1.5,6.3-4.9,13.8-4.9,19.9,1.8-7.5,1.8-3.4,2.2-1.8-.8,5.2-2.8,11.3-5.1,17.8-1.2,3.2-2.6,6.5-3.8,9.8-1.4,3.2-2.7,6.6-4.1,9.8,0,0,0-.8-.5-.3l-2.7,6.9-2.9,6.8c-.4.8-.8,1.4-1.2,2.1-.4.6-.8,1.2-1.2,1.7-.8,1-1.5,1.9-2.1,2.6-1.4,1.5-2.6,2.7-4.3,4.2-1.1,2.3-4.4,7.6-2.3,6.1.8-1.1,1.6-2.2,2-3-2.2,7.3-3.2,4.1-7.2,12.4,2.5-6.8-3.1.6-4.1-1.1-5.5,9.1,1.9,2.5,1.7,4-2.1,2.5-3.7,4.5-5.2,6.1-1.5,1.6-2.9,2.9-4.2,4.2-2.6,2.7-5.2,5.2-9.4,10.2.3,1.2,6.3-6.8,7.9-6.9-2.5,2.7-5.1,6.2-5.3,7l5.6-5.8c-9.3,10-18,19.6-27.9,30.9l1.2-.5c-2.2,2.2-4.4,4.4-6.6,6.6l1-3.7c-1.6,1.9-3.6,3.6-5.4,5-1.8,1.4-3.3,2.8-3.7,4.3l1.4-1.2-4.2,4.7c1.2-1.9,2.3-3.9,3.4-5.8-1.6,1.2-3.1,2.8-4.7,4.5-1.6,1.7-3.2,3.7-4.9,5.8-1.7,2.1-3.6,4.2-5.7,6.4-1,1.1-2.1,2.2-3.3,3.2-1.2,1.1-2.4,2-3.7,3-1.9-.2,2.4-3.7,6.9-8,1.1-1,2.3-2.1,3.4-3.2,1.1-1.1,2-2.1,2.9-3.1,1.7-1.9,2.7-3.6,2.5-4.5-1.8,1.2-4.1,2.9-6.2,4.6-2.1,1.7-3.9,3.3-4.6,4.5,1,.4,3.4-1.6,5.7-3.6-3.7,4.3-9.3,8.7-14.6,12.6-2.6,2-5.1,3.8-7.3,5.6-2.1,1.8-3.8,3.5-4.9,5.1,2.6-1.3,5-2.8,7.5-4.2-2,1.5-3.9,2.8-5.7,3.8-1.8,1-3.5,1.7-5.1,2.4-3,1.4-5.2,2.4-6.1,4.1,1.6-2.3,3.1-4.8,4.6-7.1-3.6,3.6-8.3,6.9-12.9,10.2-2.3,1.6-4.7,3.2-6.9,4.7-2.2,1.5-4.4,2.9-6.3,4.4.4.9,3.3-.8,6.2-2.6,2.8-1.9,5.4-4,5.2-3.6l-3.1,3.5c-6.7,3.3-7.8,3.5-9.2,3.9-1.4.5-3.2,1.1-11.3,4.7l.4,1.2c-1.6.2-3.5,1-5.5,2-1,.5-2,1.1-3,1.6-1,.5-2,1-2.9,1.5-3.6,1.9-5.8,3-3.7.2l4.8-1.3-1-1.2c-3.1,1.5-6.1,3.2-9.3,4.6l-4.7,2.2c-1.6.7-3.2,1.4-4.8,2.1.7-.9-1.2-.4-3.1,0-1.9.4-3.7.7-2.7-.4l-6.8,3.7c-2-.5,1.2-2.2,4.8-4,1.8-.9,3.7-1.9,5.2-2.7,1.5-.9,2.5-1.6,2.5-2.1-.6-.9-3.9.5-5.4,1.2,3.9-2.3,7.3-2.9,10.7-3.5,1.7-.3,3.4-.5,5.2-.9,1.8-.4,3.7-1,5.8-1.9,1.2-1,2.3-2.1,3.5-3.1l.6,1.9c3.2-2,5.5-4.5,6.4-5.8,2.3-.4,4.4-1.2,6.5-2.2,1.1-.5,2.1-1.1,3.2-1.7,1.1-.6,2.1-1.3,3.2-2,2.1-1.5,4.4-3,6.8-4.6,2.4-1.7,5-3.3,7.9-5-4.4,3.4-2.7,2.8,0,1.6,2.7-1.3,6.3-3.2,5.6-2.5,2.6-1.6,6.5-5.4,10.4-8.8,1.9-1.7,3.9-3.4,5.7-4.7,1.8-1.3,3.5-2.3,4.8-2.6,3.4-1.5-5.1,5.7,1.9.8,4.2-3.6,6.6-6.7,3.2-5.2,9.2-8.1,20.4-17.4,29.8-26.9l-1.4,3.2c3.4-2.6,6.2-5.6,8.4-8.6,2.2-3,3.8-5.8,4.7-7.9,1.2-.5,1.3-1.3,1,.2,2.2-1.6,3.7-3.2,5-4.8,1.2-1.7,2.2-3.4,3.3-5.3,1-1.9,2.2-4,3.7-6.5,1.5-2.5,3.6-5.3,6.3-8.7-1-.2-2.7,1.4-4.6,3.4-1.9,2.1-3.8,4.8-5.2,7.2l-.7-2.4c-9.5,11.6-20.8,24.1-28.8,33.3,1-1.6,2-3.3,3-5-1.2.7-2.1,1.3-2.9,1.9-.8.6-1.4,1.1-1.8,1.6-.9,1-1.4,1.8-1.8,2.7-.4.8-.9,1.7-1.8,2.5-.5.4-1,.9-1.8,1.4-.8.5-1.7,1-2.9,1.5-5,5.4,4.7-2.7,1.1,1.6-4.3,3-1.4-3.5-7.9,2.1,11.9-10.9,24-23.1,35.4-36.2,5.6-6.6,11.2-13.4,16.3-20.3,5.2-6.9,9.9-14.1,14.3-21.2,0-.8-1,.7-2.1,2.1,1-2.8,5.2-9.6,10.3-18.6,5.1-9,11-20.4,15.5-32.1,4.6-11.7,7.7-23.6,8.8-32.8.5-4.6.7-8.5.5-11.4,0-1.4-.2-2.6-.4-3.4-.2-.8-.5-1.4-.9-1.6.8-1.6,1.7,3.7,1.5-3.3-.4-.6-.9-2.4-1.7-.7.3-2.2.4-4.5.4-6.9,0-1.2-.1-2.4-.2-3.6-.1-1.2-.2-2.5-.4-3.7-.2-1.2-.5-2.5-.7-3.7-.1-.6-.2-1.3-.4-1.9-.2-.6-.4-1.2-.5-1.9-.4-1.2-.7-2.5-1.1-3.8-.5-1.2-.9-2.5-1.4-3.7l-.7-1.9-.9-1.8c-.6-1.2-1.1-2.4-1.8-3.6-1.4-2.3-2.6-4.7-4.2-6.8-2.9-4.5-6.5-8.5-10-12.4-.3,1-4.1-1.6-4.5-1.1-1.1-1.5-2.7-2.8-4.4-4.2-.9-.6-1.9-1.2-3-1.8-1-.6-2-1.2-3.2-1.7-2.2-1-4.3-2-6.4-2.7-1-.4-2-.8-2.9-1.2-.9-.4-1.8-.7-2.5-1.1l1.7,1.6c-6.6-2.3-13.5-3.7-20.6-4.5-.3.2.2.3,1.1.5.4,0,.9.2,1.4.2.5.1,1,.2,1.4.3-1.1,0-2.1-.2-2.8-.3-.7-.1-1.3-.3-1.7-.5-.9-.4-1.2-1-1.4-1.5-1.6.2-3.2.5-4.8.8-1.6.3-3.2.6-4.7,1-6.9-1-14.4-.8-22,.2-1.9.3-3.8.6-5.8.9-1.9.4-3.9.9-5.8,1.3-2,.4-3.9,1-5.8,1.5-1.9.6-3.9,1.1-5.9,1.8-7.8,2.4-15.5,5.6-23.2,8.7-1.9.8-3.8,1.6-5.7,2.4-1.9.8-3.8,1.7-5.7,2.5l-2.9,1.2c-.9.4-1.9.8-2.8,1.2-1.9.8-3.8,1.6-5.7,2.4-1.8,1.9-3.5,3.6-5.6,5.2-1.1.8-2.3,1.7-3.6,2.6-1.3.9-2.9,1.9-4.6,2.9l3.8-1.5c-3.2,2.7-3.5,2.6-3.6,2.3-.1-.3-.2-.8-3,1.4-1.8,1.7-1.7,2.5-.6,2.3,1.1-.2,3.2-1.4,5.8-3.4,3.8-1.5,2,.3-.3,2.1-22.3,12.7-42,26.6-59.9,38.3Z"/>
      <path class="st1" d="M313.6,744.1c-2.5,1.5,7.1-8.5,1.1-4.8-8.8,6.6-18.4,17.2-27.2,28.9-8.9,11.7-17.1,24.5-24.3,35.1-2.2,2.7-3.5,4.5-4.7,6.2-1.1,1.8-2.2,3.5-3.9,6.1.2.2.6.4,1,.3-.8,1.6-1.5,3.4-2.4,5.4-.4,1-.9,2-1.3,3-.4,1-.8,2.1-1.2,3.2-.4,1.1-.8,2.1-1.3,3.2-.4,1-.8,2.1-1.2,3.1-.8,2-1.6,3.8-2.3,5.4-.2,2,.7,3.8,1.5.1-.5,2.6-1.2,4.9-2,7-.8,2.1-1.6,4.1-2.4,5.9-.8,1.8-1.5,3.6-2,5.2-.5,1.6-.9,3.2-.9,4.7.4-1.2.7-1.5.9-1.3.1.2.2.8.3,1.4.1,1.2.2,2.2,1.1-.7-.4,2.7-.9,4.6-1.6,6.1-.7,1.5-1.4,2.6-2.1,3.6-.8,1-1.5,2-2.2,3.3-.7,1.3-1.1,2.8-1.4,5,.4.5.7,1.1.9-.7-.3,1.2-.6,2.5-.7,4-.1,1.5-.2,3-.2,4.6,0,.8,0,1.6.1,2.4,0,.8.1,1.6.2,2.5,0,.8.1,1.6.2,2.4.1.8.3,1.6.4,2.4.3,1.5.4,3,.7,4.4.3,1.3.5,2.6.6,3.6.2,2.1.2,3.6-.6,4.1l2.4,3.3c.1,2.1,0,3,0,4.3,0,.6,0,1.3.3,2.3.2.9.7,2.1,1.3,3.8,2.4,3.9,1.1-.7,2.3.6-.1.6.3,1.7.8,3.1.6,1.4,1.4,3.1,2.5,4.8.5.9,1,1.8,1.6,2.7.2.5.5.9.8,1.3.3.4.6.9.8,1.3,1.1,1.7,2,3.4,2.7,4.7-.3.4-.8,0-1.5-.8-.6-.9-1.2-2.3-2-3.8-.4-.8-.8-1.5-1.2-2.3-.4-.8-.8-1.6-1.2-2.4-.4-.8-.9-1.5-1.4-2.1-.5-.7-1-1.3-1.5-1.8-.5,0-.2.8.4,1.9-3.9-6.4-6-13.2-7.2-19.7-.1-.8-.3-1.6-.4-2.4-.1-.8-.2-1.6-.3-2.4-.1-1.6-.3-3.2-.4-4.8,0-1.6,0-3.1,0-4.7,0-.8,0-1.5,0-2.3,0-.8,0-1.5.1-2.3,0-3,.5-6,.7-9,.2-1.5.4-2.9.6-4.4.2-1.5.3-2.9.6-4.3.2-1.4.5-2.9.7-4.3.2-1.4.5-2.9.7-4.3.2-1.4.4-2.9.7-4.4.3-1.5.5-2.9.7-4.4,1.2-2.4,1.9-4.6,2-6.6,0-1,0-1.9,0-2.8,0-.8-.2-1.6-.4-2.3-.2.5-.5,1.1-.8,1.8-.3.7-.6,1.5-.9,2.3-.6,1.7-1.3,3.6-1.7,5.4-.8,3.6-1.1,6.8.4,7.2-1,2.3-2.1,4.7-3.1,7.1-.1,2.9-3.2,2.5-3.9,3.7.2-1.3.3-2.8.1-4-.1-1.3-.3-2.4-.6-3.1-.6-1.4-1.7-1.3-2.8,2.4.9-7.3,2.4-5.8,3.7-4.2,1.4,1.6,2.6,3.3,3.2-2.9l-1.8-2.2c.3,1.3,1.3-.7,2.2-3.5.4-1.4,1-3,1.4-4.5.4-1.5.7-2.9.8-4l-.8,1.5c2.4-8.1,5.5-16.7,9.1-25.5,3.7-8.8,8.1-17.7,12.9-26.5,2.4-4.4,5-8.8,7.6-13.1,1.4-2.1,2.7-4.3,4-6.4,1.3-2.1,2.8-4.2,4.2-6.3,5.6-8.3,11.5-16.2,17.5-23.4,1.3-.4,2.5-1.1,3.6-1.9,1.2-.8,2.3-1.8,3.4-2.9,2.2-2.2,4.2-4.9,6.4-7.6,4.2-5.4,8.5-10.6,13.1-12,2.5-3.3-5.6,2.6-.3-3.3,2.7-2.9,3.9-2.1,4-1.7.8-.9,1.6-1.8,2.3-2.8,2.9,1,3.8,3.6,2.1,8.3-.4,1.2-1,2.5-1.8,4-.4.7-.8,1.5-1.3,2.3-.5.8-.9,1.7-1.5,2.6-1.1,1.8-2.3,3.7-3.8,5.9-1.4,2.2-3,4.5-4.8,7Z"/>
    </g>
  </g>
  <g>
    <path class="st1" d="M863.1,365.3c-40-44.1-130-28.9-209.6,32.2,0,0,0,0,0,0h0c-101,69.3-166.2,116.3-178.4,103.3-5.2-5.6-7.9-5.6-1.1-35.3,0,0,0,0,0,0,12.6-40.3,9.6-77-12.1-100.8-44-48.4-148.2-25.3-232.8,51.6s-117.5,178.5-73.5,226.9c40.1,44.1,130.2,28.8,209.9-32.4,0,0,0,0,0,0,67.1-45.4,172.5-109.8,183.9-97.2,5.5,6.1-.8,13.1-4.7,29.6,0,0,0,0,0,0-12.5,40.2-9.5,76.9,12.1,100.6,44,48.4,148.2,25.3,232.8-51.6,84.6-76.9,117.5-178.5,73.5-226.9Z"/>
    <g>
      <path class="st2" d="M154,535c-.6,2.5-1.4,5.6-2.3,9-.8,3.4-1.8,6.9-2.6,10.1-.4,1.6-.9,3.1-1.2,4.5-.3,1.4-.7,2.6-1,3.6-.3,1-.6,1.8-.9,2.4-.3.5-.5.8-.7.7.9.4,1.4.6,1.5,2.5,0,1,0,2.4,0,4.4,0,1,0,2.2,0,3.6,0,.7,0,1.4,0,2.2,0,.8,0,1.6,0,2.5-.3,0-.6.6-.8,1.9-.1.6-.2,1.4-.3,2.3,0,.9,0,1.9,0,2.9,0,1,0,2.2,0,3.3,0,1.1.2,2.3.3,3.5.1,1.2.1,2.3.3,3.4.2,1.1.3,2.2.5,3.1,0-.8,0-1.7,0-2.6,0-.5,0-.9,0-1.4,0-.5,0-1,0-1.5,0-2.1-.1-4.4,0-7.1,0-5.4.5-12.4,2.2-21.6,0-.5,0-1.1,0-1.7,0-.6,0-1.2.2-1.8.1-1.2.3-2.5.5-3.8.2-1.3.5-2.7.8-4.1.3-1.4.7-2.8,1-4.3,1.7-5.9,3.8-12.2,6.5-18.4,5.1-12.4,11.5-24,14.4-32-1.6,2.5-3.4,5-5,7.6-.8,1.3-1.7,2.6-2.5,3.9-.8,1.3-1.6,2.7-2.4,4-.8,1.4-1.6,2.8-2.4,4.2-.7,1.5-1.5,3-2.2,4.5-1.5,3.1-2.7,6.4-3.9,9.9Z"/>
      <path class="st2" d="M138.7,613.8l1.5,2.4c-3.5-10.1-5.2-20.9-5.4-31.6.2,1.6.3,4.2.5,7.2.4,3,.6,6.4,1.2,9.5.9,6.4,2.5,11.9,2.2,12.5Z"/>
      <path class="st1" d="M218,667.2c-.7.3-.3.7.8,1,1.1.3,2.9.6,4.7.8,1.8.3,3.8.4,5.2.6,1.5.2,2.5.4,2.4.8,0-.4.2-.6.9-.9.7-.3,1.7-.5,3-.7,1.3-.2,2.8-.4,4.6-.6,1.7-.3,3.7-.5,5.7-.7,2-.3,4.2-.6,6.4-1,2.2-.3,4.4-.8,6.6-1.2,2.2-.4,4.3-1,6.3-1.4,1-.3,2-.5,2.9-.7.9-.3,1.8-.6,2.7-.8,1.6-1.2,3.2-2.4,4.8-3.7-3.4.6-7.9,1.8-13.3,2.9-.7.2-1.4.3-2.1.5-.7.1-1.4.3-2.2.4-1.5.3-3,.6-4.5.9-1.6.3-3.2.5-4.8.8-1.6.3-3.3.6-5,.8-13.6,2-29.5,2.5-43.6-.3,6,1.3,12.2,2.2,18.4,2.6Z"/>
      <path class="st2" d="M244.2,667.1c1.5-.4,3-1,4.4-1.4,1.5-.5,2.9-1,4.4-1.5-7.4,2-25.1,4.2-8.8,3Z"/>
      <path class="st2" d="M224.4,661.2c-2.7,0-4.5,0-5.7,0-1.2,0-1.7,0-1.7,0-.1,0,1.5.3,3.1.5,1.6.2,3.2.3,3.1.5,0,0-.6.2-1.8.2-.6,0-1.4,0-2.3.1-1,0-2.1,0-3.5,0,.9,0,1.9,0,2.8,0,.9,0,1.8,0,2.7-.1,1.7,0,3.2-.1,4.3-.3,2.2-.3,2.5-.5-1-.9Z"/>
      <path class="st1" d="M314.2,640c-3.5,2-7.1,3.7-10.7,5.5-3.6,1.7-7.2,3.5-10.9,5-3.7,1.6-7.4,3.1-11.1,4.5-3.8,1.3-7.5,2.8-11.4,3.9,6.5-1.5,12.8-3.5,19.2-5.5,8.6-4.1,16.8-8.6,24.9-13.4Z"/>
      <path class="st1" d="M318.7,642.9c-5.6,3-15,6.5-7.2,1.9,8.1-3.1,14.3-6.6,20.1-10.4,1.5-.9,2.9-1.8,4.4-2.8,1.4-1,2.9-1.9,4.4-2.8,3-1.8,6.1-3.9,9.7-5.8l-6.2,4.6-6.4,4.4c.7.1,2.7-1,5.3-2.7,2.6-1.7,5.8-4.1,8.9-6.4,3.1-2.4,6.1-4.6,8.4-6.1,2.3-1.5,3.9-2.3,4.2-1.5.5-.5.9-.9,1.3-1.2.2-.2.4-.4.6-.5.2-.2.4-.4.4-.5,0,0,.1-.1.2-.2,0,0,0-.1.2-.2.1-.1.3-.3.4-.4.3-.2.5-.5.7-.7.7-.8.9-1.2.8-1.3-.1-.1-.6,0-1.3.2-.3.1-.7.3-1,.4-.2,0-.4.2-.6.2,0,0-.2.1-.2,0h-.3c-1.4.8-2.7,1.4-2.4.8.2-.3.8-1,2-2.1,1.3-1.1,3.1-2.5,5.8-4.6-1.3.9-2.6,1.8-3.9,2.7-1.3.9-2.5,1.7-3.7,2.7-2.4,1.8-4.7,3.6-7,5.3-2.3,1.6-4.6,3.2-6.8,4.8-2.3,1.5-4.5,2.9-6.7,4.4-8.9,5.6-17.8,10.4-27.3,15,1.4-.6,2.7-1.1,3.8-1.6,1.1-.5,2.2-1,3.3-1.6,1.1-.6,2.3-1.1,3.7-1.8,1.4-.7,3-1.5,4.9-2.5-13,7.9-31,18-47.7,24.1,2.4-.4,5-1,7.7-1.9,1.3-.5,2.7-1,4.1-1.6,1.4-.5,2.8-1.2,4.3-1.8,2.9-1.3,6-2.7,9.1-4.2,1.6-.7,3.2-1.5,4.9-2.2,1.6-.8,3.3-1.5,5.1-2.3Z"/>
      <path class="st1" d="M383.8,601.2c6.9-4.5,15.7-10.1,23.1-15.1,7.4-5,13.4-9.5,14.6-11.7-15.6,7.8-17.1,11.2-23.1,16.3-4.4,2.4-18.2,11.3-13.4,6.5,2.3-.9-7.9,7.3-1.2,4Z"/>
      <path class="st1" d="M438.4,566.9l9.1-8.1-6.4,4.3-1.6-.9c-1,1.1-4.4,6.4-18.5,15,7.9-3.5,9.6-6.3,17.3-10.4Z"/>
      <path class="st1" d="M436.3,555.7c10.1-4.9,15.4-8.8,26.3-15.8-15.5,9.1-37.2,22.4-41.2,26l1-1.1s-3.4,2.5-8,5.9c-4.6,3.4-10.3,7.8-14.8,11.7,7.2-5.6,18.1-12.2,26.3-17.4,8.2-5.2,13.8-9.1,10.5-9.3Z"/>
      <path class="st1" d="M416.7,567.6l10.4-8-10.4,8Z"/>
      <path class="st1" d="M482,540.8c-7.4,3.9-14.8,7.8-22.2,11.9l5.6-2.5c5.5-3.2,11-6.3,16.5-9.3Z"/>
      <path class="st1" d="M452.7,550.1c17.6-10-10.4,4.1,6.1-5.5,2.2-1.4-3.9,2.1-10.5,6.3-6.7,4.2-13.9,9-14.3,9.8,4.4-2.3,16-11.1,18.7-10.6Z"/>
      <path class="st1" d="M496.5,533.1c5.8-3.7,11.7-7.2,17.8-10.6-6,3.4-11.9,7-17.8,10.6Z"/>
      <path class="st1" d="M541,516c1.3-.5,2.7-1,4.2-1.1.5.2,1,.5,1.3.9.2.2.4.4.5.6.2.2.3.5.5.7.6,1,.8,2.1.9,3.3,0,2.3-.8,4.6-1.5,6.8-.8,2.3-1.6,4.4-2.4,6.9-.9,2.8-1.7,5.7-2.3,8.4-.8,2.6-1.5,5.2-2.3,7.6-.7,2.5-1.3,5-2,7.4-.6,2.4-1.2,4.6-1.8,6.7-.6,2.1-1.1,4.1-1.6,5.9,1-1.6,1.4.6,1.9,1,.3.2.6,0,1-1.5.5-1.4.9-3.9,1.9-8.3-.3-2.9,1.3-9,.1-8.3,1-3.7,1.8-5,2.4-6.1.6-1,1.2-1.8,2.1-4h0s0,0,0-.1c.2-1.6.5-3.3,1-5.1.2-.9.5-1.8.7-2.7.2-.9.5-1.7.8-2.6.5-1.7,1.1-3.4,1.7-5.1.5-1.7,1.1-3.4,1.4-5.2.3-1.8.2-3.6-.6-5.1-.4-.8-.9-1.4-1.5-2-.6-.5-1.4-.8-2.2-1-1.6-.3-3.2,0-4.6.2-1.4.3-2.7.7-3.8,1.1,2.2-.7,3.6-.9,4.7-.9,1.2,0,2.2,0,3.7.5-1.2-.2-2.4,0-3.5,0-1.1.1-2.1.3-3,.6-1.8.4-3.4.8-4.8,1.2-1.4.4-2.7.7-3.9,1-1.1.3-2.5.6-3.7.9-4.7,1.3-8,2.3-11.7,5.8,3.3-2.1,8.3-4,13.5-5.6l1-.3.8-.2c.5-.2,1.1-.3,1.6-.4,1.1-.3,2.1-.5,3.2-.8,2.1-.5,4.1-.9,6.2-1.1Z"/>
      <path class="st1" d="M543.6,507.7c-3.4,0-7.1.7-10.8,1.7-.9.2-1.9.5-2.8.8-.9.3-1.9.6-2.8.9l-2.3.8-2.1.8c.6-.4,1.4-.9,2.3-1.4.2-.1.5-.2.7-.4.3-.1.5-.2.8-.4.7-.3,1.4-.6,2.2-.9,3-1.2,6.5-2.2,9.8-2.8,3.3-.6,6.4-.7,8.7-.4,2.4.3,4.2,1,5.2,1.2,0-.2-.4-.5-1-.9-.3-.2-.6-.4-1-.6-.4-.2-.8-.4-1.3-.6-1.9-.7-4.5-1.1-7-1.1-2.5,0-4.8.3-5.9.4-1.1.1-.9-.1,1.5-.8-1,1.1-3.5,2.1-6.6,3.3-1.5.6-3.2,1.2-4.9,1.9-1.2.5-2.5,1-3.6,1.5-4.4,1.9-7.3,3.4-2.2,3.4-5.3,2.4-8.4,3.8-10.4,4.5-2,.8-3,.9-4,1.1-2,.3-4.2.6-15,6.4l-5.2,4.9c11.7-6.8,18.9-10.2,26.3-13.4,3.7-1.6,7.4-3.1,11.8-4.9,1.2-.5,2.4-.9,3.7-1.4.8-.3,1.5-.6,2.3-.8.8-.3,1.6-.6,2.5-.8,3.4-1,7.1-2.1,11.2-2.3Z"/>
      <path class="st1" d="M542.3,571.8c-.4,1.4-.7,2.7-1,4.1-.3,1.4-.7,2.7-1,4.1.7-1.5,1.4-2.9,2.1-4.4-.9,9.5-1.1,18-.6,25.8.5,7.8,1.5,14.9,3.4,21.4,1.9,6.5,4.6,12.4,8,17.6.9,1.3,1.8,2.5,2.7,3.8,1,1.2,2,2.3,3.1,3.4.5.5,1,1.1,1.6,1.6l1.7,1.5,1.8,1.4.9.7c.3.2.6.4.9.6,1.6,1,3.2,2,4.8,2.9,1.7.9,3.3,1.7,4.9,2.6,1.7.8,3.4,1.5,5,2.3.8.4,1.7.7,2.5,1l2.6,1c6.8,2.5,13.9,4.3,21,5.6,7.2,1.2,14.5,1.7,21.9,1.7,7.4,0,14.9-.9,22.5-2.3,7.2-2.2,3.6-1.6-1.9-.8-1.4.2-2.9.4-4.4.6-.8,0-1.5.2-2.2.3-.7,0-1.5.1-2.1.2-2.7.2-4.8.3-5.2.1,1-.8,2.4-1.2,4-1.4,1.6-.2,3.5-.2,5.5-.3,2,0,4-.1,6-.5,2-.4,3.8-.9,5.4-1.8.7-1.2-6.9,0-16.4.6-2.4.1-4.8.4-7.3.4-2.5,0-5,.1-7.4,0-2.4-.1-4.7-.1-6.8-.4-2.1-.2-4-.4-5.5-.7-2.7-.2-4.8-.3-6.4-.4-1.6-.1-2.7-.2-3.6-.2-.9,0-1.6.1-2.2.2-.7.1-1.3.2-2.2.3-.6-.4-1.8-1-3.2-1.5-.7-.3-1.4-.6-2.2-.9-.8-.3-1.6-.7-2.4-1-.8-.4-1.6-.7-2.4-1-.7-.4-1.4-.8-2.1-1.1-1.3-.7-2.3-1.4-2.8-1.9-1.3-.5-2.5-1-3.8-1.5-.6-.3-1.2-.5-1.8-.8-.6-.3-1.1-.6-1.7-.9-1.1-.6-2.2-1.2-3.2-1.8-1-.7-1.9-1.4-2.9-2-3.7-2.6-6.7-5.7-9.5-8.8-.7-.8-1.3-1.6-2-2.5-.6-.8-1.3-1.7-1.9-2.5-.6-.9-1.2-1.8-1.8-2.7-.6-.9-1.3-1.8-1.8-2.8-1.1-2-2.4-3.9-3.4-6.1-.5-1.1-1.2-2.2-1.7-3.4-.5-1.2-1.1-2.4-1.7-3.6-.4-3.4,1,.4,2.4,4.1.8,1.8,1.6,3.7,2,4.6.2.5.3.7.3.7,0,0-.2-.4-.6-1.3-1.8-3.5-3.3-7.2-4.4-11v1.3c-1.4-3.8-3-8.5-3.7-13.9-.1-.7-.2-1.3-.3-2-.1-.7-.2-1.4-.2-2-.1-1.4-.2-2.8-.3-4.2-.1-1.4,0-2.8,0-4.2,0-1.4,0-2.8,0-4.2,0-1.4.2-2.8.3-4.1,0-.7,0-1.4.2-2,0-.7.2-1.3.3-2,.2-1.3.4-2.6.5-3.8.2-1.2.5-2.4.7-3.6.8-4.6,2-8.4,2.8-11-1.1,4.1-2.2,7.5-2.8,8.7-.3.6-.5.6-.6-.1,0-.4,0-.9,0-1.7,0-.8.2-1.8.4-3l1.7-3.9,1.9-3.8c.2-1.8.4-3.7.7-5.6l.4-2.8.2-1.4v-.7c.1,0,.3-.9.3-.9h0s.3-2.7.3-2.7c.1-.9.3-1.7.4-2.6.1-.9.3-1.7.5-2.6,0-.4.2-.9.3-1.4l.3-1.5c-.8,3.5-1.7,7.1-2.6,10.6h0c-.2.8-.5,1.7-.7,2.5-.2.8-.5,1.6-.7,2.4-.2.8-.5,1.5-.7,2.3-.2.8-.4,1.5-.6,2.3-.4,1.5-.8,2.9-1.2,4.3-.4,1.4-.6,2.7-.9,4-.3,1.3-.5,2.4-.7,3.5-.2,1.1-.2,2.1-.3,3,0,1.8.2,3.1.7,3.8Z"/>
      <path class="st1" d="M550.4,549.3c.3-.8.5-1.5.7-2.1.1-.3.2-.7.3-1,.1-.4.3-.8.4-1.2h0c.3-1.1.5-2,.7-2.8.2-.8.4-1.4.5-1.9.2-1.1.4-1.7.4-2.1,0-.8-.5-.5-.8-.4-.2,0-.3,0-.4-.3,0-.1,0-.3,0-.6,0-.1,0-.3,0-.4,0-.2.1-.5.2-.8.1-.6.3-1.3.6-2.1.3-.9.6-2,1.1-3.2.8-2.5,2-5.9,2.5-9.9-.2,2.1-.6,4.3-1.3,6.6-.3,1.1-.7,2.3-1.1,3.4l-1.2,3.4-.5,1.6-.3.8-.2.6c-.2.8-.5,1.6-.7,2.4-.2.8-.5,1.6-.7,2.4l-.6,2.6h0s-1.3,4.5-1.3,4.5c-.4,1.4-.8,2.8-1.1,4.2.9-1.3,1.9-2.6,2.8-3.9Z"/>
      <path class="st2" d="M577.5,656.4c1.8,1.1,3.6,2.2,5.5,3.3l2.9,1.4c1,.5,1.9,1,2.9,1.4-.7-.5-1.7-1.2-2.7-1.7-1-.6-2.2-1.1-3.4-1.6-1.2-.6-2.4-1.2-3.5-1.7-1.1-.5-2.3-.9-3.1-1.4-3.7-1.8-5.1-2.2,1.6.4Z"/>
      <path class="st2" d="M622.9,666.3c-2.3.9-4.6,1.5-6.9,2.2,4.1-.2,8.2-.7,12.2-1.2-1.8-.2-3.6-.6-5.3-.9Z"/>
      <path class="st1" d="M666.3,663c9.1-3.9-2.4-1.3-13.3,1.1,5-.9,8.8-1.6,11.1-1.8,2.3-.2,3.2,0,2.2.7Z"/>
      <path class="st2" d="M735,638.4c-9.8,5.6-5.4,3.2-.1.7,5.1-2.6,11.1-5.5,4.7-.4,1-1.2,3.8-3.5,4.3-4.5.5-.9-1.1-.4-8.9,4.1Z"/>
      <path class="st1" d="M797,599.2c-5.9,5.8-8.6,7.7-9.9,8,4.5-3.9,8.2-6.9,9.9-8Z"/>
      <path class="st1" d="M545.3,632.7c-1.4-2.2-2.5-4.9-3.6-7.2,1.2,2.5,2.1,4.9,3.6,7.2Z"/>
      <path class="st1" d="M548,637.3c-1-1.4-1.8-3-2.7-4.5,1,1.7,1.8,3.3,2.7,4.5Z"/>
      <path class="st1" d="M704.7,657.8q0,0,0,0c-.6.2-1.1.4-1.7.5l1.8-.6Z"/>
      <path class="st1" d="M179.4,662.4c-1-.4-2-.8-2.9-1.2-.9-.4-1.7-.9-2.5-1.2-.8-.4-1.5-.8-2.2-1.1-.7-.4-1.3-.8-1.9-1.2.8.4,1.5.9,2.3,1.3l2.3,1.2c.8.4,1.6.8,2.3,1.2.8.3,1.6.7,2.4,1,0,0,0,0,.1,0Z"/>
      <path class="st1" d="M170.4,653.9c1,.5,1.9,1,2.8,1.5.9.5,1.7.8,2.5,1.3.8.4,1.5.8,2.3,1.2.7.4,1.4.7,2.1,1.1,1.4.7,2.6,1.5,3.9,2.2,1.3.7,2.6,1.4,4,2.1,1.4.7,3,1.3,4.7,2.1.4.2.9.4,1.3.5.5.1.9.3,1.4.5,1,.3,2,.6,3.1.9,1.1.3,2.3.6,3.6.8,1.3.2,2.6.5,4.1.7,1.5.2,3,.3,4.6.5.8,0,1.7.1,2.5.1.9,0,1.8,0,2.7,0-6,0-12.1-.6-18.3-1.7-6.2-1.1-12.4-2.9-18.4-5.4-.9-.6-1.7-1-2.3-1.4-.6-.4-1-.8-1.4-1.1-.7-.6-.9-.9-.8-1,.2-.2,1.5.3,2.5.7,1.1.4,2,.6,1.2,0-.4-.3-1.2-.8-2.5-1.7-.7-.4-1.5-1-2.4-1.6-.9-.6-2-1.5-3.2-2.4Z"/>
      <path class="st1" d="M391.4,588.6c.3-.2.5-.4.8-.6,1.5-1,.7-.5-.8.6Z"/>
      <polygon class="st2" points="576.6 448.9 576.3 448.2 590.2 439.8 576.6 448.9"/>
      <path class="st2" d="M574,449.2c-7.9,4.8-15.7,9.6-23.6,14.3,17-11.2,33.8-22.7,50.6-34.3l50.4-34.8,1-.7h1.2s0,0,0,0h6.4s-3.1,5.6-3.1,5.6h0s-5.6-4.8-5.6-4.8c11-8.5,22.5-16.3,34.5-23.4-1.4,1.2-2.8,2.3-4.2,3.5.4,0-2.7,2-8.2,5.6-5.4,3.6-13,8.9-21.4,15.3l3.8,3.2h0s2.1-3.7,2.1-3.7h-4.3s0,0,0,0h-.8s-.7.4-.7.4c-16.4,11.2-36.6,25-52.4,35.8-15.8,10.8-27.1,18.5-25.6,17.9Z"/>
      <path class="st2" d="M568.1,454.4c-5.9,5.5-11.5,9-17.6,12.5-6.1,3.6-12.6,7.3-20.4,13.2,10.4-7.9,17.3-14.1,28.2-20.4l9.8-5.3Z"/>
      <path class="st0" d="M524.8,488.3c-3.9,2-8.1,4.6-11.8,6.8-3.8,2.2-7.2,4.2-9.6,5.1,1-1.6,4.7-3.6,9-5.7,4.3-2.1,9.1-4.4,12.4-6.2Z"/>
      <path class="st1" d="M507.3,506.7c-1.3.7-2.6,1.3-4,1.9,1.6-.8,2.9-1.6,3.9-2.2v.4Z"/>
      <path class="st1" d="M507.3,506.4l-.2-.9c2.9-1,2.3-.4.2.9Z"/>
      <path class="st1" d="M503.4,508.6c-3.5,1.9-8,3.9-10.6,5.1,1.5-.4,3-.9,4.4-1.3-.7.3-1.5.6-2.3.9-.4.2-.9.3-1.3.5-.2,0-.5.2-.7.3,0,0-.3,0-.5.2l-.5.2c-2.9.9-6.1,1.6-9,1.8-3,.3-5.8,0-8-.6-2.2-.6-3.9-1.5-4.8-2.1,4,2.2,7.5,2.6,10.2,2.7.7,0,1.3,0,1.8,0,.6,0,1.1-.1,1.6-.2.9,0,1.7-.3,2.3-.4,1.2-.3,1.9-.7,2.2-1,.4-.3.4-.6.5-1-4,.9-8.1,1.2-12,.4-1.9-.4-3.8-1.1-5.5-2-1.7-.9-3.2-2.2-4.6-3.7-1-1-2-2.1-2.9-3.1,1.1.4,2.3,1.2,3.6,2.3,1.5,1.2,3.3,2.9,5.9,4,.6.3,1.3.6,2,.8.7.2,1.5.5,2.3.6,1.6.4,3.3.5,5.2.6.9,0,1.9,0,2.9-.1,1,0,2-.2,3.1-.4,1.1-.1,2.1-.4,3.2-.6.4,0,.8-.2,1.2-.3.4,0,.8-.2,1.2-.3,3.1-.8,6.1-1.8,9.1-3.1Z"/>
      <path class="st0" d="M459.6,473.1l-.4,4.5c0,1.6-.2,3-.3,4.7,0,.8,0,1.6,0,2.5v.7s0,1,0,1v1s0,.9,0,.9c0,1.2.2,2.4.3,3.6.1,1.2.4,2.4.7,3.5,0,2-.2,2-.9.7-.3-.7-.5-1.8-.8-3.1-.1-.7-.1-1.4-.2-2.3,0-.8-.1-1.7-.1-2.6,0-.9,0-2,.1-3,0-.7,0-1.3.2-2,.1-1.3.3-2.6.5-3.8.3-2.5.8-4.7,1.1-6.3Z"/>
      <path class="st1" d="M467.5,449.1c-.2,1.8-1.2,6.5-2,9.6-.8,3.1-1,4.6.7.2,0,.6-.2,1.3-.4,1.9,0,.3-.2.7-.2,1,0,.3-.2.6-.2.9v.4c-.1,0-.2.2-.2.2h0c0,.2,0,0,0,0h0c-.3,1.7-.7,3.3-1.1,5.1.5-2.8.6-4.2.6-5.2h0s0,0,0,0h0c0-.2,0-.2,0-.3,0-.1,0-.2,0-.4,0-.1,0-.2,0-.3,0-.1,0-.3,0-.4v-.2s0,0,0,0v-.2c0-.1,0-.2,0-.3,0-.4-.1-.8,0-1.5,0-.7.3-1.8.8-3.4.5-1.7,1.1-3.9,2.1-7.2Z"/>
      <path class="st1" d="M464,468.5c-.2,1.3-.5,2.8-.9,4.8.3-1.6.6-3.3.9-4.8Z"/>
      <path class="st0" d="M600.5,435.6c-1.8,1-1.9.7-1.3,0h1.3Z"/>
      <path class="st1" d="M472.7,418.1c0-2-.2-3.9-.3-5.8,0,.8.1,1.6.2,2.4,0,.4,0,.8.1,1.1,0,.4,0,.8,0,1.1v1.1Z"/>
      <path class="st1" d="M868.9,360.1c-4.1-4.6-8.6-8.7-13.7-12.3-5.1-3.5-10.7-6.5-16.8-9-6.1-2.4-12.8-4.2-20.1-5.3-1.8-.2-3.7-.6-5.5-.7-1.9-.1-3.8-.3-5.8-.4-2,0-3.9,0-6-.1-2,0-4.1.1-6.2.2.2.6-.5.8-1.8,1.1-1.2.3-3,.4-4.8.6-1.8.1-3.7.5-5.3.8-1.6.4-2.7.8-3.2,1.4,4.2-.4,5.4-.6,4.3-.4-1.1.1-4.6.4-9.5,1.2-2.5.3-5.3,1-8.4,1.5-1.6.3-3.2.7-4.8,1.1-1.7.4-3.4.8-5.2,1.3-7.1,1.8-14.8,4.3-22.4,7.2-7.6,2.8-15.1,6.2-21.8,9.4-6.7,3.3-12.7,6.5-17.3,9.2-4.6,2.7-7.9,4.8-9.3,5.8-1.4,1-1,.9,1.9-.7,2.1-1.7,4.3-3.2,6.4-4.8l-3.1,3c-1,1-2,2.1-3,3.1-1.5.8-3,1.6-4.5,2.4-1.5.9-3.1,1.7-4.7,2.6-3.2,1.7-6.4,3.7-9.7,5.6-3.2,1.9-6.2,4-9.2,5.9-2.8,2-5.5,3.9-7.8,5.7l4,3.4h0s2.1-4.1,2.1-4.1h-4.4c0,0,0,0,0,0h-.9s-.6.5-.6.5c-1.9,1.4-3.6,2.7-5,3.9-.4.2,1.5-1.2,5.1-3.8l.6-.4h.8s0,0,0,0h4.2s-2,3.7-2,3.7h0s-3.7-3.1-3.7-3.1c5.3-4.1,14.4-11,25.6-18,11.2-7.1,24.5-14.5,37.5-20.3,12.9-5.9,25.5-10.2,34.5-12.8,9.1-2.6,14.5-3.7,13.4-3.6,1,0,.7.3-.6.7-1.3.5-3.8,1.1-7,2.1-6.5,1.9-16.4,5-27.8,9.8-11.4,4.7-24.4,11-37.3,18.6-12.9,7.6-25.6,16.3-37,25.2l.4.4h0s.2-.5.2-.5h-.7c-28.8,20.2-52.7,37-54.1,38.4h-2.6c-19.4,15.1-31.3,25.6-48,37.7l-4.8,1.1c13-7.7,15.8-11,28.2-20.2-11,7.6-17.7,11.8-23.7,15.5-6.1,3.7-11.4,7-20.1,12.4.9.8,4.8-1.3,5.7-1.8,1-.5-.8.8-11.6,7.9-3.4,1.5-1.8-.5-1.7-1.3,0-.4-.3-.5-1.9.2-1.6.7-4.4,2.3-9.4,5.1-5.4,2.7-9.4,4.7-12.6,6.2-3.2,1.5-5.5,2.7-7.7,3.6-2.3,1-4.4,1.8-7.2,2.3-1.4.2-2.9.3-4.5,0-.8-.2-1.7-.5-2.5-1-.8-.5-1.6-1.2-2.4-2-.9-.9-2-1.9-2.9-3.1-.9-1.2-1.6-2.8-1.9-4.6,0,.8.3,1.5.5,2.3.3.7.6,1.5,1,2.1.8,1.4,1.8,2.5,2.9,3.7,1.1,1.2,2.2,2.5,3.8,3.2,1.5.7,3.2,1.1,4.8,1.2-1.4,0-3-.2-4.6-.8-.8-.3-1.6-.7-2.3-1.3-.7-.6-1.4-1.2-2-1.9-.9-1-1.9-1.9-2.8-3.1-.8-1.1-1.5-2.4-1.9-3.8-.9-2.7-.8-5.7-.6-8.6v-1.1c.1-.3.2-.6.2-.9,0-.6.2-1.2.3-1.7.2-1.1.4-2.2.6-3.2.4-2.1,1-3.8,1.5-5.4-.3,1.5-.7,3.3-1,5.4-.1,1-.3,2.1-.4,3.3,0,.6-.1,1.2-.2,1.8,0,.6,0,1.3,0,2,0,2.8,0,5.6,1,8.1.4,1.3,1.2,2.4,2,3.3.8,1,1.7,1.7,2.6,2.5.6.5,1.1,1,1.7,1.4.6.4,1.2.7,1.8.9,1.2.4,2.4.4,3.3.4.5,0,.9-.1,1.2-.2.4,0,.6-.2.9-.3.5-.2.7-.5.6-.7-1.2.1-2.6.2-4.1-.2-.7-.2-1.5-.5-2.2-1-.7-.5-1.2-1.2-1.9-1.8-.9-1-2-2-2.7-3.3-.7-1.3-1.1-2.7-1.2-4.2-.2-3,.2-6,.6-8.9.9-5.8,2.2-11,2.9-14.3,0,1.9.2,3.8.4,5.6,1.1-3.1,1.8-5.8,2.3-8.4h0c.6-2.6,1.2-5.2,1.9-8,.3-1.5.7-3.1,1.2-4.8.5-1.7,1-3.5,1.6-5.5.7-5.9-.2-4.2-1.2-1.9-1,2.3-2,5.2-1.7,1.9.2-.6.8-2.4,1.4-4.9.2-1.3.5-2.7.8-4.3.1-.8.3-1.6.4-2.4.1-.8.2-1.7.3-2.6.2-1.7.4-3.5.5-5.3,0-1.8.1-3.5.2-5.1,0-1.6,0-3.2-.2-4.6-.1-1.4-.2-2.6-.4-3.6-.7,1.4-1.1,3.8-1.1,6.8,0,1.5-.2,3.1-.2,4.9,0,.9,0,1.8,0,2.7,0,.9-.1,1.9-.2,2.9-.5,7.8-1.8,16.7-5.1,23.2l1.4-5.1,1.2-5.2c.2-.9.4-1.7.6-2.6l.5-2.6.5-2.6c.2-.9.3-1.7.4-2.6-1-6.8-1.5,1.7-3.1,10.7-.8,4.5-1.9,9.2-2.8,12.3-1,3.1-1.7,4.6-1.9,2.8.6-8,3.2-15.7,4.8-23.5,1.7-7.8,2.6-15.9,0-22.9,0,.6,0,1.3,0,2,0,.7,0,1.6,0,2.4,0,1.7,0,3.7-.2,5.7-.2,4.1-.8,8.6-1.4,12.7-.4,2-.7,4-1.1,5.7-.4,1.7-.8,3.2-1.1,4.4-.6,2.4-1.2,3.5-1.2,2.4.8-2.6,1.4-5,1.8-7.4.3-2.4.5-4.9.6-7.4,0-1.3,0-2.6,0-3.9,0-.7,0-1.4,0-2.1,0-.7,0-1.4,0-2.1,0-1.5-.1-3-.2-4.6-.1-1.6-.2-3.3-.3-5.1v-1.1c0,0,0-1.1,0-1.1v-2.2c0-1.4,0-2.9,0-4.3l-.2-4.3-.5-4.3c-2.8-6.7-1.2-1.1-.8,4.5-.7-6.2-2.4-13.3-5.9-20.4-3.4-7.1-8.7-13.9-15.4-19.6-3.3-2.9-7.2-5.3-11.1-7.5-4.1-2-8.3-4-12.8-5.4-8.9-2.9-18.3-4.5-27.5-5.3-2.7,0-4.8.2-6.4.2-1.6,0-2.7.3-3.4.4-1.4.3-1.4.5-1,.6.8.4,3.1.8-1.8,1.6-5.8-.5-13.6.3-21.3,2.1-7.7,1.8-15.3,4.3-21.1,6.2-3.5.9-9,5-5.5,4.6,9.4-3.8,19.1-7,28.9-9.3-1.2,1.3,3.4,1.8,13.8.4-1.9-.7-.3-1.2,3.3-1.7,1.8-.2,4.1-.2,6.6-.3,1.3,0,2.6,0,4,.1,1.4,0,2.8,0,4.2.2,1.4.1,2.9.3,4.3.4h1.1c0,0,1,.2,1,.2.7,0,1.4.2,2.1.3.7,0,1.4.2,2,.3.3,0,.7,0,1,.1.3,0,.6.1,1,.2,1.3.2,2.5.4,3.6.6,4.5.8,7.7,1.2,8.5.4l-.9,1.7,4.3,1.1,4.1,1.4,1,.4c.3.1.7.3,1,.4l2,.9,2,.9,1.9,1c5,2.7,9.8,6,13.8,10l-.5-.9c-.2.1,1.2,1.3,3.1,3.6.5.6,1.1,1.2,1.6,1.9.5.7,1.1,1.5,1.7,2.3,1.3,1.6,2.4,3.6,3.7,5.7,2.4,4.3,4.5,9.4,6,14.9,1.4,5.5,2.1,11.2,2.2,16.3-.1-.7-.3-1.9-.4-3.3,0-.7-.1-1.5-.3-2.3-.1-.8-.3-1.7-.4-2.6-.1-.9-.3-1.8-.4-2.8-.2-.9-.4-1.8-.6-2.8-.2-.9-.4-1.8-.6-2.7-.3-.8-.5-1.7-.8-2.4-.2-.8-.5-1.5-.7-2.2-.2-.7-.5-1.2-.7-1.7-.4-1-.8-1.6-1-1.8-.2-.2-.2.2,0,1.1.1.9.6,2.4.9,4.8-.3-.8-.6-1.7-1-2.6-.4-.9-.8-1.8-1.2-2.8-.2-.5-.4-1-.6-1.5-.2-.5-.5-1-.7-1.5-.5-1-1-2-1.5-3.1-2.2-4.1-5-8.4-8.6-12.5-3.6-4.1-8.2-7.8-13.5-10.9-5.3-3.1-11.4-5.4-17.9-6.9l1.2.6,1.1.7,2.2,1.4c-6.6-1.7-13.9-2.8-21.9-3.3-8-.5-16.5-.2-25.2.7-17.4,2-35.3,7-50.7,13.7,2.9-1.8,5.7-3.7,8.7-5.3-5.7,1.7-12.2,3.9-18.5,6.4-3.1,1.3-6.2,2.8-9.1,4.2-2.8,1.6-5.5,3.2-7.8,4.8,12.9-6.9,6.7-2.5,4.7-.6-8.5,5-19,11.1-29.8,18.4-10.8,7.3-22,15.8-32,25,0,0,.7-1.2-.3-.6l-5.1,4.9-5,5-2.5,2.5-2.4,2.6c-1.6,1.7-3.2,3.4-4.8,5.2-2.4,2.4-4.4,4.3-6.2,6-1.8,1.7-3.3,3.1-4.7,4.4-2.9,2.5-5.4,4.7-8.5,7.4-3.1,3.9-10.5,13.6-6.9,10.6,1.7-2,3.4-4,4.4-5.4-3.7,6.2-5.3,8.1-7.2,10.3-1,1.1-2.1,2.3-3.4,4.2-.7.9-1.5,2.1-2.3,3.4-.9,1.3-1.9,2.9-3,4.9,1.5-3.1,2.1-4.5,2-4.9-.1-.4-.9.2-1.9,1.1-1.9,1.8-4.7,5-4.9,3.8-.7,1.1-1.3,2.1-1.8,3-.5.9-.9,1.7-1.2,2.3-.7,1.3-1.1,2.3-1.2,2.9-.4,1.2.1,1.1.9.5,1.6-1.2,4.3-4.2,4-2.9-7.1,10.4-10.8,16.5-14.5,22.6-1.8,3.1-3.6,6.2-5.4,10-.5,1-1,2-1.5,3-.5,1.1-.9,2.2-1.4,3.3-.5,1.2-1,2.4-1.6,3.7-.5,1.3-1,2.7-1.6,4.2.3.9,1.8-3.3,3.8-7.8.5-1.1,1-2.3,1.5-3.4.5-1.1,1.1-2.1,1.5-3.1,1-1.9,1.8-3.2,2.3-3.6-3.2,6.4-6.1,14.3-6.2,15.6,1-2.3,2.1-4.7,3.1-7,1.1-2.3,2.3-4.6,3.4-6.9-1.4,2.9-2.9,5.8-4.2,8.8l-1.9,4.4-1.7,4.5c-1.2,3-2.1,6.1-3.1,9.1-.5,1.5-.9,3.1-1.3,4.6-.4,1.6-.9,3.1-1.2,4.7-.3,1.6-.7,3.1-1,4.7-.3,1.6-.5,3.2-.8,4.8-.1.8-.3,1.6-.4,2.4,0,.8-.2,1.6-.2,2.4-.1,1.6-.4,3.2-.4,4.9-.4,6.5-.1,13.2.9,19.7l.2-2.1c.6,5.5,1.7,10.8,3.2,15.8-1.1-1.6-2.3-3.3-3.4-5.1.3,1.1.7,2.1,1,3.2l.4,1.6.2.8.3.8c.7,2,1.2,4.2,2.1,6,.4.9.8,1.8,1.1,2.7.4.8.9,1.6,1.3,2.3.9,1.4,1.7,2.6,2.7,3.3-.3-.4-.6-.9-.8-1.3l-.7-1.4c.9,1.5,2.1,2.9,3.2,4.3l.8,1c.3.3.6.6.9,1l1.8,1.9c-1.4-1.2-2.9-2.3-4.1-3.7l-2-2c-.3-.3-.7-.7-.9-1.1l-.9-1.1c3.1,6.2,9,12.4,17,17.1.5.3,1,.6,1.5.9.5.3,1,.5,1.6.8,1.1.5,2.1,1.1,3.2,1.6,1.1.5,2.3,1,3.4,1.5,1.1.5,2.4.9,3.6,1.3,4.9,1.7,10.1,3.1,15.8,4.3,1.1.9-.8.9-4.4.4-.9,0-1.9-.4-2.9-.6-1-.3-2.2-.5-3.4-.8-1.2-.4-2.4-.8-3.6-1.1-1.2-.4-2.4-1-3.7-1.4-5-2.1-9.8-4.8-13.5-7.3-.9-.6-1.7-1.2-2.5-1.8-.8-.5-1.5-1-2.1-1.4-1.2-.9-2.2-1.3-2.7-1.3.6.7,1.3,1.5,2,2.3.7.8,1.6,1.6,2.5,2.4.4.4.9.8,1.3,1.3.5.4,1,.8,1.4,1.1,1,.7,1.9,1.6,2.9,2.2,1,.7,2,1.3,3,1.9,1,.6,2,1,2.9,1.5.9.4,1.8.9,2.6,1.1.8.3,1.5.5,2.1.6-.1-.3-.5-.7-1.2-1.1-.6-.4-1.4-.9-2.4-1.5-.9-.6-2.1-1.1-3.2-1.8-1.1-.7-2.3-1.4-3.4-2.2,4.4,2.4,9.5,4.9,15.1,6.8,5.6,2,11.7,3.5,17.7,4.4,12.1,1.7,23.8.9,30.4-1.4h-4.1c0,.1-2,.2-2,.2h-2s-4,0-4,0l-4-.3c9.2-.2,17-.3,23.2-.7,6.2-.4,11-1.1,13.9-2.8-2.3,1.1-4.7,2.2-7,3.3-2.4,1-4.8,2-7.2,3,9.6-2.3,20.5-5.3,31-9.1,10.5-3.8,20.6-8.3,28.8-12.9-.1-.5-1.7,0-3.9,1-2.3.9-5.3,2.3-8.3,3.7-6,2.7-11.9,5.3-11.4,4.9,2.6-1.5,5.2-2.9,7.7-4.4,13.5-5,15.4-5.9,18.1-6.8,1.3-.5,2.8-1.1,6-2.5,1.6-.7,3.6-1.6,6.1-2.9,1.3-.6,2.7-1.4,4.3-2.2,1.6-.9,3.3-1.8,5.3-2.9l-.4-1.3c.7-.3,1.4-.6,2.2-1,.8-.4,1.6-.8,2.5-1.3,1.7-1,3.6-2.1,5.4-3.3,3.7-2.5,7.5-5.2,10.6-7.6,3.2-2.4,5.7-4.4,6.9-5.1,1.3-.8,1.3-.3-.6,2.2-2.7,1.7-5.5,3.3-8.3,5l1.6.8c2.7-2,5.5-4.1,8.2-6.2l4.4-3.5c1.5-1,2.9-2.1,4.4-3.1,5.8-4.1,11.6-8.1,17.4-12.2-2.8,3.2,14.1-8.2,10.4-4l12.4-9.6c3.6-1-2.1,3.4-8.7,8.4-6.6,5-14.2,10.6-14.4,11.7,1,.5,7.1-3.6,10-5.7-7.4,5.8-13.6,9.2-19.8,12.5-3.1,1.6-6.2,3.2-9.6,5.1-.7.5-1,.6-1.4.9-.4.3-.8.5-1.2.8-.8.5-1.6,1.1-2.5,1.6-1.7,1.2-3.4,2.4-5.3,3.7-2.2,2.1-4.4,4.3-6.7,6.3l-.7-1.9c-1.5,1.1-3,2.3-4.3,3.4-1.3,1.1-2.6,2.1-3.7,3.1-2.2,1.9-3.9,3.6-4.9,4.6-2.1.9-4.2,1.8-6.3,2.9-2.1,1-4.2,2-6.3,3.2-2.1,1.1-4.3,2.2-6.5,3.4-2.2,1.2-4.5,2.4-6.8,3.6-9.3,4.8-19.9,10-33,13.8,10.6-4.1,7-3.4,1.2-1.9-2.9.7-6.3,1.5-8.8,2.1-2.5.5-4.1.7-3.2.4-3,.8-7,1.9-11.6,3.1-4.6,1.1-9.7,2.3-14.9,3.1-1.3.2-2.6.4-3.8.6-1.3.1-2.5.2-3.8.3-2.5.3-4.9.3-7.1.3-.6,0-1.1,0-1.6,0-.5,0-1.1,0-1.6-.1-1,0-2-.2-2.9-.3-1.8-.2-3.4-.6-4.6-1-3.4-.8.3-.8,2.7-.8,1.2,0,2.2-.2,1.8-.3-.2,0-.8-.1-1.8-.3-1-.2-2.5-.4-4.5-.6-1.3,0-2.6-.3-3.8-.4-1.2-.2-2.3-.2-3.4-.4-2-.3-3.7-.5-4.9-.5-1.2-.1-1.8,0-1.7.2,0,.1.2.3.6.5.4.2,1,.5,1.8.8-5.9-1.3-11.9-3.2-17.6-6-5.7-2.8-11.2-6.5-16-11.1-4.8-4.5-8.8-9.9-12-15.7-3.2-5.8-5.5-12.1-7-18.5.9,1.9,1.9,3.8,2.9,5.6-1.9-7.8-3.3-15.6-4-22.8-.2-1.8-.3-3.5-.5-5.2-.2-1.7-.3-3.3-.4-4.8,0-1.5-.2-2.9-.3-4.3,0-1.3,0-2.6-.1-3.7.8-2.3.5-3.6,1-.9,1.2-5.3,2-9.5,2.8-13.6.3-2,.7-4,1-6,.3-2,.6-4.1,1.1-6.2.8-4.3,1.8-9,3.6-14.7.9-2.8,1.9-6,3.4-9.4.7-1.7,1.4-3.5,2.3-5.3.9-1.8,1.8-3.8,2.8-5.8-.6.3-1.5,1.4-2.6,3.1-.5.8-1.1,1.8-1.8,2.9-.6,1.1-1.2,2.4-1.8,3.7-.6,1.3-1.2,2.7-1.9,4.1-.6,1.4-1.1,2.9-1.7,4.4-1.1,3-2,6-2.7,8.8l-1-3.5c-2.7,7.4-4.9,15.3-6.6,23.3-1.7,8-2.7,16.2-2.8,24.2-.3,16,2.9,31.3,9.1,42.3l-1.6-2.5c-.6-.8-.9-1.7-1.4-2.6-.9-1.7-1.9-3.5-2.6-5.3.1.7.2,1.4.3,2,.2.6.3,1.2.5,1.8.3,1.1.6,2.2.9,3.2.3,1,.6,1.8,1,2.6.3.8.7,1.5,1,2.1.3.6.6,1.2.9,1.8.3.5.7,1,1,1.4.7.9,1.3,1.6,1.9,2.4.3.4.6.7.9,1.1.3.4.7.7,1,1.1.7.8,1.4,1.7,2.2,2.7.2.3.4.6.6.9.2.3.5.6.7.9.5.6,1,1.3,1.5,2.1.5.7,1.1,1.6,1.7,2.5.7.9,1.4,1.8,2.2,2.9.4.3.7.6,1,.9.3.2.6.5.9.7.5.4.9.7,1.3.9.6.4.9.6.9.5,0-.2-1.1-1.3-2.2-2.5-2.1-2.5-4.4-5.3-.1-1.6.4.5.8.9,1.2,1.3.3.4.6.7.8,1,.4.6.6,1,.7,1.3.2.6-.2.9-.4,1.3-.2.4-.2,1,.8,2.1.5.6,1.3,1.3,2.4,2.2.6.4,1.2,1,1.9,1.5.8.5,1.7,1.1,2.6,1.7-7.6-4.5-14.6-10.4-20.2-17.6-5.6-7.2-9.8-15.7-12.5-24.6-2.7-8.9-3.9-18.3-4-27.7,0-9.4.9-18.8,2.8-28.1,1.8-9.3,4.4-18.4,7.6-27.2,3.2-8.8,7-17.5,11.2-25.8,4.2-8.4,8.9-16.4,13.8-24.2,4.9-7.8,10.3-15.3,15.7-22.5.5-1.3-1.9,1.6-4.3,4.6.8-1.4,2-3.3,3.7-5.6,1.7-2.3,3.8-5.1,6.3-8.2,5.1-6.1,11.6-13.7,19.6-21.7,8-8,17.3-16.5,27.5-24.9,10.2-8.3,21.3-16.4,32.8-23.8,11.4-7.3,23.2-13.9,34.5-19.3,11.3-5.5,22.2-9.9,31.7-13.2,9.6-3.4,17.8-5.6,23.8-7.3,3-.8,5.5-1.5,7.2-2.1,1.8-.6,2.9-1,3.3-1.4,1.9.1,0,.8-.6,1.2-.3.2-.1.3,1,.2.6,0,1.4-.1,2.5-.3,1.2-.2,2.6-.4,4.6-.6,1.3-.5,5.3-1.5,1.5-1.8,9.9-.3,20.7-.3,32,1.2,1.4.1,2.8.4,4.2.7,1.4.3,2.8.5,4.3.8,1.4.3,2.8.7,4.3,1,.7.2,1.4.3,2.1.5l2.1.7c5.7,1.6,11.3,4,16.8,6.9,1.3.8,2.7,1.5,4,2.3,1.3.8,2.6,1.7,3.9,2.6l1.9,1.3,1.8,1.5c1.2,1,2.4,2,3.6,3.1,4.6,4.3,8.6,9.2,12,14.5,3.3,5.4,5.8,11.1,7.7,17,.8,3,1.7,5.9,2.2,9l.4,2.2.2,1.1v1.1c.3,1.5.4,3,.6,4.5.2-.3.5.1.7,1,.2.8.5,2,.8,3.3.3,1.3.5,2.6.7,3.6.2,1,.3,1.7.5,1.7-.6,6.9-1.2,15.5-2.6,24.4-.3,2.2-.7,4.4-1.1,6.6-.2,1.1-.4,2.2-.6,3.3-.2,1.1-.5,2.2-.7,3.2-.5,2.1-.9,4.3-1.5,6.3-.5,1.9-1.1,3.7-1.6,5.4h0c-.8,3.2-1.5,6.2-2.3,8.7.7-1.5,1.3-3,2-4.4-1.1,5.1-2.1,10.1-2.7,15,0,.3,0,.6,0,.9v.7c0,.4-.1.9-.1,1.3,0,.4,0,.9,0,1.3,0,.4,0,.9.1,1.3.1.9.4,1.7.9,2.4.5.7,1.1,1.4,1.7,2,.6.6,1.2,1.3,1.9,1.6.8.4,1.6.5,2.5.5,1.7,0,3.4-.3,5-.8.4-.3-.4-.2-1.6,0-1.2.2-2.8.3-3.9.1,1.6,0,2.9-.2,3.9-.4.5,0,1-.1,1.4-.2.2,0,.4,0,.6,0,.3,0,.5,0,.7-.1,1.8-.2,2.7,0,3.3.2,5.9-3,11.6-6.8,17.2-10.7,11.2-5.2,22.6-11.9,34.1-19.2,11.5-7.3,23.2-15.3,34.9-23.5,23.6-16.5,47.7-34.3,72.1-51l1.7-1.2h2s0,0,0,0h11c0,0-5.3,9.7-5.3,9.7h0s-9.7-8.3-9.7-8.3c10.3-7.9,21.1-15.1,32.2-21.3,2.1-1.7,4.1-3.4,6.3-5,2.2-1.6,4.5-3.1,7-4.8,2.5-1.6,5.3-3.2,8.5-4.9,3.2-1.7,6.8-3.6,11-5.4l-4.2,1.6-4.2,1.7c4-2.4,6.2-3.5,7.3-4,1.1-.5,1.2-.4,1.3-.2,0,.2,0,.4.8.1.8-.3,2.5-1,6.2-2.7,4.8-2.6,5.3-3.5,3-3-1.2.3-3.1.9-5.5,1.8-2.5.9-5.4,2.4-8.6,4.1-4.3,1.7-5.2,1.8-4.4,1.1.4-.4,1.3-.9,2.5-1.6,1.1-.7,2.6-1.4,4-2.2,6.7-3,13.6-5.6,20.5-8,3.5-1.1,6.9-2.3,10.4-3.2,1.7-.5,3.5-1,5.2-1.5,1.8-.4,3.5-.9,5.3-1.3,1.7-.4,3.5-.8,5.3-1.2,1.8-.3,3.5-.7,5.3-1,3.5-.6,7-1.2,10.6-1.5,3.5-.5,7.1-.7,10.6-.9,1.8,0,3.5-.1,5.3-.2.9,0,1.8,0,2.6,0h2.6c1.8.1,3.5,0,5.3.2,1.7.1,3.5.3,5.2.4,1.7.2,3.5.4,5.2.7,1.7.2,3.4.5,5.1.9,3.4.6,6.8,1.5,10.1,2.4,1.6.5,3.3,1.1,4.9,1.6.8.2,1.6.6,2.4.9l2.4,1,2.4,1,2.3,1.1c1.5.8,3.1,1.4,4.5,2.3,1.5.9,2.9,1.7,4.4,2.6,1.4,1,2.8,1.9,4.1,2.9,5.4,4,10.1,8.6,14.1,13.5Z"/>
      <path class="st1" d="M897.2,423.4c-.2,1.7-.4.9-.5-1.1,0-1-.1-2.3-.2-3.6,0-.7,0-1.4-.1-2.1,0-.7-.2-1.4-.3-2.1-.4-2.8-.7-5.3-1.1-6-.2-.4-.3-.3-.4.4,0,.7-.2,2-.3,4.1.1,13.2-1.8,28-5.6,43.1-1.9,7.6-4.4,15.2-7.2,22.9-.7,1.9-1.5,3.8-2.3,5.7-.4,1-.8,1.9-1.1,2.9-.4.9-.8,1.9-1.2,2.8-.8,1.9-1.7,3.8-2.5,5.7-.9,1.9-1.8,3.8-2.7,5.6-.9,1.9-1.9,3.7-2.8,5.6-1,1.8-1.9,3.7-3,5.5-2.1,3.6-4.1,7.3-6.3,10.8-1.1,1.8-2.2,3.6-3.3,5.3-1.1,1.7-2.3,3.5-3.4,5.2l-1.7,2.6-1.8,2.5c-1.2,1.7-2.4,3.3-3.6,5-9.7,13.1-20.2,24.9-30.6,34.9-11.6,10.1-14.6,12.8-25.3,21.4,0,.4.2.7.9.5-1.5,1.3-3,2.7-4.7,4.1-1.7,1.4-3.5,2.9-5.3,4.4-.9.8-1.9,1.5-2.8,2.3-1,.8-1.9,1.5-2.9,2.3-2,1.5-4,3.2-6,4.7-8.1,6.2-16.6,11.8-23.4,15.6-1.7,1.4-3.2,2.7-3.3,3.2,0,.2.3.2,1-.1.8-.3,2-1.1,3.7-2.3-9.7,6.9-19,11.4-27.3,14.9-8.3,3.4-15.5,6-21.5,9,11.1-3.5-10.2,5.6,2.9,1-2.9,1.2-5.4,2.2-7.7,3-2.3.7-4.3,1.3-6.1,1.7-.9.2-1.7.4-2.5.5-.8.1-1.6.2-2.3.3-1.5.2-2.8.3-4.1.4-2.6.2-5,.2-8,.5-3,.3-6.5.7-11.3,1.7-.5.3-1.1.6-1,.8,0,.2.8.1,2.7-.3-.7,0-1.3.2-2.1.3-.7,0-1.4.2-2.2.3-1.5.2-3.1.4-4.7.7-1.6.3-3.3.4-5,.7-1.7.2-3.5.5-5.3.7-7.2.9-14.8,1.4-21.9,1.4-3.5-.1-6.9-.2-10.1-.6-1.6-.2-3-.3-4.4-.5-1.4-.3-2.7-.5-3.9-.8-2.4-.4-4.3-1.1-5.8-1.7-1.4-.6-2.3-1.1-2.4-1.6-1.5-.1-2.9-.4-4.4-.6-1.5-.2-2.9-.4-4.4-.7-2.1-1.2-3.6-1.9-4.7-2.7-1.1-.8-2-1.5-3.1-2.2-.5-.4-1.1-.7-1.8-1.2-.6-.5-1.4-1-2.3-1.6-.9-.6-1.9-1.3-3.1-2.1-1.2-.9-2.5-1.9-4-3.1-.6-.3-1-.7-1.4-.9-.4-.3-.7-.5-1-.7-.6-.4-1-.6-1.2-.7-.5-.2-.4,0-.1.5.5.8,1.6,2.2,0,1.2-.6-1-2.5-2.7-4.7-5.3-.6-.6-1.2-1.3-1.8-2-.6-.7-1.2-1.5-1.8-2.3-.6-.8-1.3-1.6-2-2.5-.6-.9-1.2-1.8-1.8-2.8-.6-1-1.3-1.9-1.8-2.9-.5-1-1.1-2-1.6-3-1.1-2-1.9-4.2-2.8-6.2-1.6-4.1-2.6-8-2.9-11.1.5-.3.9.9,1.4,3,.3,1.1.6,2.4,1,3.8.2.7.4,1.5.6,2.3.2.8.5,1.6.8,2.5.6,1.7,1.2,3.5,2,5.2.8,1.7,1.6,3.6,2.7,5.2.5.8,1,1.6,1.6,2.4.3.4.5.8.8,1.2.3.4.6.7.9,1.1,1.2,1.4,2.4,2.6,3.6,3.6.6,0-.5-1.4-2.1-3.4,10.1,12.6,23.6,20.9,37.5,25.4,6.9,2.3,14,3.9,21,4.8,1.7.2,3.5.4,5.2.5.9,0,1.7.2,2.6.3.9,0,1.7,0,2.6.1,1.7,0,3.5.2,5.2.2,1.7,0,3.4,0,5.1,0,.9,0,1.7,0,2.6,0h2.5c1.7-.3,3.4-.4,5.1-.5,1.7-.2,3.4-.4,5-.5l2.5-.3,2.5-.4c1.7-.3,3.3-.5,5-.8,1.7-.3,3.3-.6,4.9-1,1.6-.3,3.3-.6,4.9-1l4.8-1.2c12.8-3.4,25.2-8,37.1-14.1,2.8-.9,5.4-2,7.7-3,2.3-1.1,4.4-2.3,6.3-3.5.9-.6,1.8-1.2,2.6-1.8.8-.6,1.5-1.2,2.2-1.8,1.4-1.1,2.5-2.2,3.5-3.2-4.3,2.1-12.6,6.1-20,9.5-3.6,1.8-7.1,3.3-9.5,4.8-2.4,1.4-4,2.5-3.8,3.3-2.7.7-5.4,1.5-8.1,2.2-2.7.6-5.4,1.3-8.1,1.9-6,2.1-6.7-.9-9.4-.6,2.8-.8,5.6-1.8,8-2.9,2.4-1.1,4.3-2.2,5.5-3.1,2.3-1.7,1.3-2.5-6.1-.4,3.5-1.3,6-2.2,7.8-2.7,1.8-.5,2.8-.7,3.3-.6,1.1.2.1,1.4-.9,2.7-1,1.3-2.2,2.5-1.6,2.8.3.1,1.1.1,2.6-.4,1.5-.5,3.6-1.3,6.7-2.7.9-1.2,1.8-2.4,2.7-3.6-1,.8-.5.8,1.1.4.8-.2,1.8-.5,3-1,.6-.2,1.2-.5,1.9-.7.7-.3,1.4-.6,2.1-.9,5.8-2.4,13-6.1,16.6-8.5-1.1.5-2.2.9-3.4,1.4,15.9-8.3,32.3-18.8,48.3-31.4,1-.8,2-1.6,3-2.4,1-.8,2-1.6,3-2.4,2-1.6,4-3.3,5.9-5,3.9-3.4,7.8-6.8,11.6-10.5,3.9-3.5,7.6-7.3,11.3-11.1,3.6-3.9,7.4-7.7,10.9-11.8,14.2-16,27-33.6,37.6-52,10.5-18.4,18.7-37.8,23.5-57,5.1-8.7,7.5-23.6,6.5-38.2-.5-7.3-1.6-14.4-3.1-20.8-.3-1.6-.8-3.1-1.2-4.6-.2-.8-.4-1.5-.5-2.2-.2-.7-.4-1.4-.6-2.1-.4-1.4-.7-2.8-1-4.1-.4-1.3-.7-2.5-.9-3.7-2.2-3.9-1.3-.8-.8,1.4.2,1.1.4,1.9,0,1.5-.2-.2-.5-.7-1.1-1.6-.6-.9-1.2-2.3-2.3-4-.6-.9-1-1.7-1.4-2.4-.4-.7-.7-1.4-1-1.9-.6-1.1-1-1.9-1.2-2.5-.4-1.2,0-1.5.2-1.5-.4-.5-.8-1-1.2-1.5l-1.3-1.4c-.9-.9-1.8-1.9-2.7-2.9,0-2,.8-3.1,2.6-2.9.9,0,2.1.6,3.6,1.5.8.4,1.6,1,2.5,1.6.9.6,1.8,1.5,2.8,2.4,4.1,3.7,9,9.9,13.3,19.1.3.6.6,1.2.8,1.8.2.6.5,1.2.7,1.9.5,1.3,1,2.6,1.5,3.9.5,1.3.9,2.8,1.3,4.2.2.7.4,1.5.6,2.2.2.7.4,1.5.6,2.3.7,3.1,1.4,6.4,1.8,9.8.1.9.2,1.7.4,2.6,0,.4.1.9.2,1.3,0,.4,0,.9.1,1.3.1,1.8.2,3.7.4,5.6Z"/>
    </g>
  </g>
</svg>