<?xml version="1.0" encoding="UTF-8"?>
<svg id="Layer_3" data-name="Layer 3" xmlns="http://www.w3.org/2000/svg" viewBox="0 0 831.83 980.53">
  <defs>
    <style>
      .cls-1 {
        fill: #5f6b53;
      }
    </style>
  </defs>
  <path class="cls-1" d="M690.86,582.18c-2.26,13.06-31.06,133.61-148.26,197.32-65.27,35.48-116.6,25.04-175.2,76.35-19.11,16.73-33.24,35.02-43.82,52.52,6.57-23.42,16.07-49.14,32.09-75.2,45.18-73.5,124.47-141.98,170.27-164.82,35.22-17.57,95.62-58.49,120.91-86.72,18.12-20.22,34.35-42.59,40.3-79.48,4.3-26.67-2.19-49.67-7.75-63.9,1.4,23.77-.65,56.9-19.43,87.89-24.4,40.26-60.79,50.09-111.89,79.87-68.91,40.16-110.73,85.24-142.06,119.02-30.43,32.8-60.7,66.06-80.04,106.98,33.37-150.93,133.58-270.09,178.48-322.22,79.03-91.75,106.51-90.02,142.9-161.73,43.83-86.36,47.22-174.1,42.8-236.12-3.91,30.77-11.29,72.07-26.2,119.23-6.59,20.85-24.19,76.48-53.62,124.33-53.91,87.65-101.97,75.1-177.37,157.19-72.45,78.88-98.72,167.38-111.98,213.87-20.45,71.69-23.93,135.32-22.43,182.19-5.97-32.52-11.79-69.26-14.47-109.03.39-33.82,3.97-70.92,12.74-110.25,11.8-52.89,24.08-107.89,65.86-163.15,58.43-77.27,121.1-84.34,136.05-154.61,7.38-34.69-3.95-51.53,10.6-92.22,13.78-38.53,38.77-64.92,57.46-81.05-16.71,8.7-40.89,24.43-57.78,52.05-22.54,36.85-13.53,64.51-30.1,103.41-16.67,39.14-43.17,51.92-78.58,82.24-13.11,11.23-55.38,48.78-90.8,101.93,12.26-51.38,26.96-93.68,40.31-118.19,22.39-41.09,55.24-128.49,63.3-182.48,5.77-38.68,8.77-80-4.86-140.15-9.85-43.48-27.45-77.07-39.71-97.26,13.45,36.74,28.63,89.51,27.79,145.33-1.09,72.53-28.5,101.92-58.78,168.27-40.83,89.47-54.98,176.24-65.58,241.26-13.63,83.63-26.62,168.42-8,271.02-.35,10.75-.86,22.22-1.58,34.56-.11,1.81-.23,3.97-.33,6.35-5.77-13.48-11.43-27.6-16.88-42.39-8.65-23.48-23.28-63.6-32.97-111.98-28.38-141.58,23.05-166.25-4.38-294.12-12.47-58.15-28.95-80.26-27.66-139.2,1.08-49.18,13.76-89.1,24.53-115.48-56.21,66.24-65.03,119.27-63.5,154.37,3.11,71.13,49.77,92.57,48.06,168.99-1.43,64.19-34.73,66.14-42.26,136.83-7.75,72.79,21.1,131.35,48.8,187.56,14.9,30.23,38.95,71.89,77.4,117.05.87,1.89,1.78,3.71,2.72,5.5-41.12-31.3-130.55-100.86-156.9-192.36-19.62-68.14,8.71-103.47-31.11-173.9-24.38-43.13-60.6-75.18-88-95.84,19.6,19.73,47.73,52.01,64.8,93.26,32.46,78.46-7.32,111.59,7.62,174.61,24.16,101.96,169.7,190.33,212.66,208.86,10.86,15.06,23.45,25.42,32.77,31.97-.19-1.66-.4-3.55-.61-5.57,0,0,.01.01.02.02,0-.01-.01-.02-.02-.03-.82-7.93-1.7-18.46-2.08-30.84,0-.32,0-.63-.02-.95,1.05-4.8,2.16-9.77,3.37-14.91,13.15-17.37,31.5-37.07,56.64-54.23,70.68-48.24,124.81-28.56,186.64-58.97,115.68-56.89,130.61-241.74,129.08-232.87Z"/>
</svg>