<?xml version="1.0" encoding="UTF-8"?>
<svg id="Layer_1" data-name="Layer 1" xmlns="http://www.w3.org/2000/svg" viewBox="0 0 691.63 993.28">
  <defs>
    <style>
      .cls-1 {
        fill: #5f6b53;
      }
    </style>
  </defs>
  <path class="cls-1" d="M449.11,641.81c-36.16,55.07-17.83,96.54-38.54,155.23-20.81,58.98-67.24,96.22-103.44,118.67,22.98-26.31,39.32-50.59,50.62-69.52,27.21-45.61,55.55-93.13,55.17-155.91-.37-60.98-27.41-65.48-23.34-120.39,4.85-65.36,44.7-79.68,53.05-140.12,4.12-29.83,1.25-75.83-39.25-137.16,6.64,23.43,13.74,58.58,10.61,100.65-3.76,50.41-19.02,67.88-33.95,116.44-32.84,106.79,7.15,132.23-27.58,250.64-11.87,40.46-27.09,73.46-36.07,92.76-2.73,5.86-5.48,11.56-8.26,17.16,27.62-166.38,58.23-177.19,45.95-257.37-15.46-100.84-79.85-187.94-95.68-208.48-30.61-39.71-55.8-59.08-64.46-103.74-8.61-44.38,7.36-71.22-8.06-114.81-11.56-32.68-33.61-54.6-49.35-67.48,16.13,21.09,36.58,54.33,42.3,97.69,6.05,45.8-9.88,60.81-10.07,98.7-.38,76.77,64.57,98.4,108.77,192.37,31.61,67.19,31.92,127.41,32.23,185.32.62,116.97-35.68,208.23-61.44,259.84,15.19-48.75,33.55-128.31,27.19-226.61-3.33-51.56-10.77-149.93-69.49-248.77-61.12-102.86-115.08-100.68-152.08-204.45-20.2-56.65-26.02-118.74-28.2-142.01-4.93-52.64-3.22-97.44-.26-130.45C6.43,63.75-10.26,156.13,16.32,256.27c22.07,83.15,51.67,87.59,114.41,201.35,31.85,57.75,98.23,181.42,112.39,324.93-9.47-24.79-22.41-48.02-35.44-71.08-19.23-34.02-44.89-79.43-93.14-125.67-35.78-34.28-63.25-49.16-75.79-87.35-9.65-29.4-5.51-57.54-.23-77.2-6.94,10.91-16.16,29-17.37,52.13-1.67,32,7.44,53.71,18.44,73.96,15.35,28.27,56.64,73.59,81.82,94.74,32.74,27.5,84.37,99.35,107.77,169.2,10.37,30.97,12.67,59.63,13.18,84.06-.02.15-.04.29-.06.44-4.78-19-12.91-39.96-26.91-60.09-37.61-54.08-82.93-52.54-129.67-93.64C1.79,668.25,4.58,557.48,5.6,545.61c.7-8.07-28.06,157.42,56.11,224.97,44.99,36.11,94.72,26.82,143.13,80,17.59,19.32,28.67,39.93,35.78,57.47-2.26,15.31-5.29,30.69-9.22,46.09-4.11,16.12-8.38,29.1-11.3,37.42,15.95-6.59,40.38-19.43,59.42-44.31,1.58-2.06,3.03-4.12,4.42-6.19,45.77-12.75,138.4-54.4,162.04-132.4,16.73-55.21-10.43-97.89,20.87-162.64,16.45-34.04,40.49-56.44,57-69.44-22.48,11.63-52.6,31.5-74.74,65.21Z"/>
</svg>